<svg width="146.949" height="77.136" viewBox="0 0 38.881 20.41" xmlns="http://www.w3.org/2000/svg"><g aria-label="500!" style="line-height:1.25;-inkscape-font-specification:'Latin Modern Mono Light, '" font-size="7.761" font-family="Latin Modern Mono Light" letter-spacing="0" word-spacing="0" fill="#ddd" stroke-width=".265"><path d="M5.859 6.03c0-.768-.59-1.514-1.49-1.514-.265 0-.606.047-1.04.28V3.057h2.01c.085 0 .24 0 .24-.155 0-.17-.147-.17-.24-.17H3.173c-.194 0-.24.054-.24.248v2.134c0 .109 0 .248.178.248.078 0 .116-.015.148-.046.263-.318.613-.474 1.102-.474.714 0 1.102.63 1.102 1.188 0 .683-.606 1.203-1.32 1.203-.248 0-.8-.078-1.063-.598.07-.077.124-.124.124-.248a.278.278 0 00-.28-.28c-.092 0-.279.063-.279.311 0 .629.645 1.14 1.498 1.14.955 0 1.716-.682 1.716-1.528zM9.949 5.106c0-1.436-.769-2.46-1.622-2.46-.87 0-1.622 1.048-1.622 2.453 0 1.435.768 2.46 1.622 2.46.869 0 1.622-1.048 1.622-2.453zm-.396-.085c0 1.242-.574 2.212-1.226 2.212S7.1 6.263 7.1 5.021c0-1.234.606-2.05 1.227-2.05.613 0 1.226.808 1.226 2.05zM14.024 5.106c0-1.436-.769-2.46-1.623-2.46-.869 0-1.622 1.048-1.622 2.453 0 1.435.769 2.46 1.622 2.46.87 0 1.623-1.048 1.623-2.453zm-.396-.085c0 1.242-.575 2.212-1.227 2.212-.651 0-1.226-.97-1.226-2.212 0-1.234.606-2.05 1.226-2.05.614 0 1.227.808 1.227 2.05zM16.794 3.018c0-.341-.256-.372-.318-.372s-.318.031-.318.372l.078 2.849c.007.132.163.132.24.132.225 0 .233-.062.249-.31zm0 4.137a.317.317 0 00-.318-.326.317.317 0 00-.318.326c0 .179.14.319.318.319.179 0 .318-.14.318-.319z"/></g><g aria-label="500!" style="line-height:1.25;-inkscape-font-specification:'Latin Modern Mono Light, '" font-size="7.761" font-family="Latin Modern Mono Light" letter-spacing="0" word-spacing="0" fill="#ddd" stroke-width=".265"><path d="M25.3 16.235c0-.769-.59-1.514-1.49-1.514-.264 0-.606.047-1.04.28v-1.739h2.01c.085 0 .24 0 .24-.155 0-.17-.147-.17-.24-.17h-2.166c-.194 0-.24.054-.24.248v2.134c0 .109 0 .248.178.248.078 0 .117-.015.148-.046.263-.318.613-.474 1.102-.474.714 0 1.102.629 1.102 1.188 0 .683-.606 1.203-1.32 1.203-.248 0-.799-.078-1.063-.598.07-.077.124-.124.124-.248a.278.278 0 00-.28-.28c-.092 0-.279.063-.279.31 0 .63.645 1.142 1.498 1.142.955 0 1.716-.683 1.716-1.53zM29.39 15.311c0-1.436-.768-2.46-1.622-2.46-.87 0-1.622 1.048-1.622 2.452 0 1.436.768 2.46 1.622 2.46.87 0 1.622-1.047 1.622-2.452zm-.396-.085c0 1.242-.574 2.212-1.226 2.212s-1.227-.97-1.227-2.212c0-1.234.606-2.05 1.227-2.05.613 0 1.226.808 1.226 2.05zM33.465 15.311c0-1.436-.769-2.46-1.622-2.46-.87 0-1.623 1.048-1.623 2.452 0 1.436.769 2.46 1.623 2.46.869 0 1.622-1.047 1.622-2.452zm-.396-.085c0 1.242-.574 2.212-1.226 2.212s-1.227-.97-1.227-2.212c0-1.234.606-2.05 1.227-2.05.613 0 1.226.808 1.226 2.05zM36.236 13.223c0-.341-.257-.372-.319-.372s-.318.03-.318.372l.078 2.849c.007.132.163.132.24.132.225 0 .233-.062.249-.31zm0 4.137a.317.317 0 00-.319-.326.317.317 0 00-.318.326c0 .179.14.318.318.318.179 0 .319-.14.319-.318z"/></g></svg>