<svg xmlns="http://www.w3.org/2000/svg" width="335" height="335"><path d="M189.66 30.4H98.946a34.277 34.277 0 0 0-34.277 34.277V270.34a34.277 34.277 0 0 0 34.277 34.277h137.108a34.277 34.277 0 0 0 34.277-34.277V111.054a17.14 17.14 0 0 0-5.021-12.117l-63.533-63.533a17.14 17.14 0 0 0-12.117-5.021m3.548 59.985V56.09l51.416 51.415h-34.278a17.14 17.14 0 0 1-17.138-17.138m-85.693 94.262a8.57 8.57 0 0 1 0-17.139h119.97a8.57 8.57 0 0 1 0 17.139zm-8.57 25.708a8.57 8.57 0 0 1 8.57-8.57h119.97a8.57 8.57 0 0 1 0 17.14h-119.97a8.57 8.57 0 0 1-8.57-8.57m8.57 42.846a8.57 8.57 0 0 1 0-17.138h68.554a8.57 8.57 0 0 1 0 17.138z" style="fill:#32302f;fill-opacity:1;stroke-width:17.1386"/></svg>