<svg xmlns="http://www.w3.org/2000/svg" width="512" height="512"><path d="M0 0h512v512H0z" style="fill:#a89984;fill-opacity:1;stroke-width:.784064"/><path d="M-117.784 397.139h5.293a1 1 0 0 1 .707.293l3.707 3.707a1 1 0 0 1 .293.707v9.293a2 2 0 0 1-2 2h-8a2 2 0 0 1-2-2v-12a2 2 0 0 1 2-2m5.5 1.5v2a1 1 0 0 0 1 1h2z" style="fill:#7c6f64;fill-opacity:1" transform="matrix(17.13858 0 0 17.13858 2222.92 -6606.391)"/><path d="M-117.784 397.139h5.293a1 1 0 0 1 .707.293l3.707 3.707a1 1 0 0 1 .293.707v9.293a2 2 0 0 1-2 2h-8a2 2 0 0 1-2-2v-12a2 2 0 0 1 2-2m5.5 1.5v2a1 1 0 0 0 1 1h2z" style="fill:#504945;fill-opacity:1" transform="matrix(17.13858 0 0 17.13858 2202.92 -6626.391)"/><path d="M-94.389 237.67h-5.293a2 2 0 0 0-2 2v12a2 2 0 0 0 2 2h8a2 2 0 0 0 2-2v-9.294a1 1 0 0 0-.293-.707l-3.707-3.707a1 1 0 0 0-.707-.293m.207 3.5v-2l3 3h-2a1 1 0 0 1-1-1m-5 5.5a.5.5 0 0 1 0-1h7a.5.5 0 0 1 0 1zm-.5 1.5a.5.5 0 0 1 .5-.5h7a.5.5 0 0 1 0 1h-7a.5.5 0 0 1-.5-.5m.5 2.5a.5.5 0 0 1 0-1h4a.5.5 0 0 1 0 1z" style="fill:#32302f;fill-opacity:1" transform="translate(1872.68 -3913.311)scale(17.13858)"/></svg>