<?xml version="1.0" encoding="UTF-8" standalone="no"?>
<svg
   xmlns:dc="http://purl.org/dc/elements/1.1/"
   xmlns:cc="http://creativecommons.org/ns#"
   xmlns:rdf="http://www.w3.org/1999/02/22-rdf-syntax-ns#"
   xmlns:svg="http://www.w3.org/2000/svg"
   xmlns="http://www.w3.org/2000/svg"
   xmlns:sodipodi="http://sodipodi.sourceforge.net/DTD/sodipodi-0.dtd"
   xmlns:inkscape="http://www.inkscape.org/namespaces/inkscape"
   viewBox="0 0 100 100"
   version="1.1"
   x="0px"
   y="0px"
   id="svg10"
   sodipodi:docname="beef.svg"
   width="100"
   height="100"
   inkscape:version="0.92.2 (5c3e80d, 2017-08-06)">
  <metadata
     id="metadata16">
    <rdf:RDF>
      <cc:Work
         rdf:about="">
        <dc:format>image/svg+xml</dc:format>
        <dc:type
           rdf:resource="http://purl.org/dc/dcmitype/StillImage" />
        <dc:title />
      </cc:Work>
    </rdf:RDF>
  </metadata>
  <defs
     id="defs14" />
  <sodipodi:namedview
     pagecolor="#ffffff"
     bordercolor="#666666"
     borderopacity="1"
     objecttolerance="10"
     gridtolerance="10"
     guidetolerance="10"
     inkscape:pageopacity="0"
     inkscape:pageshadow="2"
     inkscape:window-width="1366"
     inkscape:window-height="708"
     id="namedview12"
     showgrid="false"
     inkscape:zoom="3.776"
     inkscape:cx="-5.4584132"
     inkscape:cy="53.675393"
     inkscape:window-x="0"
     inkscape:window-y="32"
     inkscape:window-maximized="1"
     inkscape:current-layer="svg10" />
  <path
     inkscape:connector-curvature="0"
     id="path2"
     style="color:#000000;font-style:normal;font-variant:normal;font-weight:normal;font-stretch:normal;font-size:medium;line-height:normal;font-family:sans-serif;text-indent:0;text-align:start;text-decoration:none;text-decoration-line:none;text-decoration-style:solid;text-decoration-color:#000000;letter-spacing:normal;word-spacing:normal;text-transform:none;writing-mode:lr-tb;direction:ltr;baseline-shift:baseline;text-anchor:start;white-space:normal;clip-rule:nonzero;display:inline;overflow:visible;visibility:visible;opacity:1;isolation:auto;mix-blend-mode:normal;color-interpolation:sRGB;color-interpolation-filters:linearRGB;solid-color:#000000;solid-opacity:1;fill:#d62728;fill-opacity:1;fill-rule:evenodd;stroke:none;stroke-width:25;stroke-linecap:butt;stroke-linejoin:miter;stroke-miterlimit:4;stroke-dasharray:none;stroke-dashoffset:0;stroke-opacity:1;color-rendering:auto;image-rendering:auto;shape-rendering:auto;text-rendering:auto;enable-background:accumulate"
     d="m 54.158873,11.817858 c -0.3859,0 -0.7715,0 -1.1567,0.01 -0.8805,0.012 -1.759,0.04 -2.6344,0.082 -7.5428,0.3628 -15.1415,1.7961 -22.196,4.8318 -7.0635,3.0397 -13.5411,7.7149 -18.2444006,13.9569 -2.1214,2.8156 -4.025,6.1505 -4.5348,10.028 -0.088,0.6681 -0.131,1.3475 -0.1259,2.0309 v 0 11.57395 0.1125 0 c 0,1.3305 0.1925,2.6776 0.6143,3.989 0.6339,1.9706 1.7822,3.8093 3.4459,5.1958 1.4419006,1.2016 3.1122006,1.9361 4.7713006,2.3657 1.6514,0.4277 3.2794,0.5559 4.8184,0.5833 3.0743,0.055 5.833,-0.2339 8.2061,0.1593 4.2391,0.7023 8.1645,3.5837 11.7442,6.961 3.601,3.3973 7.1369,7.4549 11.9418,10.3403 5.8467,3.5111 12.9158,4.6915 19.5821,3.4577 6.6584,-1.2323 12.7508,-4.815 17.1769,-9.8856 4.6508,-5.3279 7.3985,-12.2159 7.6756,-19.2862 0.016,-0.4063 0.021,-0.8126 0.02,-1.2187 v 0 -11.68605 0 c 0.01,-6.6868 -2.1774,-13.3206 -6.1982,-18.6766 -4.4366,-5.9097 -10.8393,-9.9958 -17.6749,-12.2973 -5.5936,-1.8833 -11.4444,-2.6098 -17.2324,-2.6241 z m 0.1393,4.9003 c 0.41,0 0.8198,0.01 1.229,0.018 4.9105,0.1199 9.7545,0.8178 14.301,2.3486 6.0451,2.0353 11.597,5.6361 15.3202,10.5955 3.5539,4.7339 5.4308,10.7717 5.1988,16.6901 -0.2319,5.91915 -2.5733,11.79115 -6.4711,16.25655 -3.7075,4.2474 -8.8743,7.2713 -14.3779,8.2899 -5.4957,1.0171 -11.4112,0.016 -16.168,-2.8404 -3.9437,-2.3682 -7.2802,-6.0984 -11.1019,-9.7042 -3.8431,-3.6257 -8.4768,-7.2649 -14.3052,-8.2306 -3.2677,-0.5414 -6.277,-0.1771 -8.9196,-0.2242 -1.3194,-0.024 -2.562,-0.1385 -3.6782,-0.4276 -1.1085,-0.287 -2.1086,-0.7581 -2.8629,-1.3867 -0.8636,-0.71965 -1.5449,-1.77115 -1.9184,-2.93225 -0.376501,-1.1706 -0.467301,-2.4941 -0.294301,-3.8099 0.347901,-2.6459 1.752601,-5.2788 3.590601,-7.7181 4.1069,-5.4505 9.884,-9.6578 16.2683,-12.4052 6.3934,-2.7513 13.414,-4.0978 20.4945,-4.4383 1.2323,-0.059 2.4651,-0.088 3.6951,-0.082 z m -0.022,4.6707 c -1.1422,-0.01 -2.2931,0.021 -3.4486,0.077 -6.6398,0.3194 -13.1092,1.5831 -18.8725,4.0632 -5.7365,2.4687 -10.8456,6.2296 -14.384,10.9256 -1.5679,2.0808 -2.4965,4.0443 -2.6899,5.5158 -0.094,0.7143 -0.024,1.3529 0.1102,1.7702 0.1253,0.3894 0.3611,0.6905 0.4616,0.7742 0.1,0.083 0.4612,0.3027 1.0437,0.4536 0.6049,0.1566 1.4794,0.2592 2.5905,0.279 2.2311,0.04 5.479,-0.3964 9.5993,0.2863 7.3437,1.2168 12.6533,5.57865 16.7475,9.44125 4.0324,3.8045 7.1788,7.2225 10.3012,9.0976 3.7175,2.2324 8.5333,3.0623 12.9132,2.2517 4.4027,-0.8149 8.6866,-3.3061 11.709,-6.7685 3.1798,-3.6429 5.1335,-8.5463 5.3224,-13.36795 0.1889,-4.8195 -1.3773,-9.8537 -4.2668,-13.7027 -3.043,-4.0534 -7.7837,-7.1916 -13.0751,-8.9731 -4.0051,-1.3485 -8.3778,-1.9961 -12.9226,-2.1063 -0.3787,-0.01 -0.7584,-0.015 -1.1391,-0.017 z m 11.3871,20.0716 a 8.314161,6.1841013 0 0 1 8.3141,6.18415 8.314161,6.1841013 0 0 1 -8.3141,6.184 8.314161,6.1841013 0 0 1 -8.3144,-6.184 8.314161,6.1841013 0 0 1 8.3144,-6.18415 z m -55.3326,11.14645 c 1.1881,0.7753 2.4807,1.2928 3.767,1.6259 1.6514,0.4276 3.2794,0.5559 4.8184,0.5833 3.0743,0.055 5.8329,-0.234 8.2061,0.1592 4.2391,0.7024 8.1645,3.5837 11.7442,6.9611 3.6009,3.3973 7.1368,7.4548 11.9417,10.3403 5.8467,3.511 12.9158,4.6915 19.5821,3.4577 6.6584,-1.2323 12.7509,-4.8151 17.177,-9.8856 0.7375,-0.845 1.4268,-1.7295 2.0664,-2.6475 -0.9978,4.1137 -2.9827,8.0054 -5.7573,11.1839 -3.7075,4.2474 -8.8743,7.2713 -14.3779,8.2899 -5.4957,1.0172 -11.4112,0.016 -16.168,-2.8403 -3.9437,-2.3683 -7.2802,-6.0985 -11.1019,-9.7042 -3.8431,-3.6257 -8.4768,-7.2649 -14.3052,-8.2306 -3.2677,-0.5414 -6.277,-0.1772 -8.9196,-0.2243 -1.3194,-0.024 -2.562,-0.1385 -3.6782,-0.4275 -1.1085,-0.2871 -2.1086,-0.7581 -2.8629,-1.3867 -0.8636,-0.7196 -1.5449,-1.7711 -1.9184,-2.9322 -0.376501,-1.1706 -0.467301,-2.4942 -0.294301,-3.8099 0.022,-0.1709 0.05,-0.3418 0.081,-0.5125 z" />
</svg>
