<svg xmlns="http://www.w3.org/2000/svg" width="100" height="100"><path style="line-height:normal;text-indent:0;text-align:start;text-decoration-line:none;text-decoration-style:solid;text-decoration-color:#000;text-transform:none;isolation:auto;mix-blend-mode:normal" d="M54.159 11.818c-.386 0-.772 0-1.157.01-.88.012-1.759.04-2.634.082-7.543.363-15.142 1.796-22.196 4.832-7.064 3.04-13.541 7.715-18.245 13.957-2.121 2.815-4.025 6.15-4.534 10.028a14.72 14.72 0 0 0-.126 2.03v11.687c0 1.33.192 2.678.614 3.989.634 1.97 1.782 3.81 3.446 5.196 1.442 1.201 3.112 1.936 4.771 2.365 1.652.428 3.28.556 4.819.584 3.074.055 5.833-.234 8.206.159 4.239.702 8.164 3.584 11.744 6.961 3.6 3.397 7.137 7.455 11.942 10.34 5.846 3.511 12.915 4.692 19.582 3.458 6.658-1.232 12.75-4.815 17.177-9.886 4.65-5.327 7.398-12.215 7.675-19.286.016-.406.021-.812.02-1.218V45.419c.01-6.686-2.177-13.32-6.198-18.676-4.437-5.91-10.84-9.996-17.675-12.297-5.593-1.884-11.444-2.61-17.232-2.625zm.14 4.9c.41 0 .819.01 1.228.018 4.91.12 9.755.818 14.301 2.349 6.045 2.035 11.597 5.636 15.32 10.595 3.554 4.734 5.431 10.772 5.2 16.69-.233 5.92-2.574 11.792-6.472 16.257-3.707 4.247-8.874 7.271-14.378 8.29-5.496 1.017-11.411.016-16.168-2.84-3.944-2.369-7.28-6.099-11.102-9.705-3.843-3.625-8.477-7.265-14.305-8.23-3.268-.542-6.277-.177-8.92-.225-1.319-.024-2.562-.138-3.678-.427-1.108-.287-2.108-.758-2.863-1.387-.863-.72-1.545-1.771-1.918-2.932-.377-1.17-.467-2.494-.294-3.81.348-2.646 1.752-5.279 3.59-7.718 4.107-5.45 9.884-9.658 16.269-12.405 6.393-2.752 13.414-4.098 20.494-4.439a70.138 70.138 0 0 1 3.695-.082zm-.023 4.67a60.393 60.393 0 0 0-3.448.078c-6.64.32-13.11 1.583-18.873 4.063-5.736 2.469-10.846 6.23-14.384 10.926-1.568 2.08-2.496 4.044-2.69 5.515-.094.715-.024 1.353.11 1.77.126.39.361.691.462.775.1.083.461.303 1.044.453.605.157 1.48.26 2.59.28 2.231.04 5.48-.397 9.6.286 7.343 1.217 12.653 5.578 16.747 9.441 4.032 3.805 7.179 7.223 10.301 9.098 3.718 2.232 8.533 3.062 12.913 2.251 4.403-.815 8.687-3.306 11.71-6.768 3.18-3.643 5.133-8.546 5.322-13.368.189-4.82-1.378-9.854-4.267-13.703-3.043-4.053-7.784-7.191-13.075-8.973-4.005-1.348-8.378-1.996-12.923-2.106-.378-.01-.758-.015-1.139-.017zM65.663 41.46a8.314 6.184 0 0 1 8.314 6.185 8.314 6.184 0 0 1-8.314 6.184 8.314 6.184 0 0 1-8.314-6.184 8.314 6.184 0 0 1 8.314-6.185zM10.331 52.607c1.188.775 2.48 1.293 3.767 1.626 1.651.427 3.28.556 4.818.583 3.074.055 5.833-.234 8.206.16 4.24.702 8.165 3.583 11.744 6.96 3.601 3.398 7.137 7.455 11.942 10.34 5.847 3.512 12.916 4.692 19.582 3.458 6.659-1.232 12.751-4.815 17.177-9.885a30.818 30.818 0 0 0 2.067-2.648c-.998 4.114-2.983 8.006-5.758 11.184-3.707 4.248-8.874 7.272-14.378 8.29-5.495 1.017-11.41.016-16.168-2.84-3.943-2.368-7.28-6.099-11.102-9.704-3.843-3.626-8.476-7.265-14.305-8.231-3.267-.541-6.277-.177-8.92-.224-1.319-.024-2.561-.139-3.678-.428-1.108-.287-2.108-.758-2.862-1.386-.864-.72-1.545-1.772-1.919-2.933-.376-1.17-.467-2.494-.294-3.81.022-.17.05-.341.08-.512z" color="#000" font-weight="400" font-family="sans-serif" white-space="normal" overflow="visible" fill="#fff" fill-rule="evenodd"/></svg>