<svg xmlns="http://www.w3.org/2000/svg" width="100" height="100"><g fill="#fff"><path d="M96.103 76.819H85.918c2.967-2.303 4.888-5.894 4.888-9.933 0-6.938-5.646-12.582-12.582-12.582h-.742c-1.405-5.85-4.157-9.626-7.841-13.208l2.605-2.205c1.058-.867 1.795-1.968 2.272-3.155a7.779 7.779 0 0 0 .388-1.258c.03-.137.06-.276.083-.417a7.884 7.884 0 0 0 .103-1.661c-.01-.174-.016-.346-.035-.52a9.04 9.04 0 0 0-.065-.463l7.717-6.331a5.733 5.733 0 0 0 4.203 1.823 5.759 5.759 0 0 0 3.646-1.306 5.71 5.71 0 0 0 2.077-3.883 5.717 5.717 0 0 0-1.277-4.214 5.707 5.707 0 0 0-3.76-2.051 5.687 5.687 0 0 0-1.28-4.093 5.738 5.738 0 0 0-4.448-2.103 5.763 5.763 0 0 0-3.646 1.306 5.758 5.758 0 0 0-.555 8.376l-7.717 6.332a7.827 7.827 0 0 0-2.814-.53 7.86 7.86 0 0 0-4.971 1.779l-3.151 2.586c-.688.563-1.917 1.22-3.434 1.908l-.241.11c-.17.076-.345.15-.52.225l-.414.179c-.074.03-.152.064-.228.094a41.666 41.666 0 0 0-12.21-1.812c-20.172 0-36.583 14.183-36.583 31.616 0 4.788 1.246 8.689 3.602 11.299a13.61 13.61 0 0 0 3.553 4.092H2.074a1.323 1.323 0 0 0-1.102 2.058l7.946 11.919c.246.369.66.59 1.102.59h78.136c.442 0 .856-.221 1.103-.59l7.945-11.92a1.32 1.32 0 0 0 .065-1.357 1.317 1.317 0 0 0-1.166-.7zM80.626 19.942a1.326 1.326 0 0 0-.218-2.194 3.101 3.101 0 0 1-.938-.765 3.108 3.108 0 0 1 .432-4.37c1.288-1.052 3.32-.85 4.367.429a3.08 3.08 0 0 1 .405 3.27 1.32 1.32 0 0 0 .179 1.393c.32.393.837.568 1.33.449 1.156-.272 2.389.13 3.128 1.032a3.106 3.106 0 0 1-.433 4.369c-1.284 1.058-3.316.849-4.366-.428a3.005 3.005 0 0 1-.364-.564 1.323 1.323 0 0 0-2.02-.426l-8.092 6.64c-.022-.04-.054-.073-.077-.11a7.8 7.8 0 0 0-.625-.896l-.13-.157a7.884 7.884 0 0 0-.758-.791c-.032-.03-.058-.065-.09-.094zM54.73 34.262c.005-.002.012-.001.018-.004 2.913-1.191 4.858-2.205 5.945-3.097l3.153-2.58a5.107 5.107 0 0 1 3.28-1.176 5.22 5.22 0 0 1 3.02.976c.064.043.13.079.193.127.28.219.54.465.769.743l.177.24a5.199 5.199 0 0 1 1.155 2.79 5.192 5.192 0 0 1-1.874 4.48l-3.152 2.585c-.1.083-.188.18-.261.289-.21.313-5.17 7.737-7.422 12.143a10.638 10.638 0 0 1-3.041 4.077 10.838 10.838 0 0 1-6.851 2.454h-.003a10.784 10.784 0 0 1-8.37-3.958c-3.782-4.61-3.11-11.438 1.5-15.221a10.84 10.84 0 0 1 3.06-1.745c.039-.015.077-.031.112-.05l.045-.013c.183-.065.367-.122.573-.183 1.805-.581 5.004-1.66 7.974-2.877zm-43.498 37.05a1.283 1.283 0 0 0-.193-.268c-1.965-2.11-3.004-5.436-3.004-9.616 0-15.973 15.223-28.968 33.936-28.968 2.678 0 5.318.293 7.9.823-1.311.47-2.64.92-3.901 1.328-.227.068-.452.137-.631.2l-.172.056a1.404 1.404 0 0 0-.251.107 13.44 13.44 0 0 0-3.625 2.107c-5.74 4.71-6.578 13.21-1.87 18.949a13.43 13.43 0 0 0 10.418 4.927h.003a13.49 13.49 0 0 0 8.53-3.055 13.119 13.119 0 0 0 3.757-5c1.445-2.821 4.199-7.156 5.857-9.71 3.527 3.466 5.969 6.979 7.139 12.7a1.32 1.32 0 0 0 1.296 1.06h1.805c5.478 0 9.933 4.457 9.933 9.934 0 5.477-4.455 9.933-9.933 9.933H19.953c-3.47 0-6.892-2.163-8.721-5.506zm76.216 17.426h-76.72l-6.18-9.271h89.08z"/><path d="M2.768 78.6l7.68 11.652H88.44l7.415-11.918z"/></g></svg>