<?xml version="1.0" encoding="UTF-8" standalone="no"?>
<svg
   xmlns:dc="http://purl.org/dc/elements/1.1/"
   xmlns:cc="http://creativecommons.org/ns#"
   xmlns:rdf="http://www.w3.org/1999/02/22-rdf-syntax-ns#"
   xmlns:svg="http://www.w3.org/2000/svg"
   xmlns="http://www.w3.org/2000/svg"
   xmlns:sodipodi="http://sodipodi.sourceforge.net/DTD/sodipodi-0.dtd"
   xmlns:inkscape="http://www.inkscape.org/namespaces/inkscape"
   version="1.1"
   x="0px"
   y="0px"
   viewBox="0 0 100 100"
   enable-background="new 0 0 100 100"
   xml:space="preserve"
   id="svg12"
   sodipodi:docname="chicken.svg"
   width="100"
   height="100"
   inkscape:version="0.92.2 (5c3e80d, 2017-08-06)"><metadata
     id="metadata18"><rdf:RDF><cc:Work
         rdf:about=""><dc:format>image/svg+xml</dc:format><dc:type
           rdf:resource="http://purl.org/dc/dcmitype/StillImage" /><dc:title></dc:title></cc:Work></rdf:RDF></metadata><defs
     id="defs16" /><sodipodi:namedview
     pagecolor="#ffffff"
     bordercolor="#666666"
     borderopacity="1"
     objecttolerance="10"
     gridtolerance="10"
     guidetolerance="10"
     inkscape:pageopacity="0"
     inkscape:pageshadow="2"
     inkscape:window-width="1366"
     inkscape:window-height="708"
     id="namedview14"
     showgrid="false"
     fit-margin-top="0"
     fit-margin-left="0"
     fit-margin-right="0"
     fit-margin-bottom="0"
     inkscape:zoom="2.6700352"
     inkscape:cx="-56.825418"
     inkscape:cy="45.391157"
     inkscape:window-x="0"
     inkscape:window-y="32"
     inkscape:window-maximized="1"
     inkscape:current-layer="svg12" /><g
     id="g836"
     transform="translate(-1.072184,0.34188245)"><path
       style="fill:#ffc116;fill-opacity:1;stroke:none;stroke-opacity:1"
       id="path2"
       d="M 97.175,76.477 H 86.99 c 2.967,-2.303 4.888,-5.894 4.888,-9.933 0,-6.938 -5.646,-12.582 -12.582,-12.582 h -0.742 c -1.405,-5.85 -4.157,-9.626 -7.841,-13.208 l 2.605,-2.205 c 1.058,-0.867 1.795,-1.968 2.272,-3.155 0.009,-0.019 0.015,-0.037 0.021,-0.056 0.155,-0.394 0.278,-0.792 0.367,-1.202 0.031,-0.137 0.061,-0.276 0.083,-0.417 0.05,-0.291 0.084,-0.582 0.098,-0.877 0.015,-0.261 0.016,-0.522 0.005,-0.784 -0.01,-0.174 -0.016,-0.346 -0.035,-0.52 -0.018,-0.155 -0.039,-0.309 -0.065,-0.463 l 7.717,-6.331 c 1.085,1.163 2.599,1.823 4.203,1.823 1.326,0 2.621,-0.464 3.646,-1.306 1.189,-0.975 1.927,-2.354 2.077,-3.883 0.151,-1.53 -0.303,-3.026 -1.277,-4.214 -0.946,-1.153 -2.29,-1.879 -3.759,-2.051 0.121,-1.456 -0.317,-2.918 -1.281,-4.093 -1.097,-1.336 -2.72,-2.103 -4.448,-2.103 -1.326,0 -2.622,0.465 -3.646,1.306 -2.453,2.011 -2.812,5.644 -0.799,8.097 0.078,0.096 0.16,0.188 0.244,0.279 l -7.717,6.332 c -0.887,-0.341 -1.835,-0.53 -2.814,-0.53 -1.807,0 -3.572,0.632 -4.971,1.779 l -3.151,2.586 c -0.688,0.563 -1.917,1.221 -3.434,1.908 -0.082,0.037 -0.156,0.072 -0.241,0.11 -0.169,0.076 -0.345,0.15 -0.52,0.225 -0.137,0.06 -0.271,0.117 -0.414,0.179 -0.074,0.031 -0.152,0.064 -0.228,0.094 C 51.32,30.079 47.215,29.47 43.042,29.47 22.869,29.47 6.458,43.653 6.458,61.086 c 0,4.788 1.246,8.689 3.602,11.299 0.912,1.622 2.14,3.001 3.553,4.092 H 3.146 c -0.489,0 -0.938,0.269 -1.168,0.7 -0.23,0.43 -0.206,0.952 0.066,1.358 L 9.99,90.454 c 0.246,0.369 0.66,0.59 1.102,0.59 h 78.136 c 0.442,0 0.856,-0.221 1.103,-0.59 l 7.945,-11.919 c 0.271,-0.406 0.296,-0.929 0.065,-1.358 -0.229,-0.432 -0.677,-0.7 -1.166,-0.7 z M 81.698,19.6 c 0.343,-0.282 0.522,-0.715 0.478,-1.157 -0.044,-0.44 -0.305,-0.83 -0.696,-1.037 -0.362,-0.192 -0.678,-0.451 -0.938,-0.765 -1.085,-1.325 -0.893,-3.284 0.432,-4.37 1.288,-1.052 3.32,-0.849 4.367,0.429 0.756,0.919 0.911,2.174 0.405,3.27 -0.213,0.459 -0.143,1 0.179,1.393 0.321,0.393 0.837,0.568 1.331,0.449 1.155,-0.272 2.388,0.13 3.127,1.032 1.086,1.325 0.892,3.285 -0.433,4.369 -1.284,1.058 -3.316,0.849 -4.366,-0.428 C 85.447,22.62 85.329,22.435 85.22,22.221 85.039,21.863 84.705,21.607 84.313,21.524 83.92,21.441 83.51,21.543 83.2,21.795 l -8.092,6.64 c -0.022,-0.039 -0.054,-0.073 -0.077,-0.109 -0.188,-0.308 -0.39,-0.611 -0.625,-0.897 l -0.13,-0.157 c -0.233,-0.286 -0.492,-0.544 -0.758,-0.791 -0.032,-0.03 -0.058,-0.065 -0.09,-0.094 z M 55.802,33.92 c 0.005,-0.002 0.012,-0.001 0.018,-0.004 2.913,-1.191 4.858,-2.205 5.945,-3.097 l 3.153,-2.58 c 0.937,-0.77 2.07,-1.176 3.28,-1.176 1.109,0 2.159,0.363 3.021,0.976 0.063,0.043 0.13,0.079 0.192,0.127 0.28,0.219 0.541,0.465 0.769,0.743 l 0.177,0.24 c 0.678,0.827 1.056,1.8 1.155,2.791 0.145,1.654 -0.497,3.349 -1.874,4.479 l -3.152,2.585 c -0.1,0.083 -0.188,0.18 -0.261,0.289 -0.21,0.313 -5.169,7.737 -7.422,12.143 -0.693,1.617 -1.718,2.991 -3.041,4.077 -1.931,1.582 -4.362,2.454 -6.851,2.454 h -0.003 c -3.256,0 -6.307,-1.443 -8.369,-3.958 -3.783,-4.609 -3.11,-11.438 1.5,-15.221 0.893,-0.73 1.923,-1.318 3.06,-1.745 0.038,-0.015 0.076,-0.031 0.111,-0.049 l 0.045,-0.014 c 0.183,-0.065 0.367,-0.122 0.573,-0.183 1.805,-0.581 5.004,-1.659 7.974,-2.877 z M 12.304,70.971 c -0.052,-0.098 -0.118,-0.188 -0.193,-0.269 -1.965,-2.109 -3.004,-5.436 -3.004,-9.616 0,-15.973 15.223,-28.968 33.936,-28.968 2.678,0 5.318,0.293 7.901,0.823 -1.312,0.471 -2.64,0.921 -3.902,1.328 -0.227,0.068 -0.452,0.137 -0.631,0.201 l -0.172,0.055 c -0.089,0.028 -0.172,0.064 -0.251,0.107 -1.337,0.524 -2.557,1.232 -3.625,2.107 -5.74,4.71 -6.578,13.211 -1.869,18.949 2.568,3.131 6.364,4.925 10.417,4.927 h 0.003 c 3.099,0 6.129,-1.086 8.53,-3.055 1.655,-1.36 2.935,-3.07 3.757,-5 1.445,-2.821 4.199,-7.156 5.857,-9.71 3.527,3.466 5.969,6.979 7.139,12.701 0.125,0.618 0.666,1.06 1.296,1.06 h 1.805 c 5.478,0 9.933,4.456 9.933,9.933 0,5.477 -4.455,9.933 -9.933,9.933 H 21.025 c -3.469,0 -6.892,-2.163 -8.721,-5.506 z M 88.52,88.396 H 11.801 L 5.621,79.125 H 21.025 79.296 94.7 Z"
       inkscape:connector-curvature="0" /><path
       inkscape:connector-curvature="0"
       id="path832"
       d="M 3.8400424,78.257415 11.520127,89.909958 H 89.512712 L 96.927966,77.992585 Z"
       style="fill:#ffc116;fill-opacity:1;stroke:none;stroke-width:1px;stroke-linecap:butt;stroke-linejoin:miter;stroke-opacity:1" /></g></svg>