<svg xmlns="http://www.w3.org/2000/svg" width="76" height="76"><g transform="matrix(.132 0 0 .132 4.34 4.34)" fill="#17becf"><path d="M218.016 81.859c-7.678 0-13.967 6.29-13.967 13.968v4.026c0 6.44 4.485 11.87 10.444 13.464-2.36 5.952-8.53 21.848-15.98 44.042-9.026 26.88-18.17 58.207-18.372 78.139-.379 37.475 0 161.814 0 161.814a4.027 4.027 0 0 0 0 .378c.466 5.762 3.776 10.656 8.431 14.47 4.655 3.815 10.697 6.72 17.742 9.06 14.09 4.68 32.042 6.911 49.953 6.92 17.911 0 35.776-2.224 49.45-6.92 6.837-2.348 12.634-5.288 16.987-9.185 4.32-3.87 7.123-8.988 7.046-14.722v-.125c.001-.193.628-127.85 0-166.473-.332-20.422-9.495-50.549-18.497-76.125-7.302-20.75-13.265-35.35-15.728-41.272 5.958-1.593 10.444-7.023 10.444-13.464v-4.026c0-7.678-6.29-13.967-13.968-13.967h-73.987zm0 8.053h73.987c3.356 0 5.915 2.558 5.915 5.915v4.026c0 3.356-2.558 5.914-5.915 5.914h-73.987c-3.356 0-5.914-2.558-5.914-5.914v-4.026c0-3.356 2.558-5.915 5.914-5.915zm5.033 23.908h63.796c.846 1.977 8.422 19.431 16.862 43.41 8.9 25.29 17.7 55.57 17.993 73.609.622 38.274 0 166.472 0 166.472a4.027 4.027 0 0 0 0 .125c.067 3.176-1.26 5.866-4.404 8.682-3.144 2.817-8.039 5.428-14.218 7.55-12.36 4.244-29.58 6.426-46.809 6.417-17.228 0-34.584-2.274-47.436-6.543-6.427-2.135-11.702-4.788-15.225-7.675-3.523-2.888-5.155-5.77-5.411-8.934-.002-.579-.376-124.283 0-161.44.176-17.427 9.055-49.002 17.994-75.622 8.477-25.248 16.013-43.945 16.86-46.055z" style="text-indent:0;text-transform:none" color="#000"/><rect ry="5.396" y="250.177" x="185.902" height="152.703" width="137.707"/><ellipse ry="41.079" rx="72.852" cy="385.31" cx="255.108"/><path d="M502.462 255C502.462 118.33 391.67 7.538 255 7.538S7.538 118.33 7.538 255 118.33 502.462 255 502.462C391.6 502.294 502.294 391.6 502.462 255zm-472.995 0C29.33 166.057 81.525 85.356 162.7 49.003c81.175-36.353 176.138-21.555 242.402 37.774l4.518 4.57-318.274 318.07-4.57-4.518A224.57 224.57 0 0 1 29.467 255zm76.7 169.188l-4.518-4.467 318.172-317.97 4.467 4.518c78.523 89.263 74.188 224.174-9.903 308.212-84.091 84.038-219.005 88.287-308.218 9.707z" stroke="#17becf" stroke-width="5.076"/></g></svg>