<svg xmlns="http://www.w3.org/2000/svg" height="75" width="75" viewBox="0 0 91.463 91.463"><circle r="39.634" cy="45.732" cx="45.732" class="icon" fill="#0a5c5c"/><g fill="#fff"><path d="M46.515 19.732a27.02 27.02 0 00-27.02 27.02 27.02 27.02 0 003.024 12.403 1.141 1.141 0 011.049-.92c1.476-.09 3.018-1.184 3.753-2.665 1.587-3.195 1.505-6.897 1.258-9.766-.033-.38-.086-.795-.141-1.23-.226-1.771-.482-3.78.207-5.43.581-1.395 1.79-2.356 2.856-3.205.65-.517 1.262-1.005 1.685-1.531a30.002 30.002 0 00.897-1.2c.957-1.326 2.042-2.829 3.612-3.645 3.29-1.708 7.004-1.927 9.873-1.927.882 0 1.8.043 2.733.086 1.796.085 3.651.17 5.266-.071 3.857-.571 5.329-1.588 5.885-2.342a1.134 1.134 0 01.846-.456 27.02 27.02 0 00-15.783-5.121z"/><path d="M45.732 73.17c-15.13 0-27.44-12.31-27.44-27.438 0-15.13 12.31-27.44 27.44-27.44 15.129 0 27.439 12.31 27.439 27.44 0 15.129-12.31 27.439-27.44 27.439zm0-52.59c-13.87 0-25.152 11.283-25.152 25.152 0 13.87 11.283 25.152 25.152 25.152 13.87 0 25.152-11.283 25.152-25.152 0-13.87-11.283-25.152-25.152-25.152z"/><path d="M45.732 56.957c-6.19 0-11.225-5.036-11.225-11.225 0-6.19 5.034-11.225 11.225-11.225 6.19 0 11.225 5.035 11.225 11.225 0 6.19-5.036 11.225-11.225 11.225zm0-20.164c-4.929 0-8.939 4.01-8.939 8.939 0 4.93 4.01 8.938 8.939 8.938 4.93 0 8.938-4.01 8.938-8.938 0-4.929-4.008-8.939-8.938-8.939z"/><path d="M22.726 59.775a1.143 1.143 0 01-.067-2.284c1.476-.09 3.018-1.184 3.752-2.665 1.589-3.196 1.506-6.898 1.26-9.766-.034-.38-.088-.795-.143-1.23-.225-1.772-.481-3.78.207-5.43.582-1.396 1.79-2.357 2.857-3.206.65-.517 1.263-1.004 1.686-1.53.303-.378.597-.786.896-1.2.957-1.326 2.043-2.83 3.613-3.646 3.29-1.708 7.003-1.926 9.872-1.926.881 0 1.8.042 2.734.085 1.796.085 3.651.172 5.265-.07 3.858-.571 5.33-1.589 5.885-2.342a1.143 1.143 0 011.84 1.357c-1.2 1.627-3.616 2.69-7.39 3.247-1.833.272-3.803.18-5.708.094a57.06 57.06 0 00-2.627-.084c-2.608 0-5.968.19-8.817 1.668-1.087.566-1.966 1.781-2.814 2.957a31.35 31.35 0 01-.966 1.29c-.583.728-1.326 1.319-2.045 1.89-.933.743-1.815 1.443-2.17 2.296-.453 1.088-.238 2.774-.048 4.263.059.466.115.912.15 1.321.275 3.166.353 7.275-1.487 10.98-1.096 2.213-3.373 3.792-5.661 3.93h-.073z"/></g></svg>