<?xml version="1.0" encoding="UTF-8" standalone="no"?>
<svg
   xmlns:dc="http://purl.org/dc/elements/1.1/"
   xmlns:cc="http://creativecommons.org/ns#"
   xmlns:rdf="http://www.w3.org/1999/02/22-rdf-syntax-ns#"
   xmlns:svg="http://www.w3.org/2000/svg"
   xmlns="http://www.w3.org/2000/svg"
   xmlns:sodipodi="http://sodipodi.sourceforge.net/DTD/sodipodi-0.dtd"
   xmlns:inkscape="http://www.inkscape.org/namespaces/inkscape"
   version="1.1"
   x="0px"
   y="0px"
   viewBox="0 0 100 100"
   enable-background="new 0 0 48 48"
   xml:space="preserve"
   id="svg14"
   sodipodi:docname="Dessert.svg"
   width="100"
   height="100"
   inkscape:version="0.92.3 (2405546, 2018-03-11)"><metadata
     id="metadata20"><rdf:RDF><cc:Work
         rdf:about=""><dc:format>image/svg+xml</dc:format><dc:type
           rdf:resource="http://purl.org/dc/dcmitype/StillImage" /><dc:title></dc:title></cc:Work></rdf:RDF></metadata><defs
     id="defs18" /><sodipodi:namedview
     pagecolor="#ffffff"
     bordercolor="#666666"
     borderopacity="1"
     objecttolerance="10"
     gridtolerance="10"
     guidetolerance="10"
     inkscape:pageopacity="0"
     inkscape:pageshadow="2"
     inkscape:window-width="1920"
     inkscape:window-height="1018"
     id="namedview16"
     showgrid="false"
     inkscape:zoom="1.9666667"
     inkscape:cx="85.183592"
     inkscape:cy="18.922515"
     inkscape:window-x="0"
     inkscape:window-y="34"
     inkscape:window-maximized="1"
     inkscape:current-layer="svg14" /><g
     id="g914"
     style="fill:#ffffff;fill-opacity:1"><path
       inkscape:connector-curvature="0"
       id="path908"
       d="M 50.529291,5.8293722 A 47,47 0 0 0 3.5292913,52.829373 a 47,47 0 0 0 5.26172,21.576172 c 0.17188,-0.865806 0.9011199,-1.542752 1.8242197,-1.59961 2.56748,-0.155122 5.25057,-2.059333 6.52734,-4.634765 2.76238,-5.55856 2.61902,-11.998505 2.18945,-16.988281 -0.0577,-0.662254 -0.15063,-1.382946 -0.24609,-2.138672 -0.39178,-3.082564 -0.83786,-6.575545 0.35937,-9.445313 1.01227,-2.428265 3.11324,-4.100518 4.96875,-5.576172 1.12961,-0.898915 2.19581,-1.747248 2.93165,-2.664062 0.527,-0.656288 1.03948,-1.36601 1.56054,-2.085938 1.66458,-2.306951 3.55265,-4.921829 6.2832,-6.341797 5.72363,-2.971195 12.18405,-3.351562 17.17383,-3.351562 1.53332,0 3.13109,0.07482 4.75391,0.15039 3.12433,0.147169 6.35204,0.296615 9.16016,-0.125 6.71004,-0.992387 9.26979,-2.761678 10.23632,-4.072265 0.36253,-0.491839 0.90811,-0.75832 1.47266,-0.794922 A 47,47 0 0 0 50.529291,5.8293722 Z"
       style="fill:#ffffff;fill-opacity:1;stroke:none;stroke-width:3.96836662;stroke-linecap:round;stroke-linejoin:round;stroke-miterlimit:4;stroke-dasharray:none;stroke-opacity:1" /><path
       d="m 49.16821,98.786379 c -26.317144,0 -47.7300267,-21.412883 -47.7300267,-47.730027 0,-26.317143 21.4128827,-47.7300261 47.7300267,-47.7300261 26.317143,0 47.730026,21.4128831 47.730026,47.7300261 0,26.317144 -21.412883,47.730027 -47.730026,47.730027 z m 0,-91.4825509 c -24.12554,0 -43.7525245,19.6269849 -43.7525245,43.7525239 0,24.12554 19.6269845,43.752524 43.7525245,43.752524 24.125539,0 43.752524,-19.626984 43.752524,-43.752524 0,-24.125539 -19.626985,-43.7525239 -43.752524,-43.7525239 z"
       id="path2"
       inkscape:connector-curvature="0"
       style="fill:#ffffff;fill-opacity:1;stroke:none;stroke-width:1.98875105;stroke-opacity:1" /><path
       d="m 49.16821,70.581911 c -10.767099,0 -19.525559,-8.75846 -19.525559,-19.525559 0,-10.767098 8.75846,-19.525558 19.525559,-19.525558 10.767098,0 19.525558,8.75846 19.525558,19.525558 0,10.767099 -8.75846,19.525559 -19.525558,19.525559 z m 0,-35.073615 c -8.573506,0 -15.548056,6.97455 -15.548056,15.548056 0,8.575495 6.97455,15.548056 15.548056,15.548056 8.575494,0 15.548056,-6.97455 15.548056,-15.548056 0,-8.573506 -6.972562,-15.548056 -15.548056,-15.548056 z"
       id="path4"
       inkscape:connector-curvature="0"
       style="fill:#ffffff;fill-opacity:1;stroke:none;stroke-width:1.98875105;stroke-opacity:1" /><path
       d="m 9.1505601,75.484182 c -1.0440944,0 -1.9191448,-0.813399 -1.9827849,-1.867437 -0.065629,-1.097791 0.7676579,-2.03847 1.8654486,-2.106088 2.5674772,-0.155122 5.2503032,-2.060346 6.5270812,-4.635778 2.762375,-5.55856 2.619185,-11.998136 2.189615,-16.987912 -0.05767,-0.662254 -0.151145,-1.382182 -0.246605,-2.137908 -0.391784,-3.082564 -0.837265,-6.5768 0.359964,-9.446568 1.012274,-2.428265 3.114384,-4.100804 4.969889,-5.576458 1.12961,-0.898915 2.195581,-1.746123 2.931419,-2.662937 0.527019,-0.656288 1.038128,-1.366272 1.559181,-2.0862 1.664584,-2.306951 3.553898,-4.922159 6.284453,-6.342127 5.723626,-2.971195 12.183089,-3.351046 17.172866,-3.351046 1.533327,0 3.132283,0.07358 4.755104,0.149156 3.124328,0.147168 6.352071,0.298313 9.160187,-0.123302 6.710047,-0.992387 9.269569,-2.762376 10.236102,-4.072963 0.652311,-0.884994 1.89528,-1.073925 2.780274,-0.419626 0.883006,0.65231 1.071937,1.897269 0.419627,2.780274 -2.0862,2.829993 -6.29042,4.677543 -12.853299,5.648053 -3.189956,0.473323 -6.616575,0.314223 -9.929834,0.163078 -1.559181,-0.07358 -3.098474,-0.145179 -4.57015,-0.145179 -4.536341,0 -10.381281,0.330133 -15.337248,2.901588 -1.891303,0.984432 -3.418664,3.098474 -4.894317,5.14291 -0.558839,0.775613 -1.1137,1.539293 -1.680495,2.2453 -1.014263,1.264846 -2.306951,2.29303 -3.557875,3.287406 -1.622821,1.290699 -3.156148,2.509804 -3.77465,3.993412 -0.787545,1.891302 -0.41366,4.82471 -0.08353,7.414064 0.103415,0.81141 0.200863,1.587023 0.262515,2.298996 0.4773,5.506852 0.612535,12.654423 -2.587365,19.099966 -1.907213,3.848233 -5.866816,6.594698 -9.8482959,6.837326 -0.04773,-0.002 -0.087505,0 -0.12728,0 z"
       id="path6"
       inkscape:connector-curvature="0"
       style="fill:#ffffff;fill-opacity:1;stroke:none;stroke-width:1.98875105;stroke-opacity:1" /></g></svg>