<svg xmlns="http://www.w3.org/2000/svg" width="100" height="100"><g fill="#2c8569"><path d="M50.53 5.83a47 47 0 0 0-47 47 47 47 0 0 0 5.26 21.575 1.985 1.985 0 0 1 1.824-1.6c2.568-.155 5.25-2.06 6.528-4.635 2.762-5.558 2.619-11.998 2.189-16.988-.058-.662-.15-1.383-.246-2.139-.392-3.082-.838-6.575.36-9.445 1.012-2.428 3.113-4.1 4.968-5.576 1.13-.9 2.196-1.748 2.932-2.664a52.188 52.188 0 0 0 1.56-2.086c1.665-2.307 3.553-4.922 6.283-6.342 5.724-2.971 12.184-3.352 17.174-3.352 1.534 0 3.131.075 4.754.15 3.125.148 6.352.297 9.16-.124 6.71-.993 9.27-2.762 10.237-4.073a1.973 1.973 0 0 1 1.472-.794A47 47 0 0 0 50.53 5.829z"/><path d="M49.168 98.786c-26.317 0-47.73-21.413-47.73-47.73 0-26.317 21.413-47.73 47.73-47.73 26.317 0 47.73 21.413 47.73 47.73 0 26.317-21.413 47.73-47.73 47.73zm0-91.482c-24.125 0-43.752 19.627-43.752 43.752 0 24.126 19.627 43.753 43.752 43.753 24.126 0 43.753-19.627 43.753-43.753 0-24.125-19.627-43.752-43.753-43.752z"/><path d="M49.168 70.582c-10.767 0-19.525-8.759-19.525-19.526S38.4 31.531 49.168 31.531s19.526 8.758 19.526 19.525-8.759 19.526-19.526 19.526zm0-35.074c-8.573 0-15.548 6.975-15.548 15.548 0 8.576 6.975 15.548 15.548 15.548 8.576 0 15.548-6.974 15.548-15.548 0-8.573-6.972-15.548-15.548-15.548z"/><path d="M9.15 75.484a1.988 1.988 0 0 1-.117-3.973c2.568-.155 5.25-2.06 6.527-4.636 2.763-5.559 2.62-11.998 2.19-16.988-.058-.662-.151-1.382-.247-2.138-.391-3.083-.837-6.577.36-9.447 1.013-2.428 3.115-4.1 4.97-5.576 1.13-.899 2.196-1.746 2.932-2.663.527-.656 1.038-1.366 1.559-2.086 1.664-2.307 3.554-4.922 6.284-6.342 5.724-2.971 12.183-3.351 17.173-3.351 1.533 0 3.132.073 4.755.149 3.125.147 6.352.298 9.16-.123 6.71-.993 9.27-2.763 10.236-4.073a1.989 1.989 0 0 1 3.2 2.36c-2.086 2.83-6.29 4.678-12.853 5.648-3.19.474-6.616.315-9.93.163-1.559-.073-3.098-.145-4.57-.145-4.536 0-10.381.33-15.337 2.902-1.891.984-3.419 3.098-4.894 5.143a54.532 54.532 0 0 1-1.681 2.245c-1.014 1.265-2.307 2.293-3.558 3.287-1.623 1.291-3.156 2.51-3.774 3.994-.788 1.891-.414 4.825-.084 7.414.103.811.2 1.587.262 2.299.478 5.507.613 12.654-2.587 19.1-1.907 3.848-5.867 6.595-9.848 6.837-.048-.002-.088 0-.127 0z"/></g></svg>