<svg height="289" width="512" viewBox="0 0 624.387 352.437" xmlns="http://www.w3.org/2000/svg"><defs><clipPath clipPathUnits="userSpaceOnUse" id="a"><path fill="#0a5c5c" stroke-width="15.915" stroke-linecap="round" d="M0 0h624.387v352.437H0z"/></clipPath></defs><path fill="#0a5c5c" d="M0 0h624.387v352.437H0z"/><g clip-path="url(#a)" fill="#bddbdb"><path d="M447.555-19.288a210.151 210.151 0 00-210.15 210.151 210.151 210.151 0 0023.519 96.466 8.874 8.874 0 018.158-7.156c11.48-.7 23.473-9.208 29.19-20.727 12.343-24.85 11.705-53.642 9.784-75.956-.257-2.956-.669-6.183-1.097-9.567-1.757-13.774-3.748-29.399 1.61-42.232 4.52-10.85 13.922-18.324 22.213-24.927 5.056-4.021 9.816-7.817 13.105-11.908a233.344 233.344 0 006.977-9.333c7.443-10.313 15.882-22.003 28.093-28.35 25.588-13.283 54.474-14.987 76.788-14.987 6.86 0 14 .335 21.256.67 13.969.66 28.396 1.321 40.957-.553 29.998-4.441 41.447-12.35 45.771-18.215a8.82 8.82 0 016.58-3.547 210.151 210.151 0 00-122.754-39.829z"/><path d="M441.465 396.332c-117.675 0-213.417-95.742-213.417-213.402 0-117.675 95.742-213.418 213.417-213.418 117.668 0 213.41 95.743 213.41 213.418 0 117.667-95.742 213.41-213.417 213.41zm0-409.025c-107.875 0-195.622 87.755-195.622 195.623 0 107.875 87.755 195.622 195.622 195.622 107.876 0 195.623-87.754 195.623-195.622 0-107.876-87.755-195.623-195.623-195.623z"/><path d="M441.465 270.234c-48.143 0-87.303-39.168-87.303-87.304 0-48.144 39.152-87.304 87.303-87.304 48.144 0 87.304 39.16 87.304 87.304 0 48.143-39.168 87.304-87.304 87.304zm0-156.828c-38.336 0-69.524 31.188-69.524 69.524 0 38.343 31.188 69.516 69.524 69.516 38.344 0 69.517-31.188 69.517-69.516 0-38.336-31.173-69.524-69.517-69.524z"/><path d="M262.534 292.15a8.89 8.89 0 01-.521-17.763c11.48-.7 23.472-9.209 29.181-20.728 12.359-24.857 11.713-53.65 9.8-75.956-.265-2.955-.684-6.183-1.112-9.566-1.75-13.782-3.741-29.4 1.61-42.233 4.526-10.857 13.922-18.331 22.22-24.935 5.056-4.02 9.823-7.808 13.113-11.9 2.357-2.94 4.644-6.112 6.97-9.332 7.442-10.314 15.889-22.011 28.1-28.358 25.588-13.284 54.466-14.98 76.78-14.98 6.852 0 14 .327 21.264.662 13.969.661 28.396 1.338 40.95-.545 30.005-4.44 41.454-12.358 45.77-18.215a8.89 8.89 0 0114.311 10.554c-9.333 12.655-28.124 20.922-57.476 25.254-14.257 2.116-29.579 1.4-44.395.731a443.79 443.79 0 00-20.432-.653c-20.284 0-46.416 1.478-68.575 12.973-8.454 4.402-15.29 13.852-21.886 22.999a243.828 243.828 0 01-7.513 10.033c-4.534 5.662-10.313 10.258-15.905 14.7-7.257 5.778-14.117 11.222-16.878 17.857-3.523 8.462-1.85 21.575-.373 33.156.459 3.624.894 7.093 1.167 10.274 2.138 24.624 2.745 56.582-11.566 85.398-8.524 17.212-26.234 29.493-44.029 30.566h-.568z"/></g></svg>