<svg xmlns="http://www.w3.org/2000/svg" width="90.042" height="90.042"><symbol id="a" viewBox="-21.087 -31.266 42.17 72.87"><path stroke-miterlimit="10" d="M6.373 39.104h5.21c0-3.87 3.13-7 7-7v-53.87c-3.87 0-7-3.14-7-7h-5.21M-6.377-28.766h-5.21c0 3.86-3.13 7-7 7v53.87c3.87 0 7 3.13 7 7h5.21" stroke="#000" stroke-width="5"/><path stroke-miterlimit="10" fill="none" stroke="#000" stroke-width="5" d="M2.373 39.104h-4.75M2.373-28.766h-4.75"/><g stroke-miterlimit="10" stroke="#000" stroke-width=".9"><path d="M-9.901-10.118a1.8 1.8 0 1 0-3.6 0 1.8 1.8 0 0 0 3.6 0zM-2.101-10.118a1.8 1.8 0 1 0-3.6 0 1.8 1.8 0 0 0 3.6 0zM5.699-10.118a1.8 1.8 0 1 0-3.6 0 1.8 1.8 0 0 0 3.6 0zM13.499-10.118a1.8 1.8 0 1 0-3.6 0 1.8 1.8 0 0 0 3.6 0z"/></g></symbol><g fill="#fff"><path d="M45.021 81.042C25.159 81.042 9 64.883 9 45.021 9 25.159 25.159 9 45.021 9c11.376 0 21.529 5.306 28.135 13.567l-9.18 9.16h24.741V7.039l-9.161 9.141C71.292 6.299 58.88 0 45.021 0 20.197 0 0 20.197 0 45.021s20.197 45.021 45.021 45.021 45.02-20.196 45.021-45.02h-9c-.001 19.86-16.159 36.02-36.021 36.02z"/><path d="M38.701 49.521H72.69v-9H47.701V15.895h-9v24.626z"/></g></svg>