<svg xmlns="http://www.w3.org/2000/svg" height="510" width="510" fill="#ff7f0e"><path d="M161.472 297.604a10.153 10.153 0 0 1 9.036-9.036c2.538-.305 5.076-.457 7.563-.558a89.24 89.24 0 0 1-16.599-65.634 10.153 10.153 0 0 1 9.036-9.036c2.538-.305 5.076-.457 7.563-.558a89.29 89.29 0 0 1-16.599-65.685 10.143 10.143 0 0 1 8.985-8.883 92.954 92.954 0 0 1 47.563 6.294 81.22 81.22 0 0 1-1.32-13.807 87.87 87.87 0 0 1 35.533-69.086 10.15 10.15 0 0 1 12.74 0 87.82 87.82 0 0 1 35.533 69.086 81.22 81.22 0 0 1-1.32 13.807 92.893 92.893 0 0 1 47.513-6.294 10.15 10.15 0 0 1 7.665 5.076l-18.782 18.782v-4a64.924 64.924 0 0 0-48.274 18.426 65.99 65.99 0 0 0-18.426 48.274h4.06l-36.04 36.1a60.1 60.1 0 0 0-7.31-8.985 65.99 65.99 0 0 0-48.274-18.426 65.727 65.727 0 0 0 18.426 48.274 59.19 59.19 0 0 0 9.34 7.208L188.78 308.83a74.11 74.11 0 0 0-7.513 0c.04 2.358.194 4.712.457 7.056l-17.817 17.868a94.67 94.67 0 0 1-2.437-36.142zM279.645 130.6a65.99 65.99 0 0 0-21.066-47.157 65.99 65.99 0 0 0-21.066 47.157 65.99 65.99 0 0 0 21.066 47.157 65.99 65.99 0 0 0 21.066-47.157zM199.9 206.386a65.537 65.537 0 0 0 48.274 18.426 63.3 63.3 0 0 0-66.7-66.7 65.99 65.99 0 0 0 18.426 48.274zM342.995 205c4.767.5 8.534 4.268 9.036 9.036a89.34 89.34 0 0 1-16.599 65.634c2.538 0 5.076 0 7.563.558 4.767.5 8.534 4.268 9.036 9.036a87.82 87.82 0 0 1-23.756 74.112 84.67 84.67 0 0 1-60.914 24.569h-1.066v27.208c0 5.607-4.545 10.152-10.152 10.152S246 420.76 246 415.152V387.7h-2.335a86.75 86.75 0 0 1-61.777-24.315 82.08 82.08 0 0 1-9.289-11.066l14.873-14.975a60.1 60.1 0 0 0 8.782 11.32 66.347 66.347 0 0 0 48.223 18.426 65.99 65.99 0 0 0-18.426-48.274 60.953 60.953 0 0 0-11.37-8.832l18.832-18.883a77.97 77.97 0 0 0 10.914.761 74.06 74.06 0 0 0-.66-11.015l106.04-106.193a84.44 84.44 0 0 1-14.365 29.797c2.487.152 5.025.254 7.563.558zm-59.24 38.426a65.99 65.99 0 0 0-18.426 48.274 66.55 66.55 0 0 0 48.274-18.426A65.68 65.68 0 0 0 332.029 225a65.99 65.99 0 0 0-48.325 18.426zm0 75.228a65.99 65.99 0 0 0-18.477 48.274 66.65 66.65 0 0 0 48.274-18.426 65.68 65.68 0 0 0 18.426-48.274 65.43 65.43 0 0 0-48.274 18.426z"/><path d="M502.462 255C502.462 118.33 391.67 7.538 255 7.538S7.538 118.33 7.538 255 118.33 502.462 255 502.462C391.6 502.294 502.294 391.6 502.462 255zm-472.995 0C29.33 166.057 81.525 85.356 162.7 49.003s176.138-21.555 242.402 37.774l4.518 4.57-318.274 318.07-4.57-4.518A224.57 224.57 0 0 1 29.467 255zm76.7 169.188l-4.518-4.467 318.172-317.97 4.467 4.518c78.523 89.263 74.188 224.174-9.903 308.212s-219.005 88.287-308.218 9.707z" stroke="#ff7f0e" stroke-width="5.076"/></svg>