<svg xmlns="http://www.w3.org/2000/svg" height="76" width="76" fill="#ff7f0e"><path d="M25.654 43.624a1.34 1.34 0 0 1 1.193-1.193c.335-.04.67-.06.998-.074a11.78 11.78 0 0 1-2.19-8.663 1.34 1.34 0 0 1 1.192-1.193c.335-.04.67-.06.998-.074a11.786 11.786 0 0 1-2.19-8.67 1.339 1.339 0 0 1 1.185-1.173 12.27 12.27 0 0 1 6.279.831 10.721 10.721 0 0 1-.175-1.822 11.599 11.599 0 0 1 4.69-9.12 1.34 1.34 0 0 1 1.682 0 11.592 11.592 0 0 1 4.69 9.12 10.721 10.721 0 0 1-.173 1.822 12.262 12.262 0 0 1 6.271-.83 1.34 1.34 0 0 1 1.012.67l-2.48 2.479v-.528a8.57 8.57 0 0 0-6.371 2.432 8.71 8.71 0 0 0-2.433 6.372h.536l-4.757 4.765a7.933 7.933 0 0 0-.965-1.186 8.71 8.71 0 0 0-6.372-2.432 8.676 8.676 0 0 0 2.432 6.372 7.813 7.813 0 0 0 1.233.951l-2.68 2.626a9.783 9.783 0 0 0-.992 0c.006.31.026.622.06.931l-2.351 2.359a12.496 12.496 0 0 1-.322-4.771zm15.6-22.045a8.71 8.71 0 0 0-2.782-6.225 8.71 8.71 0 0 0-2.78 6.225 8.71 8.71 0 0 0 2.78 6.225 8.71 8.71 0 0 0 2.781-6.225zM30.726 31.583a8.65 8.65 0 0 0 6.372 2.432 8.356 8.356 0 0 0-8.804-8.804 8.71 8.71 0 0 0 2.432 6.372zm18.888-.183a1.34 1.34 0 0 1 1.193 1.193 11.793 11.793 0 0 1-2.191 8.663c.335 0 .67 0 .998.074a1.34 1.34 0 0 1 1.193 1.193 11.592 11.592 0 0 1-3.136 9.783 11.176 11.176 0 0 1-8.04 3.243h-.141v3.591a1.34 1.34 0 1 1-2.679 0v-3.624h-.308a11.451 11.451 0 0 1-8.155-3.21 10.835 10.835 0 0 1-1.226-1.46l1.963-1.977a7.933 7.933 0 0 0 1.16 1.495 8.758 8.758 0 0 0 6.365 2.432 8.71 8.71 0 0 0-2.432-6.372 8.046 8.046 0 0 0-1.501-1.166l2.486-2.493a10.292 10.292 0 0 0 1.44.1 9.776 9.776 0 0 0-.087-1.453l13.998-14.018a11.146 11.146 0 0 1-1.897 3.934c.329.02.664.033.999.073zm-7.82 5.072a8.71 8.71 0 0 0-2.432 6.372 8.785 8.785 0 0 0 6.373-2.432 8.67 8.67 0 0 0 2.432-6.372 8.71 8.71 0 0 0-6.38 2.432zm0 9.93a8.71 8.71 0 0 0-2.438 6.372 8.798 8.798 0 0 0 6.372-2.432 8.67 8.67 0 0 0 2.432-6.372 8.637 8.637 0 0 0-6.372 2.432z"/><path d="M70.665 38C70.665 19.96 56.04 5.335 38 5.335S5.335 19.96 5.335 38 19.96 70.665 38 70.665C56.031 70.643 70.643 56.031 70.665 38zM8.23 38a29.744 29.744 0 0 1 49.583-22.205l.597.603-42.012 41.985-.604-.596A29.643 29.643 0 0 1 8.23 38zm10.124 22.333l-.596-.59 41.998-41.972.59.597c10.365 11.782 9.793 29.59-1.307 40.683-11.1 11.094-28.909 11.654-40.685 1.282z" stroke="#ff7f0e" stroke-width=".67"/></svg>