<svg width="350.06" height="96" xmlns="http://www.w3.org/2000/svg"><path fill="#fbf1c7" d="M25 79h46v4H25z"/><path overflow="visible" d="M48 5c-11.218 0-20.71 7.386-23.875 17.563C14.879 24.761 8 33.08 8 43c0 10.225 7.323 18.72 17 20.594V79h46V63.594C80.677 61.72 88 53.224 88 43c0-9.919-6.88-18.238-16.125-20.438C68.71 12.386 59.218 5 48 5zM25 83v8h46v-8z" color="#000" fill="#1d2021"/><g style="line-height:1.25"><path style="-inkscape-font-specification:'Latin Modern Mono'" d="M46.521 49.71c0-3.342-1.88-5.535-2.506-6.214-2.141-2.088-3.551-2.454-7.624-3.394l-4.23-.94c-2.193-.626-4.178-2.454-4.178-4.908 0-2.664 2.56-5.17 6.267-5.17 6.161 0 6.945 4.909 7.258 6.527.157 1.15.731 1.462 1.776 1.462 1.827 0 1.827-1.096 1.827-2.14V28.04c0-.836 0-2.141-1.566-2.141-1.254 0-1.515.887-1.932 2.454-2.141-1.828-4.961-2.454-7.311-2.454-5.796 0-9.713 4.125-9.713 8.563 0 3.5 2.402 6.946 6.736 8.199l6.006 1.41c1.462.313 5.796 1.357 5.796 5.9 0 2.716-2.246 5.797-6.37 5.797-1.463 0-4.022-.21-6.11-1.62-2.194-1.41-2.402-3.602-2.455-4.542-.052-.888-.104-1.828-1.775-1.828-1.828 0-1.828 1.097-1.828 2.141v6.893c0 .835 0 2.141 1.567 2.141 1.149 0 1.462-.731 1.932-2.402 2.089 1.566 5.274 2.402 8.616 2.402 6.057 0 9.817-4.595 9.817-9.243zm28.375-17.284v-3.812c0-1.619-.313-2.141-2.089-2.141H52.912c-.835 0-2.14 0-2.14 1.619 0 1.566 1.357 1.566 2.14 1.566h1.723v25.535h-1.723c-.835 0-2.14 0-2.14 1.619 0 1.567 1.357 1.567 2.14 1.567h8.042c.783 0 2.088 0 2.088-1.567 0-1.619-1.253-1.619-2.088-1.619h-2.716V44.018h7.102c0 2.141 0 2.977 1.828 2.977 1.775 0 1.775-1.149 1.775-2.141v-4.856c0-.993 0-2.141-1.775-2.141-1.828 0-1.828.835-1.828 2.976h-7.102V29.658h13.055v2.768c0 .992 0 2.14 1.775 2.14 1.828 0 1.828-1.096 1.828-2.14z" aria-label="SF" font-weight="400" font-size="52.219" font-family="Latin Modern Mono" letter-spacing="0" word-spacing="0" fill="#fbf1c7"/></g><g style="line-height:1.25"><path style="-inkscape-font-specification:'Latin Modern Mono'" d="M124.511 39.67c0-3.735-2.1-6.186-2.801-6.944-2.393-2.335-3.969-2.743-8.52-3.794l-4.728-1.05c-2.451-.7-4.669-2.743-4.669-5.486 0-2.976 2.86-5.778 7.004-5.778 6.886 0 7.761 5.486 8.112 7.295.175 1.284.817 1.634 1.984 1.634 2.042 0 2.042-1.225 2.042-2.392V15.45c0-.934 0-2.393-1.75-2.393-1.401 0-1.693.992-2.16 2.743-2.393-2.042-5.544-2.743-8.17-2.743-6.478 0-10.855 4.61-10.855 9.571 0 3.91 2.685 7.762 7.528 9.163l6.712 1.576c1.634.35 6.478 1.517 6.478 6.594 0 3.035-2.51 6.478-7.12 6.478-1.634 0-4.494-.233-6.828-1.81-2.451-1.575-2.685-4.026-2.743-5.076-.059-.992-.117-2.043-1.984-2.043-2.043 0-2.043 1.226-2.043 2.393v7.703c0 .934 0 2.393 1.75 2.393 1.285 0 1.635-.817 2.16-2.685 2.334 1.751 5.894 2.685 9.63 2.685 6.77 0 10.971-5.136 10.971-10.33zm32.179-19.317v-4.26c0-1.81-.35-2.393-2.334-2.393h-22.819c-1.926 0-2.393.467-2.393 2.393v4.26c0 1.11 0 2.393 1.984 2.393 2.043 0 2.043-1.225 2.043-2.393V17.26h7.762v28.538h-3.035c-.875 0-2.334 0-2.334 1.75 0 1.81 1.4 1.81 2.334 1.81h10.096c.876 0 2.335 0 2.335-1.75 0-1.81-1.4-1.81-2.335-1.81h-3.034V17.26h7.703v3.093c0 1.11 0 2.393 1.984 2.393 2.043 0 2.043-1.225 2.043-2.393zm32.062 23.577c0-1.867-1.4-1.867-2.042-1.867-.584 0-1.926 0-1.985 1.75 0 .468-.116 2.627-1.108 2.627-1.634 0-1.634-2.684-1.634-5.778 0-3.676 0-4.143-.526-5.485-.7-1.693-2.042-2.918-2.86-3.56 3.852-2.16 4.961-5.72 4.961-8.112 0-5.02-4.435-9.805-11.322-9.805h-10.33c-.933 0-2.334 0-2.334 1.81 0 1.75 1.46 1.75 2.335 1.75h1.459v28.538h-1.46c-.933 0-2.334 0-2.334 1.81 0 1.75 1.46 1.75 2.335 1.75h6.945c.875 0 2.334 0 2.334-1.75 0-1.81-1.4-1.81-2.334-1.81h-1.46V33.31h4.553c1.108 0 2.86 0 4.727 1.634 1.284 1.226 1.284 2.51 1.284 4.96 0 3.794 0 5.545 1.109 7.412.992 1.751 2.626 2.685 4.61 2.685 3.677 0 5.077-3.852 5.077-6.07zm-9.22-20.425c0 2.86-2.627 6.244-7.938 6.244h-4.201V17.26h4.201c5.37 0 7.937 3.443 7.937 6.245zm38.423 24.102c0-.758-.292-1.342-.992-1.634-.35-.175-1.634-.175-2.51-.175l-7.061-30.522c-.525-2.218-1.343-2.276-3.152-2.276-1.692 0-2.626 0-3.151 2.218l-7.062 30.58c-.817 0-2.159 0-2.51.117-.641.35-.991.934-.991 1.692 0 1.751 1.517 1.751 2.51 1.751h5.952c1.05 0 2.451 0 2.451-1.75 0-1.81-1.167-1.81-3.268-1.81l1.342-6.07h9.454l1.343 6.07c-2.101 0-3.268 0-3.268 1.81 0 1.75 1.4 1.75 2.45 1.75h5.953c.992 0 2.51 0 2.51-1.75zm-9.863-11.438h-7.703l3.851-18.325zm40.466-20.659c0-1.81-1.4-1.81-2.334-1.81h-6.186c-.934 0-2.335 0-2.335 1.81 0 1.75 1.46 1.75 2.335 1.75h1.459v27.721h-.059L230.7 15.801c-.7-1.926-1.576-2.1-3.151-2.1h-3.969c-.875 0-2.334 0-2.334 1.75 0 1.81 1.4 1.81 2.334 1.81h1.46v28.537h-1.46c-.875 0-2.334 0-2.334 1.75 0 1.81 1.4 1.81 2.334 1.81h6.186c.876 0 2.335 0 2.335-1.75 0-1.81-1.401-1.81-2.335-1.81h-1.459v-27.72h.059l10.738 29.18c.759 2.042 1.692 2.1 3.21 2.1 1.75 0 2.45-.175 2.45-2.393V17.26h1.46c.875 0 2.334 0 2.334-1.75zm30.662 19.842c0-1.751-1.518-1.751-2.393-1.751h-6.945c-.875 0-2.334 0-2.334 1.75 0 1.81 1.4 1.81 2.334 1.81h2.451c-.7 6.536-3.56 9.28-6.653 9.28-4.727 0-9.162-6.304-9.162-14.883 0-8.929 4.669-14.94 9.22-14.94 2.043 0 5.72 1.343 6.712 7.645.117.993.467 1.693 1.984 1.693 2.043 0 2.043-1.226 2.043-2.393v-8.112c0-.934 0-2.393-1.751-2.393-1.226 0-1.517.642-2.393 2.627-2.042-1.751-4.377-2.627-6.828-2.627-7.003 0-13.014 7.879-13.014 18.442 0 10.738 6.07 18.5 13.014 18.5 3.327 0 5.778-1.75 6.945-3.093 0 1.284 0 2.451 2.043 2.451 1.984 0 1.984-1.284 1.984-2.393v-9.804c1.4 0 2.743 0 2.743-1.81zm31.011 11.613v-5.194c0-1.109 0-2.392-1.984-2.392-2.042 0-2.042 1.225-2.042 2.392v4.027h-15.582v-13.13h7.645c0 2.392 0 3.326 2.042 3.326 1.985 0 1.985-1.284 1.985-2.393v-5.427c0-1.11 0-2.393-1.985-2.393-2.042 0-2.042.934-2.042 3.326h-7.645V17.26h14.298v3.093c0 1.11 0 2.393 1.984 2.393 2.043 0 2.043-1.225 2.043-2.393v-4.26c0-1.81-.35-2.393-2.335-2.393h-21.768c-.875 0-2.393 0-2.393 1.751 0 1.81 1.518 1.81 2.393 1.81h1.75v28.537h-1.75c-.934 0-2.393 0-2.393 1.81 0 1.75 1.518 1.75 2.393 1.75h23.052c1.926 0 2.334-.525 2.334-2.393zm31.829-3.035c0-1.867-1.4-1.867-2.042-1.867-.584 0-1.926 0-1.985 1.75 0 .468-.116 2.627-1.108 2.627-1.634 0-1.634-2.684-1.634-5.778 0-3.676 0-4.143-.526-5.485-.7-1.693-2.042-2.918-2.86-3.56 3.852-2.16 4.961-5.72 4.961-8.112 0-5.02-4.435-9.805-11.322-9.805h-10.33c-.933 0-2.334 0-2.334 1.81 0 1.75 1.46 1.75 2.335 1.75h1.459v28.538h-1.46c-.933 0-2.334 0-2.334 1.81 0 1.75 1.46 1.75 2.335 1.75h6.945c.875 0 2.334 0 2.334-1.75 0-1.81-1.4-1.81-2.334-1.81h-1.46V33.31h4.553c1.108 0 2.86 0 4.727 1.634 1.284 1.226 1.284 2.51 1.284 4.96 0 3.794 0 5.545 1.109 7.412.992 1.751 2.626 2.685 4.61 2.685 3.677 0 5.077-3.852 5.077-6.07zm-9.22-20.425c0 2.86-2.627 6.244-7.938 6.244h-4.201V17.26h4.201c5.37 0 7.937 3.443 7.937 6.245z" aria-label="STRANGER" font-weight="400" font-size="58.36" font-family="Latin Modern Mono" letter-spacing="0" word-spacing="-15.857" fill="#1d2021"/></g><g style="line-height:1.25"><path style="-inkscape-font-specification:'Latin Modern Mono'" d="M127.005 61.306V57.04c0-1.812-.351-2.396-2.338-2.396h-22.27c-.936 0-2.397 0-2.397 1.812 0 1.754 1.52 1.754 2.397 1.754h1.928v28.58h-1.928c-.936 0-2.397 0-2.397 1.812 0 1.754 1.52 1.754 2.397 1.754h9.001c.877 0 2.338 0 2.338-1.754 0-1.812-1.403-1.812-2.338-1.812h-3.04V74.283h7.95c0 2.396 0 3.332 2.046 3.332 1.987 0 1.987-1.286 1.987-2.397v-5.436c0-1.11 0-2.397-1.987-2.397-2.046 0-2.046.936-2.046 3.332h-7.95V58.21h14.614v3.097c0 1.111 0 2.397 1.987 2.397 2.046 0 2.046-1.227 2.046-2.397zm29.424 11.224c0-16.893-1.228-18.53-12.041-18.53-10.814 0-12.041 1.578-12.041 18.53 0 16.892 1.227 18.47 12.04 18.47 10.756 0 12.042-1.578 12.042-18.47zm-4.033-.527c0 3.624 0 7.774-.643 10.93-.643 3.274-2.163 4.501-7.365 4.501-5.144 0-6.605-1.227-7.307-4.15-.701-2.98-.701-8.066-.701-11.28 0-3.625 0-7.6.643-10.288.76-3.449 2.572-4.15 7.365-4.15 4.384 0 6.43.526 7.306 3.74.702 2.748.702 7.132.702 10.697zm34.743.527c0-16.893-1.228-18.53-12.041-18.53-10.814 0-12.041 1.578-12.041 18.53 0 16.892 1.227 18.47 12.04 18.47 10.756 0 12.042-1.578 12.042-18.47zm-4.033-.527c0 3.624 0 7.774-.643 10.93-.643 3.274-2.163 4.501-7.365 4.501-5.144 0-6.605-1.227-7.307-4.15-.701-2.98-.701-8.066-.701-11.28 0-3.625 0-7.6.643-10.288.76-3.449 2.572-4.15 7.365-4.15 4.384 0 6.43.526 7.306 3.74.702 2.748.702 7.132.702 10.697zm35.737.76c0-9.352-5.027-18.12-12.801-18.12H194c-.936 0-2.397 0-2.397 1.812 0 1.754 1.52 1.754 2.397 1.754h1.286V86.79H194c-.936 0-2.397 0-2.397 1.812 0 1.754 1.52 1.754 2.397 1.754h12.04c7.658 0 12.802-8.183 12.802-17.594zm-4.034 0c0 6.839-3.39 14.028-9.878 14.028h-5.611V58.21h5.611c6.605 0 9.878 7.774 9.878 14.554zm33.984 7.891c0-3.74-2.105-6.196-2.806-6.956-2.396-2.338-3.975-2.747-8.534-3.8l-4.734-1.051c-2.455-.702-4.677-2.747-4.677-5.495 0-2.98 2.865-5.786 7.015-5.786 6.897 0 7.774 5.494 8.124 7.306.176 1.286.819 1.637 1.988 1.637 2.046 0 2.046-1.228 2.046-2.397v-7.715c0-.936 0-2.397-1.754-2.397-1.403 0-1.695.994-2.163 2.747-2.396-2.046-5.553-2.747-8.183-2.747-6.488 0-10.872 4.618-10.872 9.586 0 3.916 2.689 7.774 7.54 9.177l6.722 1.578c1.637.35 6.488 1.52 6.488 6.605 0 3.04-2.513 6.488-7.13 6.488-1.637 0-4.502-.233-6.84-1.812-2.455-1.578-2.688-4.033-2.747-5.085-.058-.994-.117-2.046-1.987-2.046-2.046 0-2.046 1.228-2.046 2.397v7.715c0 .936 0 2.397 1.754 2.397 1.285 0 1.636-.818 2.162-2.689 2.338 1.754 5.904 2.689 9.645 2.689 6.78 0 10.989-5.144 10.989-10.346z" aria-label="FOODS" font-weight="400" font-size="58.452" font-family="Latin Modern Mono" letter-spacing="0" word-spacing="-15.882" fill="#1d2021"/></g></svg>