<svg xmlns="http://www.w3.org/2000/svg" width="222.344" height="28.597"><g style="line-height:1.25"><g aria-label="STRANGER FOODS" style="line-height:1.25;-inkscape-font-specification:'Latin Modern Mono Light, '" font-size="29.333" font-family="Latin Modern Mono Light" letter-spacing="0" word-spacing="0"><path d="M17.144 18.551c0-1.818-1.026-3.02-1.378-3.402-1.203-1.174-1.995-1.35-4.283-1.878l-2.464-.557c-1.408-.41-2.64-1.584-2.64-3.139 0-1.7 1.584-3.314 3.93-3.314 3.726 0 4.313 3.021 4.547 4.194.088.352.323.44.704.44.763 0 .763-.498.763-.938v-3.99c0-.351 0-.938-.616-.938-.499 0-.616.47-.939 1.643-1.554-1.32-3.11-1.643-4.43-1.643C7.172 5.029 5 7.259 5 9.693c0 1.906 1.32 3.784 3.696 4.458l3.462.822c.938.205 3.608.88 3.608 3.725 0 1.701-1.408 3.667-3.99 3.667-.91 0-2.464-.147-3.725-.998-1.379-.88-1.525-2.258-1.555-2.874-.029-.352-.058-.763-.733-.763C5 17.73 5 18.23 5 18.67v3.989c0 .352 0 .939.616.939.499 0 .616-.382.939-1.584 1.525 1.144 3.315 1.584 5.192 1.584 3.315 0 5.397-2.494 5.397-5.046zM33.336 8.52V6.29c0-.704-.147-.938-.91-.938h-11.88c-.733 0-.938.176-.938.938v2.23c0 .41 0 .938.733.938.763 0 .763-.499.763-.938V6.584h4.635v15.458H23.86c-.322 0-.909 0-.909.587 0 .645.557.645.91.645h5.25c.323 0 .91 0 .91-.616s-.558-.616-.91-.616h-1.877V6.584h4.605V8.52c0 .41 0 .938.733.938.763 0 .763-.499.763-.938zM49.44 20.751c0-.674-.499-.674-.734-.674-.234 0-.704 0-.733.616 0 .322-.235 1.672-.88 1.672-.968 0-1.144-1.496-1.144-3.315s0-2.083-.264-2.728c-.352-.821-.997-1.408-1.76-1.995 2.288-1.29 2.816-3.02 2.816-4.194 0-2.464-2.2-4.781-5.573-4.781H35.8c-.352 0-.91 0-.91.645 0 .587.587.587.91.587h1.056v15.458H35.8c-.352 0-.91 0-.91.616s.587.616.91.616h3.608c.323 0 .91 0 .91-.616s-.558-.616-.91-.616h-1.056v-7.099h2.67c.615 0 1.613 0 2.669.91.733.704.762 1.437.762 2.816 0 1.877 0 2.786.587 3.813.47.733 1.202 1.115 2.082 1.115 1.702 0 2.318-1.819 2.318-2.846zm-4.165-10.618c0 1.613-1.438 3.55-4.43 3.55h-2.493v-7.1h2.493c3.022 0 4.43 1.995 4.43 3.55zM64.106 22.658c0-.264-.088-.47-.381-.587-.176-.029-.763-.029-1.379-.029L58.621 5.938C58.386 5 58.034 5 57.271 5c-.703 0-1.114 0-1.349.909l-3.725 16.133c-.616 0-1.232 0-1.408.03a.616.616 0 00-.352.586c0 .616.645.616.997.616h3.11c.41 0 .968 0 .968-.616s-.528-.616-1.76-.616l.821-3.784h5.397l.822 3.784c-1.232 0-1.76 0-1.76.616s.557.616.968.616h3.08c.38 0 1.026 0 1.026-.616zm-4.458-5.632h-4.752l2.288-10.794h.205zM79.477 5.997c0-.645-.558-.645-.91-.645h-3.226c-.352 0-.91 0-.91.645 0 .587.587.587.91.587h1.056v15.458h-.264l-5.867-15.81c-.322-.822-.733-.88-1.408-.88h-2.082c-.323 0-.91 0-.91.616s.558.616.91.616h1.085v15.458h-1.085c-.323 0-.91 0-.91.587 0 .645.558.645.91.645h3.226c.323 0 .91 0 .91-.616s-.558-.616-.91-.616h-1.056V6.584h.264l5.867 15.81c.322.85.792.88 1.437.88.704 0 .968-.059.968-.939V6.584h1.085c.323 0 .91 0 .91-.587zM94.877 16.293c0-.587-.616-.587-.94-.587h-3.636c-.323 0-.91 0-.91.587 0 .645.587.645.91.645h1.613c-.41 3.96-2.053 5.427-3.784 5.427-2.581 0-5.075-3.374-5.075-8.038 0-4.84 2.64-8.066 5.104-8.066 1.144 0 3.227.704 3.814 4.37.058.294.234.47.704.47.762 0 .762-.47.762-.939V5.968c0-.352 0-.94-.616-.94-.44 0-.586.324-1.114 1.556-1.32-1.144-2.464-1.555-3.667-1.555-3.52 0-6.453 3.99-6.453 9.27 0 5.367 2.962 9.298 6.453 9.298 1.613 0 2.816-.851 3.901-2.112 0 1.32 0 1.789.763 1.789.733 0 .733-.528.733-.939v-5.397c.85 0 1.438 0 1.438-.645zM110.452 22.335v-2.698c0-.44 0-.939-.733-.939-.763 0-.763.499-.763.939v2.405h-8.712v-7.45h4.606c0 1.29 0 1.73.733 1.73s.733-.499.733-.939v-2.816c0-.41 0-.938-.733-.938s-.733.44-.733 1.73h-4.606V6.584h8.038V8.52c0 .41 0 .938.733.938.763 0 .763-.499.763-.938V6.29c0-.704-.147-.938-.91-.938H97.546c-.323 0-.939 0-.939.616s.616.616.939.616h1.232v15.458h-1.232c-.352 0-.939 0-.939.616s.616.616.939.616h11.997c.733 0 .91-.205.91-.939zM126.439 20.751c0-.674-.499-.674-.733-.674-.235 0-.704 0-.734.616 0 .322-.234 1.672-.88 1.672-.968 0-1.144-1.496-1.144-3.315s0-2.083-.264-2.728c-.352-.821-.997-1.408-1.76-1.995 2.288-1.29 2.816-3.02 2.816-4.194 0-2.464-2.2-4.781-5.573-4.781h-5.368c-.352 0-.91 0-.91.645 0 .587.587.587.91.587h1.056v15.458h-1.056c-.352 0-.91 0-.91.616s.587.616.91.616h3.608c.323 0 .91 0 .91-.616s-.558-.616-.91-.616h-1.056v-7.099h2.67c.615 0 1.613 0 2.669.91.733.704.762 1.437.762 2.816 0 1.877 0 2.786.587 3.813.47.733 1.203 1.115 2.083 1.115 1.7 0 2.317-1.819 2.317-2.846zm-4.165-10.618c0 1.613-1.438 3.55-4.43 3.55h-2.493v-7.1h2.493c3.022 0 4.43 1.995 4.43 3.55zM156.27 8.52V6.29c0-.704-.117-.938-.909-.938h-11.557c-.352 0-.939 0-.939.645 0 .587.616.587.939.587h1.32v15.458h-1.32c-.352 0-.939 0-.939.616s.616.616.939.616h4.693c.323 0 .91 0 .91-.616s-.558-.616-.91-.616h-1.877v-7.099h4.723c0 1.291 0 1.731.762 1.731.734 0 .734-.528.734-.939V12.89c0-.41 0-.939-.734-.939-.762 0-.762.44-.762 1.731h-4.723V6.584h8.184V8.52c0 .41 0 .938.733.938s.733-.499.733-.938zM171.025 14.327c0-8.447-.557-9.298-5.955-9.298-5.397 0-5.954.821-5.954 9.298 0 8.448.557 9.27 5.954 9.27 5.368 0 5.955-.822 5.955-9.27zm-1.496-.264c0 1.907 0 4.078-.352 5.72-.352 1.848-1.173 2.582-4.107 2.582-2.904 0-3.696-.734-4.077-2.376-.381-1.584-.381-4.254-.381-5.926 0-1.906 0-3.989.352-5.426.41-1.936 1.408-2.376 4.106-2.376 2.464 0 3.579.352 4.078 2.17.381 1.438.381 3.755.381 5.632zM186.425 14.327c0-8.447-.558-9.298-5.955-9.298s-5.954.821-5.954 9.298c0 8.448.557 9.27 5.954 9.27 5.368 0 5.955-.822 5.955-9.27zm-1.496-.264c0 1.907 0 4.078-.352 5.72-.352 1.848-1.174 2.582-4.107 2.582-2.904 0-3.696-.734-4.077-2.376-.381-1.584-.381-4.254-.381-5.926 0-1.906 0-3.989.352-5.426.41-1.936 1.408-2.376 4.106-2.376 2.464 0 3.579.352 4.077 2.17.382 1.438.382 3.755.382 5.632zM202.323 14.445c0-4.664-2.434-9.093-6.336-9.093h-6.248c-.352 0-.938 0-.938.645 0 .587.616.587.938.587h.968v15.458h-.968c-.352 0-.938 0-.938.616s.616.616.938.616h6.248c3.814 0 6.336-4.136 6.336-8.83zm-1.466 0c0 3.725-1.907 7.597-5.456 7.597h-3.198V6.584h3.198c3.608 0 5.456 4.194 5.456 7.86zM217.342 18.551c0-1.818-1.027-3.02-1.379-3.402-1.203-1.174-1.995-1.35-4.283-1.878l-2.463-.557c-1.408-.41-2.64-1.584-2.64-3.139 0-1.7 1.584-3.314 3.93-3.314 3.725 0 4.312 3.021 4.547 4.194.088.352.322.44.704.44.762 0 .762-.498.762-.938v-3.99c0-.351 0-.938-.616-.938-.498 0-.616.47-.938 1.643-1.555-1.32-3.11-1.643-4.43-1.643-3.167 0-5.338 2.23-5.338 4.664 0 1.906 1.32 3.784 3.696 4.458l3.461.822c.939.205 3.608.88 3.608 3.725 0 1.701-1.408 3.667-3.99 3.667-.909 0-2.463-.147-3.724-.998-1.38-.88-1.526-2.258-1.555-2.874-.03-.352-.059-.763-.733-.763-.763 0-.763.499-.763.939v3.989c0 .352 0 .939.616.939.499 0 .616-.382.939-1.584 1.525 1.144 3.314 1.584 5.191 1.584 3.315 0 5.398-2.494 5.398-5.046z"/></g></g></svg>