<?xml version="1.0" encoding="UTF-8" standalone="no"?>
<svg
   xmlns:dc="http://purl.org/dc/elements/1.1/"
   xmlns:cc="http://creativecommons.org/ns#"
   xmlns:rdf="http://www.w3.org/1999/02/22-rdf-syntax-ns#"
   xmlns:svg="http://www.w3.org/2000/svg"
   xmlns="http://www.w3.org/2000/svg"
   xmlns:sodipodi="http://sodipodi.sourceforge.net/DTD/sodipodi-0.dtd"
   xmlns:inkscape="http://www.inkscape.org/namespaces/inkscape"
   version="1.1"
   x="0px"
   y="0px"
   viewBox="0 0 350.0602 96"
   id="svg10"
   sodipodi:docname="header.svg"
   width="350.06021"
   height="96"
   inkscape:version="0.92.3 (2405546, 2018-03-11)"
   inkscape:export-filename="/home/tom/Recipes/resources/icons/faviconpng.png"
   inkscape:export-xdpi="16"
   inkscape:export-ydpi="16">
  <metadata
     id="metadata16">
    <rdf:RDF>
      <cc:Work
         rdf:about="">
        <dc:format>image/svg+xml</dc:format>
        <dc:type
           rdf:resource="http://purl.org/dc/dcmitype/StillImage" />
        <dc:title></dc:title>
      </cc:Work>
    </rdf:RDF>
  </metadata>
  <defs
     id="defs14" />
  <sodipodi:namedview
     pagecolor="#ffffff"
     bordercolor="#666666"
     borderopacity="1"
     objecttolerance="10"
     gridtolerance="10"
     guidetolerance="10"
     inkscape:pageopacity="0"
     inkscape:pageshadow="2"
     inkscape:window-width="1920"
     inkscape:window-height="1018"
     id="namedview12"
     showgrid="false"
     fit-margin-top="5"
     fit-margin-left="8"
     fit-margin-right="8"
     fit-margin-bottom="5"
     inkscape:zoom="1.888"
     inkscape:cx="132.45885"
     inkscape:cy="100.12876"
     inkscape:window-x="0"
     inkscape:window-y="34"
     inkscape:window-maximized="1"
     inkscape:current-layer="svg10"
     inkscape:pagecheckerboard="true" />
  <g
     id="g884">
    <g
       id="g827">
      <rect
         style="opacity:1;fill:#ffffff;fill-opacity:1;fill-rule:nonzero;stroke:none;stroke-width:1.19821692;stroke-linecap:butt;stroke-linejoin:miter;stroke-miterlimit:4;stroke-dasharray:7.18930095, 7.18930095;stroke-dashoffset:0;stroke-opacity:1"
         id="rect821"
         width="46"
         height="3.9999971"
         x="25"
         y="79" />
      <path
         inkscape:connector-curvature="0"
         id="path2"
         overflow="visible"
         display="inline"
         visibility="visible"
         marker="none"
         d="M 48,5 C 36.78172,5 27.29029,12.38579 24.125,22.5625 14.87947,24.76184 8,33.0814 8,42.99997 8,53.2246 15.32299,61.7198 25,63.5937 V 79 H 71 V 63.5937 C 80.677,61.7198 88,53.2246 88,42.99997 88,33.0814 81.1205,24.76184 71.875,22.5625 68.7097,12.38579 59.2183,5 48,5 Z M 25,83 v 8 h 46 v -8 z"
         style="color:#000000;display:inline;overflow:visible;visibility:visible;fill:#000000;stroke:none;enable-background:accumulate" />
      <g
         id="text818"
         style="font-style:normal;font-weight:normal;font-size:52.21850586px;line-height:1.25;font-family:sans-serif;letter-spacing:0px;word-spacing:0px;fill:#ffffff;fill-opacity:1;stroke:none;stroke-width:3.91638827"
         aria-label="SF">
        <path
           id="path830"
           style="font-style:normal;font-variant:normal;font-weight:normal;font-stretch:normal;font-family:'Latin Modern Mono';-inkscape-font-specification:'Latin Modern Mono';stroke-width:3.91638827"
           d="m 46.521053,49.710276 c 0,-3.341985 -1.879866,-5.535162 -2.506488,-6.214003 -2.140959,-2.08874 -3.550858,-2.454269 -7.623902,-3.394202 l -4.229699,-0.939933 c -2.193177,-0.626623 -4.17748,-2.45427 -4.17748,-4.90854 0,-2.663144 2.558707,-5.169632 6.26622,-5.169632 6.161784,0 6.945062,4.908539 7.258373,6.527313 0.156655,1.148807 0.731059,1.462118 1.775429,1.462118 1.827648,0 1.827648,-1.096588 1.827648,-2.140958 v -6.892843 c 0,-0.835496 0,-2.140959 -1.566556,-2.140959 -1.253244,0 -1.514336,0.887715 -1.932084,2.45427 -2.140959,-1.827648 -4.960758,-2.45427 -7.310591,-2.45427 -5.796254,0 -9.712642,4.125262 -9.712642,8.563835 0,3.49864 2.402051,6.945061 6.736187,8.198305 l 6.005128,1.4099 c 1.462118,0.313311 5.796254,1.357681 5.796254,5.900691 0,2.715363 -2.245395,5.796254 -6.370657,5.796254 -1.462118,0 -4.020825,-0.208874 -6.109565,-1.618773 -2.193178,-1.4099 -2.402052,-3.603077 -2.45427,-4.54301 -0.05222,-0.887715 -0.104437,-1.827648 -1.775429,-1.827648 -1.827648,0 -1.827648,1.096589 -1.827648,2.140959 v 6.892842 c 0,0.835497 0,2.140959 1.566555,2.140959 1.148807,0 1.462118,-0.731059 1.932085,-2.402051 2.08874,1.566555 5.274069,2.402051 8.616053,2.402051 6.057347,0 9.817079,-4.595228 9.817079,-9.242675 z"
           inkscape:connector-curvature="0" />
        <path
           id="path832"
           style="font-style:normal;font-variant:normal;font-weight:normal;font-stretch:normal;font-family:'Latin Modern Mono';-inkscape-font-specification:'Latin Modern Mono';stroke-width:3.91638827"
           d="m 74.8961,32.42595 v -3.811951 c 0,-1.618773 -0.313311,-2.140958 -2.08874,-2.140958 H 52.912109 c -0.835496,0 -2.140958,0 -2.140958,1.618773 0,1.566555 1.357681,1.566555 2.140958,1.566555 h 1.723211 v 25.53485 h -1.723211 c -0.835496,0 -2.140958,0 -2.140958,1.618773 0,1.566556 1.357681,1.566556 2.140958,1.566556 h 8.04165 c 0.783278,0 2.08874,0 2.08874,-1.566556 0,-1.618773 -1.253244,-1.618773 -2.08874,-1.618773 h -2.715362 v -11.17476 h 7.101717 c 0,2.140958 0,2.976454 1.827647,2.976454 1.77543,0 1.77543,-1.148807 1.77543,-2.140958 v -4.856321 c 0,-0.992152 0,-2.140959 -1.77543,-2.140959 -1.827647,0 -1.827647,0.835496 -1.827647,2.976455 H 58.238397 V 29.658369 h 13.054626 v 2.767581 c 0,0.992152 0,2.140959 1.77543,2.140959 1.827647,0 1.827647,-1.096589 1.827647,-2.140959 z"
           inkscape:connector-curvature="0" />
      </g>
    </g>
    <g
       id="text817"
       style="font-style:normal;font-weight:normal;font-size:58.35962296px;line-height:1.25;font-family:sans-serif;letter-spacing:0px;word-spacing:-15.85714245px;fill:#000000;fill-opacity:1;stroke:none;stroke-width:4.37697172"
       aria-label="STRANGER">
      <path
         id="path835"
         style="font-style:normal;font-variant:normal;font-weight:normal;font-stretch:normal;font-family:'Latin Modern Mono';-inkscape-font-specification:'Latin Modern Mono';letter-spacing:0px;word-spacing:-15.85714245px;stroke-width:4.37697172"
         d="m 124.51104,39.670346 c 0,-3.735016 -2.10094,-6.18612 -2.80126,-6.944795 -2.39274,-2.334385 -3.96845,-2.742902 -8.5205,-3.793375 l -4.72713,-1.050474 c -2.45111,-0.700315 -4.66877,-2.742902 -4.66877,-5.485804 0,-2.976341 2.85962,-5.777603 7.00315,-5.777603 6.88644,0 7.76183,5.485805 8.11199,7.294953 0.17508,1.283912 0.81703,1.63407 1.98423,1.63407 2.04258,0 2.04258,-1.225553 2.04258,-2.392745 v -7.70347 c 0,-0.933754 0,-2.392745 -1.75078,-2.392745 -1.40064,0 -1.69243,0.992114 -2.15931,2.742902 -2.39275,-2.042586 -5.54417,-2.742902 -8.17035,-2.742902 -6.47792,0 -10.85489,4.61041 -10.85489,9.570978 0,3.910095 2.68454,7.76183 7.52839,9.162461 l 6.71136,1.57571 c 1.63407,0.350158 6.47792,1.51735 6.47792,6.594637 0,3.034701 -2.50947,6.477919 -7.11988,6.477919 -1.63407,0 -4.49369,-0.233439 -6.82807,-1.809149 -2.45111,-1.57571 -2.68454,-4.026814 -2.7429,-5.077287 -0.0584,-0.992114 -0.11672,-2.042587 -1.98423,-2.042587 C 100,37.51104 100,38.736592 100,39.903785 v 7.70347 C 100,48.541009 100,50 101.75079,50 c 1.28391,0 1.63407,-0.817035 2.15931,-2.684543 C 106.24448,49.066246 109.80442,50 113.53943,50 c 6.76972,0 10.97161,-5.135647 10.97161,-10.329654 z"
         inkscape:connector-curvature="0" />
      <path
         id="path837"
         style="font-style:normal;font-variant:normal;font-weight:normal;font-stretch:normal;font-family:'Latin Modern Mono';-inkscape-font-specification:'Latin Modern Mono';letter-spacing:0px;word-spacing:-15.85714245px;stroke-width:4.37697172"
         d="m 156.68999,20.353311 v -4.260252 c 0,-1.809149 -0.35016,-2.392745 -2.33438,-2.392745 h -22.81862 c -1.92586,0 -2.39274,0.466877 -2.39274,2.392745 v 4.260252 c 0,1.108833 0,2.392745 1.98423,2.392745 2.04258,0 2.04258,-1.225552 2.04258,-2.392745 v -3.09306 h 7.76183 v 28.537856 h -3.0347 c -0.87539,0 -2.33438,0 -2.33438,1.750788 0,1.809149 1.40063,1.809149 2.33438,1.809149 h 10.09622 c 0.87539,0 2.33438,0 2.33438,-1.750789 0,-1.809148 -1.40063,-1.809148 -2.33438,-1.809148 h -3.0347 V 17.260251 h 7.70347 v 3.09306 c 0,1.108833 0,2.392745 1.98423,2.392745 2.04258,0 2.04258,-1.225552 2.04258,-2.392745 z"
         inkscape:connector-curvature="0" />
      <path
         id="path839"
         style="font-style:normal;font-variant:normal;font-weight:normal;font-stretch:normal;font-family:'Latin Modern Mono';-inkscape-font-specification:'Latin Modern Mono';letter-spacing:0px;word-spacing:-15.85714245px;stroke-width:4.37697172"
         d="m 188.75222,43.930599 c 0,-1.867508 -1.40063,-1.867508 -2.04259,-1.867508 -0.58359,0 -1.92586,0 -1.98422,1.750788 0,0.466877 -0.11672,2.626184 -1.10884,2.626184 -1.63407,0 -1.63407,-2.684543 -1.63407,-5.777603 0,-3.676656 0,-4.143533 -0.52523,-5.485805 -0.70032,-1.692429 -2.04259,-2.917981 -2.85962,-3.559937 3.85173,-2.159306 4.96056,-5.719243 4.96056,-8.111987 0,-5.018928 -4.43533,-9.804417 -11.32176,-9.804417 h -10.32966 c -0.93375,0 -2.33438,0 -2.33438,1.809148 0,1.750789 1.45899,1.750789 2.33438,1.750789 h 1.459 v 28.537856 h -1.459 c -0.93375,0 -2.33438,0 -2.33438,1.809148 0,1.750789 1.45899,1.750789 2.33438,1.750789 h 6.9448 c 0.87539,0 2.33438,0 2.33438,-1.750789 0,-1.809148 -1.40063,-1.809148 -2.33438,-1.809148 h -1.45899 v -12.48896 h 4.55205 c 1.10883,0 2.85962,0 4.72713,1.63407 1.28391,1.225552 1.28391,2.509464 1.28391,4.960568 0,3.793375 0,5.544164 1.10883,7.411672 C 180.05664,49.066246 181.69071,50 183.67493,50 c 3.67666,0 5.07729,-3.851736 5.07729,-6.069401 z M 179.5314,23.504731 c 0,2.859621 -2.62618,6.244479 -7.93691,6.244479 H 167.3926 V 17.260251 h 4.20189 c 5.36909,0 7.93691,3.443218 7.93691,6.24448 z"
         inkscape:connector-curvature="0" />
      <path
         id="path841"
         style="font-style:normal;font-variant:normal;font-weight:normal;font-stretch:normal;font-family:'Latin Modern Mono';-inkscape-font-specification:'Latin Modern Mono';letter-spacing:0px;word-spacing:-15.85714245px;stroke-width:4.37697172"
         d="m 217.95483,47.607255 c 0,-0.758675 -0.2918,-1.342271 -0.99211,-1.634069 -0.35016,-0.175079 -1.63407,-0.175079 -2.50947,-0.175079 l -7.06151,-30.522083 c -0.52524,-2.217666 -1.34227,-2.276025 -3.15142,-2.276025 -1.69243,0 -2.62619,0 -3.15142,2.217665 l -7.06152,30.580443 c -0.81703,0 -2.1593,0 -2.50946,0.116719 -0.64196,0.350158 -0.99211,0.933754 -0.99211,1.692429 0,1.750789 1.51735,1.750789 2.50946,1.750789 h 5.95268 c 1.05047,0 2.45111,0 2.45111,-1.750789 0,-1.809148 -1.1672,-1.809148 -3.26814,-1.809148 l 1.34227,-6.069401 h 9.45426 l 1.34227,6.069401 c -2.10095,0 -3.26814,0 -3.26814,1.809148 0,1.750789 1.40063,1.750789 2.4511,1.750789 h 5.95268 c 0.99212,0 2.50947,0 2.50947,-1.750789 z m -9.86278,-11.438486 h -7.70347 l 3.85174,-18.324922 z"
         inkscape:connector-curvature="0" />
      <path
         id="path843"
         style="font-style:normal;font-variant:normal;font-weight:normal;font-stretch:normal;font-family:'Latin Modern Mono';-inkscape-font-specification:'Latin Modern Mono';letter-spacing:0px;word-spacing:-15.85714245px;stroke-width:4.37697172"
         d="m 248.55807,15.509462 c 0,-1.809148 -1.40063,-1.809148 -2.33439,-1.809148 h -6.18612 c -0.93375,0 -2.33438,0 -2.33438,1.809148 0,1.750789 1.45899,1.750789 2.33438,1.750789 h 1.45899 v 27.720821 h -0.0584 L 230.70002,15.80126 c -0.70031,-1.925867 -1.57571,-2.100946 -3.15142,-2.100946 h -3.96845 c -0.8754,0 -2.33439,0 -2.33439,1.750789 0,1.809148 1.40063,1.809148 2.33439,1.809148 h 1.45899 v 28.537856 h -1.45899 c -0.8754,0 -2.33439,0 -2.33439,1.750788 0,1.809149 1.40063,1.809149 2.33439,1.809149 h 6.18612 c 0.87539,0 2.33438,0 2.33438,-1.750789 0,-1.809148 -1.40063,-1.809148 -2.33438,-1.809148 h -1.45899 V 18.077286 h 0.0584 l 10.73817,29.179811 c 0.75867,2.042587 1.69243,2.100947 3.20978,2.100947 1.75079,0 2.4511,-0.175079 2.4511,-2.392745 V 17.260251 h 1.45899 c 0.8754,0 2.33439,0 2.33439,-1.750789 z"
         inkscape:connector-curvature="0" />
      <path
         id="path845"
         style="font-style:normal;font-variant:normal;font-weight:normal;font-stretch:normal;font-family:'Latin Modern Mono';-inkscape-font-specification:'Latin Modern Mono';letter-spacing:0px;word-spacing:-15.85714245px;stroke-width:4.37697172"
         d="m 279.21966,35.351734 c 0,-1.750789 -1.51735,-1.750789 -2.39275,-1.750789 h -6.94479 c -0.8754,0 -2.33439,0 -2.33439,1.750789 0,1.809148 1.40063,1.809148 2.33439,1.809148 h 2.4511 c -0.70031,6.536278 -3.55993,9.279181 -6.65299,9.279181 -4.72713,0 -9.16247,-6.30284 -9.16247,-14.881704 0,-8.929023 4.66877,-14.940064 9.22082,-14.940064 2.04259,0 5.71925,1.342272 6.71136,7.645111 0.11672,0.992113 0.46688,1.692429 1.98423,1.692429 2.04259,0 2.04259,-1.225552 2.04259,-2.392745 v -8.111987 c 0,-0.933754 0,-2.392745 -1.75079,-2.392745 -1.22556,0 -1.51735,0.641956 -2.39275,2.626183 -2.04258,-1.750788 -4.37697,-2.626183 -6.82807,-2.626183 -7.00316,0 -13.0142,7.878549 -13.0142,18.441641 0,10.738171 6.0694,18.500001 13.0142,18.500001 3.3265,0 5.7776,-1.750789 6.94479,-3.09306 0,1.283911 0,2.451104 2.04259,2.451104 1.98423,0 1.98423,-1.283912 1.98423,-2.392745 v -9.804417 c 1.40063,0 2.7429,0 2.7429,-1.809148 z"
         inkscape:connector-curvature="0" />
      <path
         id="path847"
         style="font-style:normal;font-variant:normal;font-weight:normal;font-stretch:normal;font-family:'Latin Modern Mono';-inkscape-font-specification:'Latin Modern Mono';letter-spacing:0px;word-spacing:-15.85714245px;stroke-width:4.37697172"
         d="m 310.23142,46.965299 v -5.194006 c 0,-1.108833 0,-2.392745 -1.98423,-2.392745 -2.04258,0 -2.04258,1.225552 -2.04258,2.392745 v 4.026814 H 290.62259 V 32.667192 h 7.64511 c 0,2.392744 0,3.326498 2.04259,3.326498 1.98422,0 1.98422,-1.283912 1.98422,-2.392745 v -5.427444 c 0,-1.108833 0,-2.392745 -1.98422,-2.392745 -2.04259,0 -2.04259,0.933754 -2.04259,3.326499 h -7.64511 V 17.260251 h 14.29811 v 3.09306 c 0,1.108833 0,2.392745 1.98422,2.392745 2.04259,0 2.04259,-1.225552 2.04259,-2.392745 v -4.260252 c 0,-1.809149 -0.35016,-2.392745 -2.33439,-2.392745 h -21.76813 c -0.8754,0 -2.39275,0 -2.39275,1.750789 0,1.809148 1.51735,1.809148 2.39275,1.809148 h 1.75078 v 28.537856 h -1.75078 c -0.93376,0 -2.39275,0 -2.39275,1.809148 0,1.750789 1.51735,1.750789 2.39275,1.750789 h 23.05205 c 1.92586,0 2.33438,-0.525237 2.33438,-2.392745 z"
         inkscape:connector-curvature="0" />
      <path
         id="path849"
         style="font-style:normal;font-variant:normal;font-weight:normal;font-stretch:normal;font-family:'Latin Modern Mono';-inkscape-font-specification:'Latin Modern Mono';letter-spacing:0px;word-spacing:-15.85714245px;stroke-width:4.37697172"
         d="m 342.06022,43.930599 c 0,-1.867508 -1.40063,-1.867508 -2.04259,-1.867508 -0.58359,0 -1.92586,0 -1.98422,1.750788 0,0.466877 -0.11672,2.626184 -1.10884,2.626184 -1.63407,0 -1.63407,-2.684543 -1.63407,-5.777603 0,-3.676656 0,-4.143533 -0.52523,-5.485805 -0.70032,-1.692429 -2.04259,-2.917981 -2.85962,-3.559937 3.85173,-2.159306 4.96056,-5.719243 4.96056,-8.111987 0,-5.018928 -4.43533,-9.804417 -11.32176,-9.804417 h -10.32966 c -0.93375,0 -2.33438,0 -2.33438,1.809148 0,1.750789 1.45899,1.750789 2.33438,1.750789 h 1.45899 v 28.537856 h -1.45899 c -0.93375,0 -2.33438,0 -2.33438,1.809148 0,1.750789 1.45899,1.750789 2.33438,1.750789 h 6.9448 c 0.87539,0 2.33438,0 2.33438,-1.750789 0,-1.809148 -1.40063,-1.809148 -2.33438,-1.809148 h -1.45899 v -12.48896 h 4.55205 c 1.10883,0 2.85962,0 4.72713,1.63407 1.28391,1.225552 1.28391,2.509464 1.28391,4.960568 0,3.793375 0,5.544164 1.10883,7.411672 C 333.36464,49.066246 334.99871,50 336.98293,50 c 3.67666,0 5.07729,-3.851736 5.07729,-6.069401 z M 332.8394,23.504731 c 0,2.859621 -2.62618,6.244479 -7.93691,6.244479 H 320.7006 V 17.260251 h 4.20189 c 5.36909,0 7.93691,3.443218 7.93691,6.24448 z"
         inkscape:connector-curvature="0" />
    </g>
    <g
       id="text821"
       style="font-style:normal;font-weight:normal;font-size:58.45181656px;line-height:1.25;font-family:sans-serif;letter-spacing:0px;word-spacing:-15.88219261px;fill:#000000;fill-opacity:1;stroke:none;stroke-width:4.38388586"
       aria-label="FOODS">
      <path
         id="path852"
         style="font-style:normal;font-variant:normal;font-weight:normal;font-stretch:normal;font-family:'Latin Modern Mono';-inkscape-font-specification:'Latin Modern Mono';letter-spacing:0px;word-spacing:-15.88219261px;stroke-width:4.38388586"
         d="m 127.00475,61.30648 v -4.266983 c 0,-1.812006 -0.35071,-2.396524 -2.33808,-2.396524 h -22.27014 c -0.93523,0 -2.39652,0 -2.39652,1.812006 0,1.753555 1.51975,1.753555 2.39652,1.753555 h 1.92891 v 28.582938 h -1.92891 c -0.93523,0 -2.39652,0 -2.39652,1.812006 0,1.753555 1.51975,1.753555 2.39652,1.753555 h 9.00158 c 0.87678,0 2.33808,0 2.33808,-1.753555 0,-1.812006 -1.40285,-1.812006 -2.33808,-1.812006 h -3.03949 V 74.282783 h 7.94945 c 0,2.396525 0,3.331754 2.04581,3.331754 1.98736,0 1.98736,-1.28594 1.98736,-2.396525 v -5.436019 c 0,-1.110584 0,-2.396524 -1.98736,-2.396524 -2.04581,0 -2.04581,0.935229 -2.04581,3.331753 h -7.94945 V 58.208534 h 14.61295 v 3.097946 c 0,1.110584 0,2.396524 1.98736,2.396524 2.04582,0 2.04582,-1.227488 2.04582,-2.396524 z"
         inkscape:connector-curvature="0" />
      <path
         id="path854"
         style="font-style:normal;font-variant:normal;font-weight:normal;font-stretch:normal;font-family:'Latin Modern Mono';-inkscape-font-specification:'Latin Modern Mono';letter-spacing:0px;word-spacing:-15.88219261px;stroke-width:4.38388586"
         d="m 156.42884,72.529229 c 0,-16.892575 -1.22748,-18.529226 -12.04107,-18.529226 -10.81359,0 -12.04107,1.578199 -12.04107,18.529226 0,16.892575 1.22748,18.470774 12.04107,18.470774 10.75513,0 12.04107,-1.578199 12.04107,-18.470774 z m -4.03317,-0.526067 c 0,3.624013 0,7.774092 -0.64297,10.93049 -0.64297,3.273302 -2.16272,4.50079 -7.36493,4.50079 -5.14376,0 -6.60505,-1.227488 -7.30648,-4.150079 -0.70142,-2.981043 -0.70142,-8.066351 -0.70142,-11.281201 0,-3.624012 0,-7.598736 0.64297,-10.287519 0.75988,-3.448658 2.57188,-4.150079 7.36493,-4.150079 4.38389,0 6.4297,0.526066 7.30648,3.740916 0.70142,2.747235 0.70142,7.131122 0.70142,10.696682 z"
         inkscape:connector-curvature="0" />
      <path
         id="path856"
         style="font-style:normal;font-variant:normal;font-weight:normal;font-stretch:normal;font-family:'Latin Modern Mono';-inkscape-font-specification:'Latin Modern Mono';letter-spacing:0px;word-spacing:-15.88219261px;stroke-width:4.38388586"
         d="m 187.13888,72.529229 c 0,-16.892575 -1.22749,-18.529226 -12.04107,-18.529226 -10.81359,0 -12.04108,1.578199 -12.04108,18.529226 0,16.892575 1.22749,18.470774 12.04108,18.470774 10.75513,0 12.04107,-1.578199 12.04107,-18.470774 z m -4.03317,-0.526067 c 0,3.624013 0,7.774092 -0.64297,10.93049 -0.64297,3.273302 -2.16272,4.50079 -7.36493,4.50079 -5.14376,0 -6.60506,-1.227488 -7.30648,-4.150079 -0.70142,-2.981043 -0.70142,-8.066351 -0.70142,-11.281201 0,-3.624012 0,-7.598736 0.64297,-10.287519 0.75987,-3.448658 2.57188,-4.150079 7.36493,-4.150079 4.38388,0 6.4297,0.526066 7.30648,3.740916 0.70142,2.747235 0.70142,7.131122 0.70142,10.696682 z"
         inkscape:connector-curvature="0" />
      <path
         id="path858"
         style="font-style:normal;font-variant:normal;font-weight:normal;font-stretch:normal;font-family:'Latin Modern Mono';-inkscape-font-specification:'Latin Modern Mono';letter-spacing:0px;word-spacing:-15.88219261px;stroke-width:4.38388586"
         d="m 218.8426,72.763036 c 0,-9.352291 -5.02686,-18.120063 -12.80095,-18.120063 h -12.04107 c -0.93523,0 -2.39653,0 -2.39653,1.812006 0,1.753555 1.51975,1.753555 2.39653,1.753555 h 1.28594 v 28.582938 h -1.28594 c -0.93523,0 -2.39653,0 -2.39653,1.812006 0,1.753555 1.51975,1.753555 2.39653,1.753555 h 12.04107 c 7.65719,0 12.80095,-8.183255 12.80095,-17.593997 z m -4.03318,0 c 0,6.838863 -3.3902,14.028436 -9.87835,14.028436 h -5.61138 V 58.208534 h 5.61138 c 6.60505,0 9.87835,7.774091 9.87835,14.554502 z"
         inkscape:connector-curvature="0" />
      <path
         id="path860"
         style="font-style:normal;font-variant:normal;font-weight:normal;font-stretch:normal;font-family:'Latin Modern Mono';-inkscape-font-specification:'Latin Modern Mono';letter-spacing:0px;word-spacing:-15.88219261px;stroke-width:4.38388586"
         d="m 248.79276,80.654031 c 0,-3.740916 -2.10426,-6.195892 -2.80568,-6.955766 -2.39653,-2.338073 -3.97473,-2.747235 -8.53397,-3.799368 l -4.7346,-1.052133 c -2.45497,-0.701422 -4.67614,-2.747235 -4.67614,-5.49447 0,-2.981043 2.86414,-5.78673 7.01422,-5.78673 6.89731,0 7.77409,5.49447 8.1248,7.306477 0.17535,1.28594 0.81832,1.636651 1.98736,1.636651 2.04581,0 2.04581,-1.227489 2.04581,-2.396525 v -7.71564 c 0,-0.935229 0,-2.396524 -1.75355,-2.396524 -1.40284,0 -1.6951,0.993681 -2.16272,2.747235 -2.39652,-2.045813 -5.55292,-2.747235 -8.18325,-2.747235 -6.48815,0 -10.87204,4.617693 -10.87204,9.586098 0,3.916272 2.68878,7.774091 7.54029,9.176935 l 6.72195,1.578199 c 1.63666,0.350711 6.48816,1.519747 6.48816,6.605055 0,3.039495 -2.51343,6.488152 -7.13113,6.488152 -1.63665,0 -4.50079,-0.233807 -6.83886,-1.812006 -2.45497,-1.578199 -2.68878,-4.033176 -2.74723,-5.085308 -0.0585,-0.993681 -0.11691,-2.045814 -1.98737,-2.045814 -2.04581,0 -2.04581,1.227488 -2.04581,2.396524 v 7.71564 c 0,0.935229 0,2.396525 1.75356,2.396525 1.28594,0 1.63665,-0.818326 2.16271,-2.688784 2.33808,1.753555 5.90364,2.688784 9.64455,2.688784 6.78041,0 10.98894,-5.14376 10.98894,-10.345972 z"
         inkscape:connector-curvature="0" />
    </g>
  </g>
</svg>
