<svg xmlns="http://www.w3.org/2000/svg" width="252.06" height="234.421" viewBox="0 0 251.852 234.421"><path fill="#fff" d="M89.238 124h73.973v6.433H89.238z"/><path overflow="visible" d="M126.225 5C108.185 5 92.92 16.878 87.83 33.243 72.962 36.778 61.9 50.156 61.9 66.108c0 16.443 11.776 30.104 27.338 33.118v24.775h73.973V99.226c15.562-3.014 27.338-16.676 27.338-33.118 0-15.95-11.064-29.328-25.93-32.866C159.528 16.878 144.264 5 126.224 5zM89.238 130.433v12.865h73.973v-12.865z" color="#000"/><g style="line-height:1.25"><path style="-inkscape-font-specification:'Latin Modern Mono'" d="M123.846 76.899c0-5.374-3.023-8.901-4.03-9.993-3.443-3.358-5.71-3.946-12.26-5.458l-6.802-1.512c-3.527-1.006-6.719-3.946-6.719-7.892 0-4.284 4.117-8.314 10.078-8.314 9.908 0 11.168 7.894 11.672 10.496.252 1.85 1.175 2.351 2.856 2.351 2.938 0 2.938-1.762 2.938-3.441V42.05c0-1.344 0-3.443-2.519-3.443-2.016 0-2.436 1.426-3.106 3.946-3.443-2.94-7.978-3.946-11.757-3.946-9.321 0-15.62 6.634-15.62 13.77 0 5.629 3.863 11.17 10.832 13.185l9.659 2.268c2.35.503 9.32 2.182 9.32 9.488 0 4.367-3.612 9.322-10.243 9.322-2.353 0-6.468-.338-9.826-2.605-3.528-2.268-3.863-5.793-3.948-7.304-.084-1.428-.167-2.94-2.854-2.94-2.94 0-2.94 1.764-2.94 3.443V88.32c0 1.343 0 3.443 2.52 3.443 1.848 0 2.351-1.176 3.107-3.863 3.36 2.518 8.481 3.863 13.855 3.863 9.74 0 15.787-7.39 15.787-14.864zm45.63-27.795v-6.13c0-2.603-.503-3.443-3.359-3.443h-31.993c-1.343 0-3.442 0-3.442 2.604 0 2.518 2.183 2.518 3.442 2.518h2.77v41.063h-2.77c-1.343 0-3.442 0-3.442 2.604 0 2.52 2.183 2.52 3.442 2.52h12.932c1.26 0 3.358 0 3.358-2.52 0-2.604-2.015-2.604-3.358-2.604h-4.367v-17.97h11.42c0 3.442 0 4.787 2.94 4.787 2.854 0 2.854-1.848 2.854-3.443v-7.81c0-1.596 0-3.442-2.854-3.442-2.94 0-2.94 1.343-2.94 4.786h-11.42V44.653h20.994v4.451c0 1.595 0 3.442 2.854 3.442 2.94 0 2.94-1.763 2.94-3.442z" aria-label="SF" font-weight="400" font-size="52.219" font-family="'Latin Modern Mono'" letter-spacing="0" word-spacing="0" fill="#fff"/></g><g style="line-height:1.25"><path style="-inkscape-font-specification:'Latin Modern Mono'" d="M29.411 178.091c0-3.735-2.1-6.186-2.801-6.944-2.393-2.335-3.969-2.743-8.52-3.794l-4.728-1.05c-2.451-.7-4.669-2.743-4.669-5.486 0-2.976 2.86-5.778 7.004-5.778 6.886 0 7.761 5.486 8.112 7.295.175 1.284.817 1.634 1.984 1.634 2.042 0 2.042-1.225 2.042-2.392v-7.705c0-.934 0-2.393-1.75-2.393-1.401 0-1.693.992-2.16 2.743-2.393-2.042-5.544-2.743-8.17-2.743-6.478 0-10.855 4.61-10.855 9.571 0 3.91 2.685 7.762 7.528 9.163l6.712 1.576c1.634.35 6.478 1.517 6.478 6.594 0 3.035-2.51 6.478-7.12 6.478-1.634 0-4.494-.233-6.828-1.81-2.451-1.575-2.685-4.026-2.743-5.076-.059-.992-.117-2.043-1.984-2.043-2.043 0-2.043 1.226-2.043 2.393v7.703c0 .934 0 2.393 1.75 2.393 1.285 0 1.635-.817 2.16-2.685 2.334 1.751 5.894 2.685 9.63 2.685 6.77 0 10.971-5.136 10.971-10.33zm32.179-19.317v-4.26c0-1.81-.35-2.393-2.334-2.393H36.437c-1.926 0-2.393.467-2.393 2.393v4.26c0 1.11 0 2.393 1.984 2.393 2.043 0 2.043-1.225 2.043-2.393v-3.093h7.762v28.538h-3.035c-.875 0-2.334 0-2.334 1.75 0 1.81 1.4 1.81 2.334 1.81h10.096c.876 0 2.335 0 2.335-1.75 0-1.81-1.4-1.81-2.335-1.81H49.86v-28.538h7.703v3.093c0 1.11 0 2.393 1.984 2.393 2.043 0 2.043-1.225 2.043-2.393zm32.062 23.577c0-1.867-1.4-1.867-2.042-1.867-.584 0-1.926 0-1.985 1.75 0 .468-.116 2.627-1.108 2.627-1.634 0-1.634-2.684-1.634-5.778 0-3.676 0-4.143-.526-5.485-.7-1.693-2.042-2.918-2.86-3.56 3.852-2.16 4.961-5.72 4.961-8.112 0-5.02-4.435-9.805-11.322-9.805h-10.33c-.933 0-2.334 0-2.334 1.81 0 1.75 1.46 1.75 2.335 1.75h1.459v28.538h-1.46c-.933 0-2.334 0-2.334 1.81 0 1.75 1.46 1.75 2.335 1.75h6.945c.875 0 2.334 0 2.334-1.75 0-1.81-1.4-1.81-2.334-1.81h-1.46v-12.488h4.553c1.108 0 2.86 0 4.727 1.634 1.284 1.226 1.284 2.51 1.284 4.96 0 3.794 0 5.545 1.109 7.412.992 1.751 2.626 2.685 4.61 2.685 3.677 0 5.077-3.852 5.077-6.07zm-9.22-20.425c0 2.86-2.627 6.244-7.938 6.244h-4.201v-12.489h4.201c5.37 0 7.937 3.443 7.937 6.245zm38.423 24.102c0-.758-.292-1.342-.992-1.634-.35-.175-1.634-.175-2.51-.175l-7.061-30.522c-.525-2.218-1.343-2.276-3.152-2.276-1.692 0-2.626 0-3.151 2.218l-7.062 30.58c-.817 0-2.159 0-2.51.117-.641.35-.991.934-.991 1.692 0 1.751 1.517 1.751 2.51 1.751h5.952c1.05 0 2.451 0 2.451-1.75 0-1.81-1.167-1.81-3.268-1.81l1.342-6.07h9.454l1.343 6.07c-2.101 0-3.268 0-3.268 1.81 0 1.75 1.4 1.75 2.45 1.75h5.953c.992 0 2.51 0 2.51-1.75zm-9.863-11.438h-7.703l3.851-18.325zm40.466-20.659c0-1.81-1.4-1.81-2.334-1.81h-6.186c-.934 0-2.335 0-2.335 1.81 0 1.75 1.46 1.75 2.335 1.75h1.459v27.721h-.059l-10.738-29.18c-.7-1.926-1.576-2.1-3.151-2.1h-3.969c-.875 0-2.334 0-2.334 1.75 0 1.81 1.4 1.81 2.334 1.81h1.46v28.537h-1.46c-.875 0-2.334 0-2.334 1.75 0 1.81 1.4 1.81 2.334 1.81h6.186c.876 0 2.335 0 2.335-1.75 0-1.81-1.401-1.81-2.335-1.81h-1.459V156.5h.059l10.738 29.18c.759 2.042 1.692 2.1 3.21 2.1 1.75 0 2.45-.175 2.45-2.393v-29.705h1.46c.875 0 2.334 0 2.334-1.75zm30.662 19.842c0-1.75-1.518-1.75-2.393-1.75h-6.945c-.875 0-2.334 0-2.334 1.75 0 1.81 1.4 1.81 2.334 1.81h2.451c-.7 6.535-3.56 9.28-6.653 9.28-4.727 0-9.162-6.305-9.162-14.884 0-8.929 4.669-14.94 9.22-14.94 2.043 0 5.72 1.343 6.712 7.645.117.993.467 1.693 1.984 1.693 2.043 0 2.043-1.226 2.043-2.393v-8.112c0-.934 0-2.393-1.751-2.393-1.226 0-1.517.642-2.393 2.627-2.042-1.75-4.377-2.627-6.828-2.627-7.003 0-13.014 7.88-13.014 18.442 0 10.738 6.07 18.5 13.014 18.5 3.327 0 5.778-1.75 6.945-3.093 0 1.284 0 2.451 2.043 2.451 1.984 0 1.984-1.284 1.984-2.393v-9.804c1.4 0 2.743 0 2.743-1.81zm31.011 11.613v-5.194c0-1.109 0-2.392-1.984-2.392-2.042 0-2.042 1.225-2.042 2.392v4.027h-15.582v-13.13h7.645c0 2.392 0 3.326 2.042 3.326 1.985 0 1.985-1.284 1.985-2.393v-5.427c0-1.11 0-2.393-1.985-2.393-2.042 0-2.042.934-2.042 3.326h-7.645v-11.847h14.298v3.093c0 1.11 0 2.393 1.984 2.393 2.043 0 2.043-1.225 2.043-2.393v-4.26c0-1.81-.35-2.393-2.335-2.393h-21.768c-.875 0-2.393 0-2.393 1.751 0 1.81 1.518 1.81 2.393 1.81h1.75v28.537h-1.75c-.934 0-2.393 0-2.393 1.81 0 1.75 1.518 1.75 2.393 1.75h23.052c1.926 0 2.334-.525 2.334-2.393zm31.829-3.035c0-1.867-1.4-1.867-2.042-1.867-.584 0-1.926 0-1.985 1.75 0 .468-.116 2.627-1.108 2.627-1.634 0-1.634-2.684-1.634-5.778 0-3.676 0-4.143-.526-5.485-.7-1.693-2.042-2.918-2.86-3.56 3.852-2.16 4.961-5.72 4.961-8.112 0-5.02-4.435-9.805-11.322-9.805h-10.33c-.933 0-2.334 0-2.334 1.81 0 1.75 1.46 1.75 2.335 1.75h1.459v28.538h-1.46c-.933 0-2.334 0-2.334 1.81 0 1.75 1.46 1.75 2.335 1.75h6.945c.875 0 2.334 0 2.334-1.75 0-1.81-1.4-1.81-2.334-1.81h-1.46v-12.488h4.553c1.108 0 2.86 0 4.727 1.634 1.284 1.226 1.284 2.51 1.284 4.96 0 3.794 0 5.545 1.109 7.412.992 1.751 2.626 2.685 4.61 2.685 3.677 0 5.077-3.852 5.077-6.07zm-9.22-20.425c0 2.86-2.627 6.244-7.938 6.244h-4.201v-12.489h4.201c5.37 0 7.937 3.443 7.937 6.245z" aria-label="STRANGER" font-weight="400" font-size="58.36" font-family="'Latin Modern Mono'" letter-spacing="0" word-spacing="-15.857"/></g><g style="line-height:1.25"><path style="-inkscape-font-specification:'Latin Modern Mono'" d="M78.534 199.727v-4.266c0-1.812-.35-2.396-2.338-2.396h-22.27c-.936 0-2.397 0-2.397 1.812 0 1.754 1.52 1.754 2.397 1.754h1.928v28.58h-1.928c-.936 0-2.397 0-2.397 1.812 0 1.754 1.52 1.754 2.397 1.754h9.001c.877 0 2.338 0 2.338-1.754 0-1.812-1.403-1.812-2.338-1.812h-3.04v-12.507h7.95c0 2.396 0 3.332 2.046 3.332 1.987 0 1.987-1.286 1.987-2.397v-5.436c0-1.11 0-2.397-1.987-2.397-2.046 0-2.046.936-2.046 3.332h-7.95v-12.507h14.614v3.097c0 1.111 0 2.397 1.987 2.397 2.046 0 2.046-1.227 2.046-2.397zm29.424 11.224c0-16.893-1.228-18.53-12.04-18.53-10.815 0-12.042 1.578-12.042 18.53 0 16.892 1.227 18.47 12.04 18.47 10.756 0 12.042-1.578 12.042-18.47zm-4.033-.527c0 3.624 0 7.774-.643 10.93-.643 3.274-2.163 4.501-7.365 4.501-5.144 0-6.605-1.227-7.307-4.15-.7-2.98-.7-8.066-.7-11.28 0-3.625 0-7.6.642-10.288.76-3.449 2.572-4.15 7.365-4.15 4.384 0 6.43.526 7.306 3.74.702 2.748.702 7.132.702 10.697zm34.743.527c0-16.893-1.228-18.53-12.04-18.53-10.815 0-12.042 1.578-12.042 18.53 0 16.892 1.227 18.47 12.04 18.47 10.756 0 12.042-1.578 12.042-18.47zm-4.033-.527c0 3.624 0 7.774-.643 10.93-.643 3.274-2.163 4.501-7.365 4.501-5.144 0-6.605-1.227-7.307-4.15-.7-2.98-.7-8.066-.7-11.28 0-3.625 0-7.6.642-10.288.76-3.449 2.572-4.15 7.365-4.15 4.384 0 6.43.526 7.306 3.74.702 2.748.702 7.132.702 10.697zm35.737.76c0-9.352-5.027-18.12-12.8-18.12h-12.043c-.936 0-2.397 0-2.397 1.812 0 1.754 1.52 1.754 2.397 1.754h1.286v28.581h-1.286c-.936 0-2.397 0-2.397 1.812 0 1.754 1.52 1.754 2.397 1.754h12.04c7.658 0 12.802-8.183 12.802-17.594zm-4.034 0c0 6.84-3.39 14.028-9.878 14.028h-5.61v-28.58h5.61c6.605 0 9.878 7.773 9.878 14.553zm33.984 7.891c0-3.74-2.105-6.196-2.806-6.956-2.396-2.338-3.975-2.747-8.534-3.8l-4.734-1.05c-2.455-.703-4.677-2.748-4.677-5.496 0-2.98 2.865-5.786 7.015-5.786 6.897 0 7.774 5.494 8.124 7.306.176 1.286.82 1.637 1.988 1.637 2.046 0 2.046-1.228 2.046-2.397v-7.715c0-.936 0-2.397-1.754-2.397-1.403 0-1.695.994-2.163 2.747-2.396-2.046-5.553-2.747-8.183-2.747-6.488 0-10.872 4.618-10.872 9.586 0 3.916 2.69 7.774 7.54 9.177l6.722 1.578c1.637.35 6.488 1.52 6.488 6.605 0 3.04-2.513 6.488-7.13 6.488-1.637 0-4.502-.233-6.84-1.812-2.455-1.578-2.688-4.033-2.747-5.085-.058-.994-.117-2.046-1.987-2.046-2.046 0-2.046 1.228-2.046 2.397v7.715c0 .936 0 2.397 1.754 2.397 1.285 0 1.636-.818 2.162-2.689 2.338 1.754 5.904 2.69 9.645 2.69 6.78 0 10.99-5.145 10.99-10.347z" aria-label="FOODS" font-weight="400" font-size="58.452" font-family="'Latin Modern Mono'" letter-spacing="0" word-spacing="-15.882"/></g></svg>