<svg xmlns="http://www.w3.org/2000/svg" width="853.773" height="712.791" clip-rule="evenodd" fill-rule="evenodd" image-rendering="optimizeQuality" shape-rendering="geometricPrecision" text-rendering="geometricPrecision"><path d="M381.1 485.401v149.18c0 21.55-8.8 41.12-22.94 55.27-14.14 14.14-33.72 22.94-55.26 22.94H178.72c-21.55 0-41.12-8.8-55.27-22.94-14.14-14.15-22.94-33.72-22.94-55.27v-281.23H29.04c-16.03 0-29.04-13.01-29.04-29.04 0-10.31 5.4-19.37 13.5-24.54L409.68 5.701c10.63-7.89 24.89-7.4 34.91.29l397.48 295.06c12.83 9.52 15.53 27.68 6.01 40.51-5.66 7.64-14.41 11.7-23.26 11.7h-71.47v281.32c0 21.55-8.8 41.12-22.94 55.27-14.15 14.14-33.72 22.94-55.27 22.94H550.96c-21.55 0-41.12-8.8-55.26-22.94-14.15-14.15-22.94-33.72-22.94-55.27v-149.18z" fill="#fff"/></svg>