<?xml version="1.0" encoding="UTF-8" standalone="no"?>
<svg
   xmlns:dc="http://purl.org/dc/elements/1.1/"
   xmlns:cc="http://creativecommons.org/ns#"
   xmlns:rdf="http://www.w3.org/1999/02/22-rdf-syntax-ns#"
   xmlns:svg="http://www.w3.org/2000/svg"
   xmlns="http://www.w3.org/2000/svg"
   xmlns:sodipodi="http://sodipodi.sourceforge.net/DTD/sodipodi-0.dtd"
   xmlns:inkscape="http://www.inkscape.org/namespaces/inkscape"
   xml:space="preserve"
   version="1.1"
   style="clip-rule:evenodd;fill-rule:evenodd;image-rendering:optimizeQuality;shape-rendering:geometricPrecision;text-rendering:geometricPrecision"
   viewBox="0 0 853.77255 712.79114"
   x="0px"
   y="0px"
   id="svg14"
   sodipodi:docname="home.svg"
   width="853.77258"
   height="712.79114"
   inkscape:version="0.92.3 (2405546, 2018-03-11)"><metadata
     id="metadata18"><rdf:RDF><cc:Work
         rdf:about=""><dc:format>image/svg+xml</dc:format><dc:type
           rdf:resource="http://purl.org/dc/dcmitype/StillImage" /><dc:title></dc:title></cc:Work></rdf:RDF></metadata><sodipodi:namedview
     pagecolor="#ffffff"
     bordercolor="#666666"
     borderopacity="1"
     objecttolerance="10"
     gridtolerance="10"
     guidetolerance="10"
     inkscape:pageopacity="0"
     inkscape:pageshadow="2"
     inkscape:window-width="1920"
     inkscape:window-height="1018"
     id="namedview16"
     showgrid="false"
     fit-margin-top="0"
     fit-margin-left="0"
     fit-margin-right="0"
     fit-margin-bottom="0"
     inkscape:zoom="0.26487093"
     inkscape:cx="1015.3074"
     inkscape:cy="-449.61652"
     inkscape:window-x="0"
     inkscape:window-y="34"
     inkscape:window-maximized="1"
     inkscape:current-layer="svg14" /><defs
     id="defs4"><style
       type="text/css"
       id="style2">
   
    .fil0 {fill:black}
   
  </style></defs><g
     id="g8"
     transform="translate(0,-0.00884137)"
     style="fill:#ffffff;fill-opacity:1"><path
       class="fil0"
       d="m 381.1,485.41 v 149.18 c 0,21.55 -8.8,41.12 -22.94,55.27 C 344.02,704 324.44,712.8 302.9,712.8 H 178.72 c -21.55,0 -41.12,-8.8 -55.27,-22.94 -14.14,-14.15 -22.94,-33.72 -22.94,-55.27 V 353.36 H 29.04 C 13.01,353.36 0,340.35 0,324.32 0,314.01 5.4,304.95 13.5,299.78 L 409.68,5.71 c 10.63,-7.89 24.89,-7.4 34.91,0.29 l 397.48,295.06 c 12.83,9.52 15.53,27.68 6.01,40.51 -5.66,7.64 -14.41,11.7 -23.26,11.7 h -71.47 v 281.32 c 0,21.55 -8.8,41.12 -22.94,55.27 C 716.26,704 696.69,712.8 675.14,712.8 H 550.96 c -21.55,0 -41.12,-8.8 -55.26,-22.94 -14.15,-14.15 -22.94,-33.72 -22.94,-55.27 V 485.41 Z"
       id="path6"
       inkscape:connector-curvature="0"
       style="fill:#ffffff;fill-opacity:1" /></g></svg>