<svg xmlns="http://www.w3.org/2000/svg" height="75" width="75" viewBox="0 0 91.463 91.463"><circle r="39.634" cy="45.732" cx="45.732" class="icon" fill="#9467bd"/><path overflow="visible" font-weight="400" style="line-height:normal;text-indent:0;text-align:start;text-decoration-line:none;text-decoration-style:solid;text-decoration-color:#000;text-transform:none;isolation:auto;mix-blend-mode:normal" d="M56.794 18.295c-1.479.06-2.695 1.04-3.962 1.693a39.499 39.499 0 0 0-10.327 8.803c-.393.59-1.008 1.405-1.475 2.15-.286.464-.565.938-.83 1.422a8.557 8.557 0 0 0-.5-.008c-.1 0-.199.006-.298.009-.099.006-.197.01-.295.017a11.312 11.312 0 0 0-.58.058 13.998 13.998 0 0 0-1.996.396c-.652.178-1.291.403-1.912.666a16.25 16.25 0 0 0-1.809.905 17.45 17.45 0 0 0-1.683 1.111 19.109 19.109 0 0 0-1.538 1.28c-.49.452-.956.927-1.399 1.422a23.63 23.63 0 0 0-1.262 1.536 26.429 26.429 0 0 0-2.075 3.21 21.81 21.81 0 0 0-.82 1.662 18.488 18.488 0 0 0-.662 1.738 16.326 16.326 0 0 0-.477 1.81 14.508 14.508 0 0 0-.254 1.877 13.024 13.024 0 0 0 .006 1.902c.048.633.141 1.264.287 1.884a11.105 11.105 0 0 0 .596 1.823c.241.568.533 1.113.869 1.629a10.925 10.925 0 0 0 1.743 2.066l10.327 10.327a10.944 10.944 0 0 0 1.359 1.244 10.73 10.73 0 0 0 3.253 1.713 10.988 10.988 0 0 0 5.466.33 10.713 10.713 0 0 0 4.725-2.23 9.946 9.946 0 0 0 2.282-2.679 10.026 10.026 0 0 0 .753-1.599 9.775 9.775 0 0 0 .457-1.708 9.41 9.41 0 0 0 .138-1.77 11.36 11.36 0 0 0-.121-1.433 17.27 17.27 0 0 0-.263-1.375 44.402 44.402 0 0 0-.331-1.324l-.326-1.28-.25-1.251-.124-1.23.05-1.18.269-1.101.268-.591.34-.605c.122-.206.25-.416.381-.634.132-.218.265-.443.394-.677a8.832 8.832 0 0 0 .37-.74 5.77 5.77 0 0 0 .294-.818c.04-.144.075-.292.102-.442a4.37 4.37 0 0 0 .067-.931 3.722 3.722 0 0 0-.402-1.534 4.167 4.167 0 0 0-.9-1.18L51.64 41.58c.706-.78 1.484-1.5 2.268-2.167 3.813-3.135 8.38-5.388 13.116-6.654 1.677-.599 2.289-2.75 1.47-4.258-.722-1.507-2.327-2.617-4.013-2.626h-.164c-1.512.19-2.875.971-4.26 1.564a39.405 39.405 0 0 0-10.624 7.401c-.489.473-.816 1.002-1.402 1.628-.22.277-.44.559-.655.844l-2.002-2.002a24 24 0 0 1 2.032-2.408c3.457-3.524 7.76-6.251 12.331-8.014 1.558-.754 1.977-2.874 1.071-4.283-.803-1.396-2.395-2.333-4.011-2.312zm.038 1.564c1.479-.026 3.132 1.313 2.852 2.89-.367 1.017-1.65 1-2.463 1.504-4.855 2.239-9.38 5.41-12.717 9.627-.97 1.285-1.87 2.667-2.36 4.214-.885-.153-2.176-1.032-1.81-2.063 1.385-4.408 4.563-7.996 8.013-10.952 2.41-2.004 5.027-3.798 7.872-5.125a2.064 2.064 0 0 1 .613-.095zm7.553 7.578c1.583-.042 3.278 1.55 2.814 3.187-.473.972-1.747.82-2.609 1.233-5.067 1.709-9.904 4.38-13.671 8.216-1.102 1.175-2.143 2.454-2.796 3.94-.863-.247-2.054-1.259-1.58-2.245 1.86-4.262 5.433-7.51 9.21-10.088 2.609-1.718 5.39-3.234 8.363-4.216l.132-.017zM52.039 46.638c.548-.006 1.008.067 1.337.204.087.036.167.077.238.12.119.073.213.151.278.222.095.106.145.23.153.275.008.044.011.191-.045.394-.058.21-.18.492-.368.831-.377.681-1.075 1.587-1.588 2.95-.913 2.432-.521 4.797-.069 6.708.446 1.882.93 3.429.952 4.7.027 1.512-.563 3.112-1.572 4.294-1.014 1.188-2.514 2.048-4.088 2.357a7.697 7.697 0 0 1-4.967-.724 7.627 7.627 0 0 1-3.396-3.68c-.694-1.626-.815-3.606-.43-5.515.29-1.446.858-2.88 1.617-4.272.254-.465.528-.924.819-1.376 1.255-1.95 2.765-3.685 4.52-4.993 1.747-1.303 3.774-2.19 5.81-2.44a6.99 6.99 0 0 1 .8-.055zm-5.132 13.805a2.158 2.9 30 0 0-2.543 1.653 2.158 2.9 30 0 0 .418 3.591 2.158 2.9 30 0 0 3.319-1.433 2.158 2.9 30 0 0-.418-3.59 2.158 2.9 30 0 0-.776-.221z" color="#000" font-family="sans-serif" white-space="normal" fill="#fff" fill-rule="evenodd"/></svg>