<?xml version="1.0" encoding="UTF-8" standalone="no"?>
<svg
   xmlns:dc="http://purl.org/dc/elements/1.1/"
   xmlns:cc="http://creativecommons.org/ns#"
   xmlns:rdf="http://www.w3.org/1999/02/22-rdf-syntax-ns#"
   xmlns:svg="http://www.w3.org/2000/svg"
   xmlns="http://www.w3.org/2000/svg"
   xmlns:sodipodi="http://sodipodi.sourceforge.net/DTD/sodipodi-0.dtd"
   xmlns:inkscape="http://www.inkscape.org/namespaces/inkscape"
   viewBox="0 0 100 100"
   version="1.1"
   x="0px"
   y="0px"
   id="svg10"
   sodipodi:docname="lamb.svg"
   width="100"
   height="100"
   inkscape:version="0.92.2 (5c3e80d, 2017-08-06)">
  <metadata
     id="metadata16">
    <rdf:RDF>
      <cc:Work
         rdf:about="">
        <dc:format>image/svg+xml</dc:format>
        <dc:type
           rdf:resource="http://purl.org/dc/dcmitype/StillImage" />
        <dc:title></dc:title>
      </cc:Work>
    </rdf:RDF>
  </metadata>
  <defs
     id="defs14" />
  <sodipodi:namedview
     pagecolor="#ffffff"
     bordercolor="#666666"
     borderopacity="1"
     objecttolerance="10"
     gridtolerance="10"
     guidetolerance="10"
     inkscape:pageopacity="0"
     inkscape:pageshadow="2"
     inkscape:window-width="1366"
     inkscape:window-height="708"
     id="namedview12"
     showgrid="false"
     inkscape:zoom="1.888"
     inkscape:cx="-26.800847"
     inkscape:cy="62.5"
     inkscape:window-x="0"
     inkscape:window-y="32"
     inkscape:window-maximized="1"
     inkscape:current-layer="svg10" />
  <path
     inkscape:connector-curvature="0"
     id="path2"
     d="m 69.853348,2.247702 c -2.56866,0.1037671 -4.680428,1.8038541 -6.88082,2.9409514 -6.799501,4.0175885 -12.89815,9.2000156 -17.933292,15.2858846 -0.682746,1.023695 -1.749535,2.440752 -2.561672,3.732335 -0.495859,0.80716 -0.98187,1.630627 -1.439928,2.470929 -0.290866,-0.01376 -0.58099,-0.018 -0.869315,-0.01376 v 0 c -0.173121,0 -0.345714,0.01059 -0.517353,0.01482 -0.171745,0.01059 -0.342537,0.018 -0.512483,0.03071 -0.170051,0.01271 -0.339255,0.02753 -0.507188,0.04447 -0.167933,0.01694 -0.334808,0.03494 -0.500412,0.05612 -1.175004,0.144109 -2.332219,0.376314 -3.465505,0.686875 -1.133179,0.310454 -2.242323,0.699369 -3.321395,1.157321 -1.079073,0.457952 -2.127968,0.984835 -3.140545,1.571331 -1.012576,0.586602 -1.988941,1.232817 -2.922633,1.929116 -0.932528,0.695452 -1.822596,1.439081 -2.67211,2.223476 -0.849514,0.784395 -1.658369,1.609555 -2.42794,2.468069 -0.769571,0.858409 -1.499965,1.750277 -2.192558,2.667981 -0.692698,0.917598 -1.347702,1.861138 -1.966493,2.823101 -0.574637,0.893139 -1.123015,1.809996 -1.635815,2.74983 -0.5128,0.939833 -0.990129,1.902538 -1.422457,2.887056 -0.432328,0.984517 -0.819654,1.990741 -1.152768,3.018141 -0.333114,1.027401 -0.61212,2.075767 -0.827384,3.144039 -0.215793,1.070919 -0.364879,2.161533 -0.43974,3.259347 -0.07518,1.097708 -0.07518,2.202616 0.01059,3.302336 0.08153,1.099826 0.244699,2.194569 0.497447,3.27163 0.252641,1.077061 0.594755,2.136544 1.033965,3.166063 0.420786,0.986423 0.927234,1.932716 1.509388,2.828501 0.582261,0.89568 1.24023,1.740959 1.964164,2.525354 0.339891,0.368161 0.694922,0.722452 1.062766,1.062766 l 17.93414,17.934139 c 0.724041,0.784289 1.514048,1.507694 2.360067,2.159839 0.84602,0.652145 1.748159,1.233135 2.696676,1.732276 0.948516,0.499141 1.937692,0.913786 2.953657,1.242029 1.016071,0.328243 2.058931,0.57019 3.114603,0.723935 1.055777,0.153744 2.124473,0.219393 3.191898,0.194828 1.067319,-0.02435 2.133474,-0.139239 3.184593,-0.345714 1.000294,-0.196628 1.983329,-0.475953 2.936928,-0.833208 0.953598,-0.357256 1.877761,-0.792442 2.7601,-1.300478 0.882232,-0.508141 1.722428,-1.089025 2.508835,-1.738099 0.786407,-0.648969 1.518812,-1.366127 2.184722,-2.14618 0.666651,-0.781007 1.261724,-1.620991 1.778336,-2.506083 0.516612,-0.885197 0.954763,-1.815395 1.307254,-2.777253 0.352491,-0.961752 0.619426,-1.955164 0.793713,-2.966152 0.174392,-1.010989 0.256241,-2.039766 0.238452,-3.072566 -0.01482,-0.848879 -0.09212,-1.678169 -0.209863,-2.490412 -0.118274,-0.812137 -0.277524,-1.607438 -0.456576,-2.387597 -0.179157,-0.78016 -0.37822,-1.545389 -0.57559,-2.298019 l -0.56606,-2.222311 -0.433704,-2.173498 -0.214947,-2.136015 0.08577,-2.048871 0.468117,-1.912387 0.464729,-1.026871 0.590202,-1.050695 c 0.211875,-0.35715 0.435928,-0.722558 0.663474,-1.100567 0.227441,-0.378009 0.458376,-0.768512 0.684016,-1.175957 0.112979,-0.203934 0.22437,-0.412845 0.332161,-0.626838 0.107685,-0.213994 0.21177,-0.433281 0.310454,-0.658075 0.09847,-0.224899 0.192075,-0.455198 0.277842,-0.691745 0.08577,-0.236547 0.164122,-0.479129 0.233053,-0.72817 0.06883,-0.250206 0.128756,-0.506553 0.17598,-0.767771 0.04765,-0.261324 0.08259,-0.527518 0.102708,-0.797525 0.02012,-0.270006 0.02541,-0.543718 0.01482,-0.819972 -0.01165,-0.276254 -0.04024,-0.555154 -0.08894,-0.835326 -0.05612,-0.323266 -0.13638,-0.638062 -0.23877,-0.943116 -0.102709,-0.305054 -0.2267,-0.600155 -0.370385,-0.883926 -0.143686,-0.283878 -0.306749,-0.556214 -0.486541,-0.815843 -0.179687,-0.25963 -0.376209,-0.506447 -0.586708,-0.738865 -0.157027,-0.173439 -0.321149,-0.338196 -0.491306,-0.494376 l -5.34549,-5.345384 c 1.224982,-1.353844 2.576919,-2.605297 3.937328,-3.762512 6.621932,-5.445552 14.554189,-9.358314 22.776146,-11.556166 2.913104,-1.040636 3.974917,-4.773606 2.55299,-7.393726 -1.252724,-2.616838 -4.040566,-4.545245 -6.968705,-4.559327 -0.09424,0 -0.18911,0 -0.283877,0 -2.626262,0.33018 -4.993318,1.685189 -7.397962,2.714813 -6.808713,3.227687 -13.06026,7.589719 -18.451492,12.852302 -0.847609,0.821984 -1.417057,1.740746 -2.433022,2.827125 -0.384151,0.481141 -0.764701,0.970011 -1.137945,1.466293 l -3.477046,-3.477046 c 1.077378,-1.484294 2.293783,-2.87975 3.528824,-4.181393 6.003776,-6.120037 13.474587,-10.856055 21.414891,-13.917429 2.70504,-1.308842 3.431622,-4.9905641 1.859762,-7.4378804 -1.395457,-2.4240217 -4.160216,-4.052107 -6.966376,-4.0145178 z m 0.06565,2.715099 c 2.568025,-0.043413 5.438563,2.2806536 4.953081,5.0191532 -0.637957,1.7661588 -2.865032,1.7378878 -4.276689,2.6115438 -8.432033,3.888229 -16.291124,9.395511 -22.085248,16.717448 -1.685263,2.232793 -3.244947,4.632991 -4.097638,7.317701 -1.536918,-0.264924 -3.779559,-1.792101 -3.144038,-3.581872 2.405386,-7.654309 7.925798,-13.886056 13.916127,-19.018749 4.185627,-3.480859 8.72904,-6.5959905 13.671109,-8.8991975 0.342749,-0.1114968 0.704028,-0.1615803 1.063296,-0.1660275 z m 13.116061,13.160564 v 0 c 2.749935,-0.07306 5.693004,2.692864 4.886903,5.534707 -0.822408,1.688228 -3.033813,1.422669 -4.530495,2.141097 -8.798607,2.967317 -17.199722,7.605602 -23.741287,14.2683 -1.913657,2.040401 -3.720158,4.2607 -4.854079,6.839314 -1.499753,-0.42714 -3.566837,-2.184616 -2.744535,-3.896351 3.230757,-7.402515 9.43455,-13.041941 15.993481,-17.518752 4.531024,-2.983729 9.362443,-5.61592 14.522953,-7.321725 l 0.229134,-0.03071 0.237606,-0.01588 z M 61.595813,51.466713 c 0.952328,-0.01059 1.750594,0.117215 2.321737,0.353973 0.151203,0.06247 0.289807,0.134051 0.413374,0.209335 0.206158,0.125579 0.370703,0.261747 0.4822,0.384785 0.166345,0.18371 0.252959,0.398657 0.266406,0.476694 0.01376,0.0773 0.01906,0.333643 -0.07836,0.685075 -0.10059,0.364773 -0.312042,0.854808 -0.638168,1.443739 -0.655003,1.182734 -1.867702,2.754806 -2.75777,5.123556 -1.586155,4.22184 -0.906057,8.329113 -0.11965,11.647438 0.774653,3.268348 1.614744,5.954752 1.652756,8.161074 0.04553,2.626897 -0.978164,5.404998 -2.730346,7.457576 -1.761289,2.063272 -4.366268,3.556248 -7.09852,4.09319 -2.874773,0.564895 -6.039248,0.104826 -8.626332,-1.256853 -2.586025,-1.360938 -4.75317,-3.70777 -5.897362,-6.389939 -1.20497,-2.824584 -1.415574,-6.262664 -0.747441,-9.57866 0.505812,-2.51 1.490647,-5.000517 2.809654,-7.418609 0.439528,-0.805784 0.915692,-1.603097 1.421292,-2.388974 2.179004,-3.38715 4.801984,-6.398833 7.849244,-8.671545 3.033071,-2.262124 6.554165,-3.803383 10.089978,-4.237405 0.489611,-0.06036 0.95434,-0.09106 1.387303,-0.09424 z m -8.912962,23.973493 a 3.7467753,5.0373193 30 0 0 -4.416457,2.871279 3.7467753,5.0373193 30 0 0 0.726052,6.235982 3.7467753,5.0373193 30 0 0 5.763524,-2.489247 3.7467753,5.0373193 30 0 0 -0.726264,-6.235664 3.7467753,5.0373193 30 0 0 -1.346855,-0.38235 z"
     style="color:#000000;font-style:normal;font-variant:normal;font-weight:normal;font-stretch:normal;font-size:medium;line-height:normal;font-family:sans-serif;text-indent:0;text-align:start;text-decoration:none;text-decoration-line:none;text-decoration-style:solid;text-decoration-color:#000000;letter-spacing:normal;word-spacing:normal;text-transform:none;writing-mode:lr-tb;direction:ltr;baseline-shift:baseline;text-anchor:start;white-space:normal;clip-rule:nonzero;display:inline;overflow:visible;visibility:visible;opacity:1;isolation:auto;mix-blend-mode:normal;color-interpolation:sRGB;color-interpolation-filters:linearRGB;solid-color:#000000;solid-opacity:1;fill:#9467bd;fill-opacity:1;fill-rule:evenodd;stroke:none;stroke-width:26.47121048;stroke-linecap:butt;stroke-linejoin:miter;stroke-miterlimit:4;stroke-dasharray:none;stroke-dashoffset:0;stroke-opacity:1;color-rendering:auto;image-rendering:auto;shape-rendering:auto;text-rendering:auto;enable-background:accumulate" />
</svg>
