<svg xmlns="http://www.w3.org/2000/svg" width="100" height="100"><path d="M69.853 2.248c-2.568.103-4.68 1.804-6.88 2.94a68.592 68.592 0 0 0-17.934 15.287c-.683 1.023-1.75 2.44-2.561 3.732-.496.807-.982 1.63-1.44 2.47-.291-.013-.581-.017-.87-.013-.173 0-.345.01-.517.015-.172.01-.343.018-.513.03a19.644 19.644 0 0 0-1.007.101 24.308 24.308 0 0 0-3.466.687c-1.133.31-2.242.7-3.321 1.157-1.08.458-2.128.985-3.14 1.572a30.303 30.303 0 0 0-2.923 1.929 33.184 33.184 0 0 0-2.672 2.223c-.85.785-1.659 1.61-2.428 2.468-.77.859-1.5 1.75-2.193 2.668a45.895 45.895 0 0 0-3.602 5.573c-.513.94-.99 1.903-1.423 2.887-.432.985-.82 1.991-1.152 3.018a28.351 28.351 0 0 0-.828 3.144 25.194 25.194 0 0 0-.44 3.26 22.617 22.617 0 0 0 .011 3.302c.082 1.1.245 2.195.498 3.272a19.284 19.284 0 0 0 1.034 3.166c.42.986.927 1.933 1.509 2.828a18.972 18.972 0 0 0 3.027 3.588l17.934 17.935a19.005 19.005 0 0 0 2.36 2.16 18.632 18.632 0 0 0 5.65 2.974 19.081 19.081 0 0 0 9.491.573 18.603 18.603 0 0 0 8.206-3.872 17.272 17.272 0 0 0 3.963-4.652c.517-.885.955-1.816 1.308-2.777.352-.962.62-1.956.793-2.967.175-1.01.257-2.04.239-3.072a19.728 19.728 0 0 0-.21-2.49 29.99 29.99 0 0 0-.457-2.388c-.179-.78-.378-1.546-.575-2.298l-.566-2.223-.434-2.173-.215-2.136.086-2.049.468-1.912.465-1.027.59-1.05c.212-.358.436-.723.663-1.101.228-.378.459-.769.684-1.176.113-.204.225-.413.333-.627.107-.214.211-.434.31-.658.098-.225.192-.456.278-.692.086-.237.164-.48.233-.728.069-.25.129-.507.176-.768a7.59 7.59 0 0 0 .117-1.617 6.464 6.464 0 0 0-.698-2.663 7.236 7.236 0 0 0-1.565-2.05l-5.345-5.344c1.225-1.354 2.577-2.606 3.938-3.763 6.622-5.445 14.554-9.358 22.776-11.556 2.913-1.04 3.975-4.774 2.553-7.394-1.253-2.617-4.04-4.545-6.969-4.56h-.284c-2.626.331-4.993 1.686-7.398 2.716A68.43 68.43 0 0 0 57.07 30.979c-.848.822-1.417 1.74-2.433 2.827-.384.481-.765.97-1.138 1.466l-3.477-3.477c1.077-1.484 2.293-2.88 3.529-4.181 6.003-6.12 13.474-10.856 21.414-13.917 2.705-1.31 3.432-4.991 1.86-7.438-1.395-2.424-4.16-4.052-6.966-4.015zm.066 2.715c2.568-.044 5.439 2.28 4.953 5.019-.638 1.766-2.865 1.738-4.277 2.611-8.432 3.889-16.29 9.396-22.085 16.718-1.685 2.233-3.245 4.633-4.097 7.318-1.537-.265-3.78-1.792-3.145-3.582 2.406-7.655 7.926-13.886 13.917-19.019 4.185-3.48 8.729-6.596 13.67-8.9a3.584 3.584 0 0 1 1.064-.165zm13.116 13.16c2.75-.073 5.693 2.693 4.887 5.535-.822 1.688-3.034 1.423-4.53 2.141-8.8 2.967-17.2 7.606-23.742 14.268-1.913 2.04-3.72 4.261-4.854 6.84-1.5-.427-3.567-2.185-2.744-3.897 3.23-7.402 9.434-13.042 15.993-17.518 4.531-2.984 9.362-5.616 14.523-7.322l.23-.03.237-.017zm-21.44 33.344c.953-.01 1.751.117 2.323.354.15.062.29.134.413.209.206.126.37.262.482.385.166.184.253.398.267.477.013.077.019.333-.079.685-.1.364-.312.854-.638 1.443-.655 1.183-1.868 2.755-2.758 5.124-1.586 4.222-.906 8.329-.12 11.647.775 3.269 1.615 5.955 1.653 8.161.046 2.627-.978 5.405-2.73 7.458-1.761 2.063-4.366 3.556-7.099 4.093-2.874.565-6.039.105-8.626-1.257-2.586-1.36-4.753-3.707-5.897-6.39-1.205-2.824-1.416-6.262-.748-9.578.506-2.51 1.491-5 2.81-7.419.44-.806.916-1.603 1.421-2.389 2.18-3.387 4.802-6.399 7.85-8.671 3.033-2.263 6.554-3.804 10.09-4.238.49-.06.954-.09 1.387-.094zM52.684 75.44a3.747 5.037 30 0 0-4.417 2.871 3.747 5.037 30 0 0 .726 6.236 3.747 5.037 30 0 0 5.764-2.489 3.747 5.037 30 0 0-.726-6.235 3.747 5.037 30 0 0-1.347-.383z" style="line-height:normal;text-indent:0;text-align:start;text-decoration-line:none;text-decoration-style:solid;text-decoration-color:#000;text-transform:none;isolation:auto;mix-blend-mode:normal" color="#000" font-weight="400" font-family="sans-serif" white-space="normal" overflow="visible" fill="#9467bd" fill-rule="evenodd"/></svg>