<svg width="90" height="96" xmlns="http://www.w3.org/2000/svg"><path fill="#fff" d="M22 79h46v4H22z"/><path overflow="visible" d="M45 5c-11.218 0-20.71 7.386-23.875 17.563C11.879 24.761 5 33.08 5 43c0 10.225 7.323 18.72 17 20.594V79h46V63.594C77.677 61.72 85 53.224 85 43c0-9.919-6.88-18.238-16.125-20.438C65.71 12.386 56.218 5 45 5zM22 83v8h46v-8z" color="#000"/><g style="line-height:1.25"><path style="-inkscape-font-specification:'Latin Modern Mono'" d="M43.521 49.71c0-3.342-1.88-5.535-2.506-6.214-2.141-2.088-3.551-2.454-7.624-3.394l-4.23-.94c-2.193-.626-4.178-2.454-4.178-4.908 0-2.664 2.56-5.17 6.267-5.17 6.161 0 6.945 4.909 7.258 6.527.157 1.15.731 1.462 1.776 1.462 1.827 0 1.827-1.096 1.827-2.14V28.04c0-.836 0-2.141-1.566-2.141-1.254 0-1.515.887-1.932 2.454-2.141-1.828-4.961-2.454-7.311-2.454-5.796 0-9.713 4.125-9.713 8.563 0 3.5 2.402 6.946 6.736 8.199l6.006 1.41c1.462.313 5.796 1.357 5.796 5.9 0 2.716-2.246 5.797-6.37 5.797-1.463 0-4.022-.21-6.11-1.62-2.194-1.41-2.402-3.602-2.455-4.542-.052-.888-.104-1.828-1.775-1.828-1.828 0-1.828 1.097-1.828 2.141v6.893c0 .835 0 2.141 1.567 2.141 1.149 0 1.462-.731 1.932-2.402 2.089 1.566 5.274 2.402 8.616 2.402 6.057 0 9.817-4.595 9.817-9.243zm28.375-17.284v-3.812c0-1.619-.313-2.141-2.089-2.141H49.912c-.835 0-2.14 0-2.14 1.619 0 1.566 1.357 1.566 2.14 1.566h1.723v25.535h-1.723c-.835 0-2.14 0-2.14 1.619 0 1.567 1.357 1.567 2.14 1.567h8.042c.783 0 2.088 0 2.088-1.567 0-1.619-1.253-1.619-2.088-1.619h-2.716V44.018h7.102c0 2.141 0 2.977 1.828 2.977 1.775 0 1.775-1.149 1.775-2.141v-4.856c0-.993 0-2.141-1.775-2.141-1.828 0-1.828.835-1.828 2.976h-7.102V29.658h13.055v2.768c0 .992 0 2.14 1.775 2.14 1.828 0 1.828-1.096 1.828-2.14z" aria-label="SF" font-weight="400" font-size="52.219" font-family="'Latin Modern Mono'" letter-spacing="0" word-spacing="0" fill="#fff"/></g></svg>