<svg width="96" height="96" xmlns="http://www.w3.org/2000/svg"><path fill="#fff" d="M25 79h46v4H25z"/><path overflow="visible" d="M48 5c-11.218 0-20.71 7.386-23.875 17.563C14.879 24.761 8 33.08 8 43c0 10.225 7.323 18.72 17 20.594V79h46V63.594C80.677 61.72 88 53.224 88 43c0-9.919-6.88-18.238-16.125-20.438C68.71 12.386 59.218 5 48 5zM25 83v8h46v-8z" color="#000"/><g style="line-height:1.25"><path style="-inkscape-font-specification:'Latin Modern Mono'" d="M44.779 49.71c0-3.342-1.88-5.535-2.507-6.214-2.14-2.088-3.55-2.454-7.623-3.394l-4.23-.94c-2.194-.626-4.179-2.454-4.179-4.908 0-2.664 2.56-5.17 6.267-5.17 6.162 0 6.946 4.909 7.259 6.527.157 1.15.73 1.462 1.776 1.462 1.827 0 1.827-1.096 1.827-2.14V28.04c0-.836 0-2.141-1.566-2.141-1.254 0-1.515.887-1.932 2.454-2.142-1.828-4.962-2.454-7.312-2.454-5.795 0-9.712 4.125-9.712 8.563 0 3.5 2.401 6.946 6.735 8.199l6.006 1.41c1.462.313 5.796 1.357 5.796 5.9 0 2.716-2.246 5.797-6.37 5.797-1.463 0-4.022-.21-6.11-1.62-2.194-1.41-2.402-3.602-2.455-4.542-.052-.888-.104-1.828-1.775-1.828-1.827 0-1.827 1.097-1.827 2.141v6.893c0 .835 0 2.141 1.567 2.141 1.149 0 1.462-.731 1.932-2.402 2.089 1.566 5.274 2.402 8.616 2.402 6.056 0 9.816-4.595 9.816-9.243zm28.374-17.284v-3.812c0-1.619-.312-2.141-2.088-2.141H51.17c-.835 0-2.14 0-2.14 1.619 0 1.566 1.357 1.566 2.14 1.566h1.723v25.535H51.17c-.835 0-2.14 0-2.14 1.619 0 1.567 1.357 1.567 2.14 1.567h8.042c.783 0 2.088 0 2.088-1.567 0-1.619-1.253-1.619-2.088-1.619h-2.716V44.018h7.102c0 2.141 0 2.977 1.828 2.977 1.775 0 1.775-1.149 1.775-2.141v-4.856c0-.993 0-2.141-1.775-2.141-1.828 0-1.828.835-1.828 2.976h-7.102V29.658H69.55v2.768c0 .992 0 2.14 1.774 2.14 1.829 0 1.829-1.096 1.829-2.14z" aria-label="SF" font-weight="400" font-size="52.219" font-family="'Latin Modern Mono'" letter-spacing="0" word-spacing="0" fill="#fff"/></g></svg>