<svg xmlns="http://www.w3.org/2000/svg" width="510" height="510"><g fill="#8c564b"><path d="M357.87 379.801a282.845 282.845 0 0 0-13.35-26.125 93.554 93.554 0 0 0 23.123-20.201c5.05 7.971 7.862 13.212 7.944 13.404a5.465 5.465 0 0 0 9.664-5.105c-.464-.874-4.204-7.835-10.647-17.827a109.36 109.36 0 0 0 5.651-9.745 5.463 5.463 0 0 0-9.746-4.942c-.846 1.638-1.72 3.222-2.73 4.778-3.658-5.214-7.862-10.92-12.53-16.653a44.798 44.798 0 0 0 6.17-7.862 5.46 5.46 0 1 0-9.364-5.596 33.032 33.032 0 0 1-3.876 5.078 224.89 224.89 0 0 0-19.655-19.929 35.816 35.816 0 0 0 3.303-5.214 5.463 5.463 0 0 0-9.746-4.94 25.634 25.634 0 0 1-1.966 3.166 136.85 136.85 0 0 0-22.248-14.387 116.13 116.13 0 0 1-28.446-21.511l6.743-5.187a5.46 5.46 0 1 0-6.66-8.654l-7.617 5.87a270.147 270.147 0 0 1-15.479-19.274 110.48 110.48 0 0 1 12.667-6.06 5.46 5.46 0 0 0-4.068-10.128 123.446 123.446 0 0 0-14.66 7.125A362.805 362.805 0 0 1 228.5 171.1a68.248 68.248 0 0 1 7.125-.983 5.477 5.477 0 0 0-.874-10.92 79.167 79.167 0 0 0-11.93 1.912l-3.384-6.252c.71 0 1.392.137 2.102.246a5.519 5.519 0 0 0 1.61-10.92c-3.248-.491-6.415-.764-9.5-.955a5.46 5.46 0 0 0-9.472-.137 91.78 91.78 0 0 0-34.78 8.163 44.989 44.989 0 0 1-3.603-13.213 5.46 5.46 0 0 0-10.92 0 53.097 53.097 0 0 0 4.833 18.263 108.377 108.377 0 0 0-24.16 19.792 40.757 40.757 0 0 1 4.013-25.334 5.466 5.466 0 1 0-9.31-5.732 50.176 50.176 0 0 0-6.087 24.569 56.891 56.891 0 0 0 2.211 15.588l.465 1.446a76.028 76.028 0 0 0-4.75 7.371 5.46 5.46 0 1 0 9.636 5.105l.246-.41a88.886 88.886 0 0 0 17.144 21.649c-3.959 6.251-6.088 10.455-6.252 10.92a5.463 5.463 0 0 0 9.746 4.94c0-.136 1.747-3.412 4.859-8.408a174.714 174.714 0 0 0 22.167 14.796c-2.512 3.003-4.013 4.941-4.286 5.296a5.463 5.463 0 0 0 8.68 6.634s2.048-2.73 5.46-6.634l1.202.628a204.743 204.743 0 0 1 18.318 10.456l-2.73 1.993a5.46 5.46 0 0 0 6.66 8.653l5.46-4.204a204.087 204.087 0 0 1 16.817 13.65l-6.962 5.077a5.46 5.46 0 1 0 6.416 8.818l8.626-6.279a212.332 212.332 0 0 1 15.37 17.09c-5.679 2.73-10.674 5.05-14.387 6.66a5.46 5.46 0 1 0 4.313 10.02c.846-.356 7.562-3.277 16.816-7.836 4.34 5.979 8.19 11.875 11.493 17.499-5.46 2.184-10.046 3.986-13.65 5.269a5.466 5.466 0 0 0 3.686 10.291c.846-.3 6.797-2.457 15.342-5.95a222.343 222.343 0 0 1 8.845 18.863 85.965 85.965 0 0 1-14.578-.628 5.46 5.46 0 0 0-6.224 4.559v.846a5.46 5.46 0 0 0 4.614 5.46 102.89 102.89 0 0 0 20.228.328c1.884 5.46 2.73 8.735 2.73 8.899a5.46 5.46 0 0 0 10.62-2.512c-.137-.6-.82-3.357-2.212-7.698a108.868 108.868 0 0 0 28.364-8.708 281.617 281.617 0 0 1 13.049 25.17 5.461 5.461 0 0 0 10.046-4.286zm3.467-55.908a83.972 83.972 0 0 1-22.276 20.501c-4.422-7.316-9.691-15.478-15.779-24.16a177.089 177.089 0 0 0 23.832-15.505c5.46 6.743 10.237 13.322 14.223 19.164zm-21.157-27.518a171.22 171.22 0 0 1-23.286 14.933 352.247 352.247 0 0 0-15.123-19.11 146.896 146.896 0 0 0 19.491-14.96 215.662 215.662 0 0 1 18.918 19.137zm-27.299-26.261a143.62 143.62 0 0 1-18.235 13.65c-5.979-6.77-12.394-13.65-19.246-20.393l12.339-8.982a75.18 75.18 0 0 0 5.46 3.003 123.937 123.937 0 0 1 19.655 12.722zm-34.86-22.222l-10.756 7.808q-8.19-7.507-16.898-14.824l10.4-7.998a153.284 153.284 0 0 0 17.253 15.014zm-24.679-22.93l-11.657 8.98c-7.67-6.06-14.495-11.71-20.665-17.17a188.036 188.036 0 0 1 16.216-12.149 247.75 247.75 0 0 0 16.106 20.338zm-22.467-29.21a200.73 200.73 0 0 0-17.963 13.512 267.203 267.203 0 0 1-20.201-21.32 91.07 91.07 0 0 1 24.57-13.786c3.903 6.497 8.435 13.868 13.594 21.511zm-24.214-41.632c1.337 2.73 3.14 6.197 5.46 10.32a103.9 103.9 0 0 0-26.126 14.85 151.537 151.537 0 0 1-10.182-15.233l-1.638-2.92a81.897 81.897 0 0 1 32.486-7.017zm-67.538 34.48a98.276 98.276 0 0 1 25.306-22.413 157.46 157.46 0 0 0 13.076 20.12 149.407 149.407 0 0 0-10.92 10.92 175.915 175.915 0 0 0-11.246 14.086 71.578 71.578 0 0 1-16.243-22.713zm24.57 30.029a157.215 157.215 0 0 1 20.665-23.696 273.727 273.727 0 0 0 20.283 21.512c-6.962 6.388-12.94 12.585-17.663 17.772a165.896 165.896 0 0 1-23.45-15.506zm33.44 20.802c4.368-4.696 9.692-10.101 15.752-15.615q9.036 8.19 20.01 16.816l-14.769 11.247a220.904 220.904 0 0 0-21.129-12.366zm30.63 18.918l13.922-10.729q8.763 7.125 16.762 14.523l-13.786 10.046a216.317 216.317 0 0 0-17.035-13.731zm24.924 21.511l13.813-10.073a378.46 378.46 0 0 1 18.727 19.71 475.412 475.412 0 0 1-16.079 8.9 221.122 221.122 0 0 0-16.598-18.427zm23.15 27.3c5.295-2.73 10.92-5.952 16.625-9.337a414.78 414.78 0 0 1 14.632 18.509 402.143 402.143 0 0 1-19.464 9.09c-3.577-5.705-7.48-11.82-11.957-18.071zm26.916 50.284a220.93 220.93 0 0 0-10.046-22.221c6.416-2.73 13.513-6.088 20.693-9.719a378.297 378.297 0 0 1 15.943 24.187 95.792 95.792 0 0 1-26.59 7.753z"/><path d="M370.564 261.57a129.397 129.397 0 0 0-52.441-32.35 58.966 58.966 0 0 1-38.738-38.737 129.397 129.397 0 0 0-32.349-52.442c-41.522-41.385-101.28-49.302-133.192-17.362-12.94 12.94-19.764 30.63-19.764 50.722a94.782 94.782 0 0 0 .928 13.021c3.44 24.87 16.38 49.52 36.226 69.449a129.397 129.397 0 0 0 52.414 32.35 58.966 58.966 0 0 1 38.737 38.736 129.397 129.397 0 0 0 32.377 52.442c19.9 19.9 44.579 32.759 69.448 36.226 25.443 3.521 48.074-3.167 63.744-18.837 31.912-31.94 23.995-91.697-17.39-133.219zm-44.88 141.244c-22.521-3.14-44.988-14.905-63.224-33.168a118.505 118.505 0 0 1-29.674-47.937 69.858 69.858 0 0 0-45.89-45.89 118.505 118.505 0 0 1-47.937-29.674c-18.235-18.236-30.029-40.703-33.113-63.224-3.03-21.84 2.566-41.331 15.751-54.598 27.627-27.6 80.45-19.82 117.713 17.471a118.505 118.505 0 0 1 29.647 47.937 69.858 69.858 0 0 0 45.917 45.917 118.505 118.505 0 0 1 47.937 29.647c22.194 22.194 33.933 49.93 33.933 74.58 0 16.708-5.46 31.995-16.57 43.16-13.159 13.213-32.514 18.81-54.49 15.78z"/><path d="M502.462 255C502.462 118.33 391.67 7.538 255 7.538S7.538 118.33 7.538 255 118.33 502.462 255 502.462C391.6 502.294 502.294 391.6 502.462 255zm-472.995 0C29.33 166.057 81.525 85.356 162.7 49.003c81.175-36.353 176.138-21.555 242.402 37.774l4.518 4.57-318.274 318.07-4.57-4.518A224.57 224.57 0 0 1 29.467 255zm76.7 169.188l-4.518-4.467 318.172-317.97 4.467 4.518c78.523 89.263 74.188 224.174-9.903 308.212-84.091 84.038-219.005 88.287-308.218 9.707z" stroke="#8c564b" stroke-width="5.076"/></g></svg>