<svg width="512" height="288" viewBox="0 0 135.467 76.2" xmlns:xlink="http://www.w3.org/1999/xlink" xmlns="http://www.w3.org/2000/svg"><defs><linearGradient id="a"><stop offset="0" stop-color="#f2e5bc"/><stop offset="1" stop-color="#7c6f64"/></linearGradient><linearGradient xlink:href="#a" id="b" x1="99.589" y1="65.917" x2="29.831" y2="-41.049" gradientUnits="userSpaceOnUse"/></defs><path fill="url(#b)" d="M0 0h135.467v76.2H0z"/><path d="M0 59.796l2.514.476c2.513.503 7.54 1.455 12.567 1.905 5.027.45 10.054.344 15.082.132 5.027-.211 10.054-.582 15.08-.582 5.028 0 10.055.37 15.03.053 5-.317 9.921-1.27 14.922-1.72 4.974-.45 10.001-.344 15.028-.185 5.027.185 10.054.45 15.081.767 5.028.291 10.055.662 15.082.133 5.027-.53 10.054-1.958 12.567-2.646l2.514-.714V76.2H0z" fill="#689d6a"/><path d="M0 66.146l2.514.132c2.513.132 7.54.397 12.567-.185 5.027-.556 10.054-1.984 15.082-2.725 5.027-.741 10.054-.847 15.08-.212 5.028.609 10.055 1.931 15.03 1.72 5-.238 9.921-1.985 14.922-1.985 4.974 0 10.001 1.747 15.028 2.408 5.027.662 10.054.238 15.081.132 5.028-.079 10.055.186 15.082.37 5.027.16 10.054.265 12.567.292l2.514.053V76.2H0z" fill="#74a870"/><path d="M0 68.262l2.514.053c2.513.027 7.54.133 12.567-.053 5.027-.185 10.054-.608 15.082-1.137 5.027-.53 10.054-1.164 15.08-.926 5.028.211 10.055 1.27 15.03 2.063 5 .794 9.921 1.323 14.922 1.059 4.974-.265 10.001-1.323 15.028-1.8 5.027-.502 10.054-.396 15.081 0 5.028.398 10.055 1.085 15.082 1.059 5.027-.053 10.054-.847 12.567-1.244l2.514-.396v9.26H0z" fill="#81b476"/><path d="M0 70.38l2.514.21c2.513.239 7.54.662 12.567.636 5.027-.053 10.054-.582 15.082-.53 5.027.027 10.054.662 15.08.794 5.028.133 10.055-.238 15.03-.185 5 .053 9.921.476 14.922.185 4.974-.317 10.001-1.375 15.028-1.375 5.027 0 10.054 1.058 15.081 1.375 5.028.291 10.055-.132 15.082-.635 5.027-.476 10.054-1.005 12.567-1.27l2.514-.264V76.2H0z" fill="#8ec07c"/></svg>