<svg width="512" height="288" viewBox="0 0 135.467 76.2" xmlns:xlink="http://www.w3.org/1999/xlink" xmlns="http://www.w3.org/2000/svg"><defs><linearGradient id="a"><stop offset="0" stop-color="#f2e5bc"/><stop offset="1" stop-color="#7c6f64"/></linearGradient><linearGradient xlink:href="#a" id="b" x1="99.589" y1="65.917" x2="29.831" y2="-41.049" gradientUnits="userSpaceOnUse"/></defs><path fill="url(#b)" d="M0 0h135.467v76.2H0z"/><path d="M52.599 39.105c-.006-.326-.243-.322-.352-.32-.1.002-.316.006-.331.293-.016.237-.038.613-.685.941-.372.194-.923.292-1.398.3-1.668.029-2.885-1.145-2.908-2.479-.022-1.333 1.172-2.54 2.8-2.567.524-.01 1.03.11 1.39.31.598.337.694.73.767 1.005.054.227.242.224.33.222.347-.006.342-.213.339-.41l-.023-1.373c-.004-.159-.008-.406-.304-.4-.187.003-.235.103-.301.251-.088.15-.087.17-.172.369-.411-.309-1.157-.593-2.104-.576-1.986.034-3.432 1.522-3.404 3.181.03 1.65 1.497 3.106 3.532 3.071 1.778-.032 2.841-.81 2.823-1.818zm8.045-1.493c-.03-1.709-1.576-3.105-3.512-3.07-1.954.033-3.43 1.511-3.402 3.18.03 1.71 1.575 3.104 3.51 3.071 1.956-.035 3.433-1.512 3.404-3.181zm-.684-.106c.025 1.43-1.179 2.657-2.73 2.685-1.56.026-2.795-1.167-2.82-2.59-.023-1.312 1.183-2.43 2.733-2.457 1.55-.027 2.795 1.047 2.817 2.36zm9.994 2.662c-.005-.307-.241-.303-.4-.3l-.533.01-.083-4.83.532-.01c.148-.003.396-.007.39-.303-.004-.306-.242-.302-.4-.3l-.948.017c-.198.004-.425.008-.567.356l-2.077 4.984-2.248-4.89c-.134-.294-.253-.361-.58-.357l-.947.018c-.158.002-.396.007-.39.313.005.296.252.292.4.29l.533-.01.084 4.83-.534.008c-.157.004-.394.007-.389.314.005.296.252.292.4.289l1.62-.028c.148-.002.395-.007.39-.303-.006-.307-.242-.302-.4-.3l-.534.01-.083-4.78h.01l2.239 4.87c.051.119.163.363.44.359.09-.001.296-.045.429-.353l2.067-4.967h.01l.083 4.78-.534.01c-.148.003-.394.007-.388.303.004.306.241.302.4.3l1.619-.029c.148-.003.395-.007.39-.303zm3.576-.063c-.006-.306-.242-.302-.4-.3l-.583.011-.083-4.83.581-.01c.148-.003.396-.007.391-.303-.005-.306-.242-.302-.4-.3l-1.847.033c-.158.003-.396.006-.39.313.005.296.252.292.4.29l.582-.01.084 4.829-.583.01c-.157.003-.394.007-.389.313.005.296.252.292.4.289l1.847-.032c.148-.003.395-.007.39-.303zm7.273-5.56c-.005-.306-.242-.302-.4-.3l-1.62.029c-.158.003-.395.007-.389.313.005.296.252.292.4.29l.533-.01.086 4.928h-.01l-3.073-5.142c-.204-.333-.421-.33-.628-.325l-.938.016c-.158.003-.395.006-.39.313.006.296.252.292.4.29l.533-.01.084 4.83-.533.008c-.158.004-.395.007-.39.313.005.297.252.293.4.29l1.62-.028c.148-.002.395-.007.39-.303-.006-.306-.242-.302-.4-.299l-.534.009-.085-4.928h.01l3.073 5.143c.203.332.42.328.628.325.316-.005.404-.067.397-.412l-.088-5.028.535-.009c.148-.002.394-.006.389-.303zm8.217 3.227c-.006-.307-.252-.303-.41-.3l-1.897.033c-.148.003-.395.007-.39.303.006.307.242.302.4.3l.87-.016c-.171.932-1.05 1.59-2.106 1.608-1.552.027-2.825-1.097-2.848-2.47-.025-1.373 1.19-2.55 2.8-2.578.523-.009 1.029.111 1.388.313.599.335.695.728.768 1.004.054.225.24.223.33.221.346-.006.342-.213.339-.41l-.023-1.374c-.004-.158-.008-.405-.304-.4-.187.003-.235.104-.303.252-.086.15-.084.17-.17.37-.411-.31-1.157-.594-2.105-.577-1.985.035-3.43 1.521-3.403 3.18.031 1.73 1.595 3.105 3.492 3.073 1.116-.02 1.848-.546 2.196-.909l.007.356c.004.198.007.405.353.4.335-.007.332-.224.329-.411l-.03-1.66.317-.006c.148-.001.404-.006.399-.302zM58.284 51.376c-.013-.79-.658-1.481-1.55-1.654l-1.466-.28c-.269-.055-.984-.308-.995-.922-.009-.493.536-.987 1.366-1.001 1.037-.018 1.48.498 1.62 1.167.033.168.066.316.352.31.345-.005.342-.214.339-.41l-.023-1.304c-.003-.158-.007-.405-.303-.4-.217.004-.236.074-.377.51-.52-.425-1.214-.483-1.609-.476-1.234.021-2.02.826-2.006 1.655.009.495.272.845.503 1.059.41.368.758.431 1.66.603l.426.082c.614.117.764.145 1.094.415 0 0 .32.271.329.696.008.533-.485 1.114-1.394 1.13-.543.01-1.049-.099-1.328-.253-.36-.21-.522-.455-.56-.899-.011-.138-.025-.326-.34-.32-.347.005-.342.214-.339.41l.023 1.304c.002.158.007.405.303.4.217-.004.245-.103.377-.48.58.405 1.4.45 1.865.441 1.313-.023 2.048-.924 2.033-1.783zm8.045-1.514c-.03-1.708-1.575-3.104-3.51-3.07-1.956.034-3.433 1.512-3.403 3.18.03 1.709 1.575 3.106 3.51 3.07 1.957-.032 3.432-1.51 3.403-3.18zm-.683-.106c.024 1.431-1.179 2.658-2.729 2.684-1.561.028-2.797-1.165-2.821-2.588-.023-1.314 1.182-2.431 2.732-2.457 1.552-.028 2.795 1.047 2.818 2.36zm8.752-.034c-.03-1.708-1.575-3.104-3.51-3.07-1.956.034-3.432 1.512-3.404 3.18.03 1.71 1.576 3.106 3.512 3.07 1.956-.032 3.431-1.51 3.402-3.18zm-.683-.106c.025 1.431-1.178 2.658-2.73 2.684-1.56.028-2.796-1.166-2.82-2.588-.024-1.314 1.182-2.431 2.733-2.458 1.551-.027 2.794 1.048 2.817 2.361zm8.172-2.74c-.006-.307-.242-.302-.401-.3l-1.62.029c-.158.002-.394.006-.388.313.004.296.251.29.4.29l.533-.01.085 4.928h-.01l-3.072-5.144c-.204-.331-.421-.328-.628-.324l-.939.016c-.158.003-.395.007-.389.313.005.296.252.292.4.29l.532-.01.084 4.83-.532.009c-.159.003-.396.007-.39.313.005.296.252.292.4.29l1.62-.029c.148-.002.394-.007.389-.303-.005-.306-.242-.302-.4-.3l-.533.01-.085-4.928h.01l3.072 5.143c.203.332.42.328.628.325.316-.006.404-.066.398-.412l-.087-5.027.533-.01c.148-.002.395-.006.39-.302z" aria-label="COMING SOON" font-size="9.878" font-family="'Latin Modern Mono Prop'" letter-spacing="0" word-spacing="0" text-anchor="middle" fill="#b16286" stroke-width=".265" stroke="#b16286"/><path d="M47.419 32.158l40.218-.698a3.891 3.891 0 013.967 3.833l.276 15.899a3.891 3.891 0 01-3.832 3.966l-40.218.698a3.891 3.891 0 01-3.967-3.831l-.276-15.9a3.891 3.891 0 013.832-3.966z" fill="none" stroke-linecap="round" stroke-linejoin="round" stroke="#b16286"/><path d="M0 57.15l2.831.661c2.805.662 8.467 1.985 14.102 3.043 5.636 1.058 11.298 1.852 16.934 1.376 5.635-.503 11.297-2.249 16.933-2.381 5.636-.133 11.298 1.35 16.934 1.137 5.635-.211 11.297-2.17 16.933-1.931 5.636.212 11.298 2.593 16.933 3.201 5.636.635 11.298-.529 16.934-1.084 5.635-.582 11.297-.582 14.102-.582h2.831V76.2H0z" fill="#b16286"/><path d="M0 63.5l2.831.397c2.805.397 8.467 1.19 14.102.661 5.636-.529 11.298-2.381 16.934-3.175 5.635-.793 11.297-.529 16.933.318 5.636.82 11.298 2.249 16.934 3.043 5.635.793 11.297.952 16.933.29 5.636-.66 11.298-2.143 16.933-2.804 5.636-.661 11.298-.503 16.934.397 5.635.873 11.297 2.46 14.102 3.254l2.831.794V76.2H0z" fill="#bc6e8d"/><path d="M0 69.056l2.831-.132c2.805-.132 8.467-.397 14.102-.926 5.636-.53 11.298-1.323 16.934-1.455 5.635-.133 11.297.397 16.933 1.005 5.636.635 11.298 1.323 16.934 1.323 5.635 0 11.297-.688 16.933-1.058 5.636-.344 11.298-.344 16.933.264 5.636.635 11.298 1.852 16.934 2.25 5.635.396 11.297-.027 14.102-.265l2.831-.212v6.35H0z" fill="#c87a94"/><path d="M0 73.29l2.831-.741c2.805-.768 8.467-2.25 14.102-2.17 5.636.08 11.298 1.773 16.934 1.773 5.635 0 11.297-1.693 16.933-2.434 5.636-.741 11.298-.582 16.934-.186 5.635.397 11.297 1.032 16.933 1.509 5.636.476 11.298.846 16.933 1.005 5.636.185 11.298.185 16.934-.423 5.635-.635 11.297-1.852 14.102-2.487l2.831-.609V76.2H0z" fill="#d3869b"/></svg>