<svg width="512" height="288" viewBox="0 0 135.467 76.2" xmlns:xlink="http://www.w3.org/1999/xlink" xmlns="http://www.w3.org/2000/svg"><defs><linearGradient id="a"><stop offset="0" stop-color="#f2e5bc"/><stop offset="1" stop-color="#7c6f64"/></linearGradient><linearGradient xlink:href="#a" id="b" x1="99.589" y1="65.917" x2="29.831" y2="-41.049" gradientUnits="userSpaceOnUse"/></defs><path fill="url(#b)" d="M0 0h135.467v76.2H0z"/><path d="M0 57.15l2.831.661c2.805.662 8.467 1.985 14.102 3.043 5.636 1.058 11.298 1.852 16.934 1.376 5.635-.503 11.297-2.249 16.933-2.381 5.636-.133 11.298 1.35 16.934 1.137 5.635-.211 11.297-2.17 16.933-1.931 5.636.212 11.298 2.593 16.933 3.201 5.636.635 11.298-.529 16.934-1.084 5.635-.582 11.297-.582 14.102-.582h2.831V76.2H0z" fill="#b16286"/><path d="M0 63.5l2.831.397c2.805.397 8.467 1.19 14.102.661 5.636-.529 11.298-2.381 16.934-3.175 5.635-.793 11.297-.529 16.933.318 5.636.82 11.298 2.249 16.934 3.043 5.635.793 11.297.952 16.933.29 5.636-.66 11.298-2.143 16.933-2.804 5.636-.661 11.298-.503 16.934.397 5.635.873 11.297 2.46 14.102 3.254l2.831.794V76.2H0z" fill="#bc6e8d"/><path d="M0 69.056l2.831-.132c2.805-.132 8.467-.397 14.102-.926 5.636-.53 11.298-1.323 16.934-1.455 5.635-.133 11.297.397 16.933 1.005 5.636.635 11.298 1.323 16.934 1.323 5.635 0 11.297-.688 16.933-1.058 5.636-.344 11.298-.344 16.933.264 5.636.635 11.298 1.852 16.934 2.25 5.635.396 11.297-.027 14.102-.265l2.831-.212v6.35H0z" fill="#c87a94"/><path d="M0 73.29l2.831-.741c2.805-.768 8.467-2.25 14.102-2.17 5.636.08 11.298 1.773 16.934 1.773 5.635 0 11.297-1.693 16.933-2.434 5.636-.741 11.298-.582 16.934-.186 5.635.397 11.297 1.032 16.933 1.509 5.636.476 11.298.846 16.933 1.005 5.636.185 11.298.185 16.934-.423 5.635-.635 11.297-1.852 14.102-2.487l2.831-.609V76.2H0z" fill="#d3869b"/></svg>