<svg width="512" height="288" viewBox="0 0 135.467 76.2" xmlns:xlink="http://www.w3.org/1999/xlink" xmlns="http://www.w3.org/2000/svg"><defs><linearGradient id="a"><stop offset="0" stop-color="#f2e5bc"/><stop offset="1" stop-color="#7c6f64"/></linearGradient><linearGradient xlink:href="#a" id="b" x1="99.589" y1="65.917" x2="29.831" y2="-41.049" gradientUnits="userSpaceOnUse"/></defs><path fill="url(#b)" d="M0 0h135.467v76.2H0z"/><path d="M0 59.531l2.064.08c2.09.105 6.217.264 10.319 1.11 4.1.848 8.175 2.33 12.276 1.403 4.101-.926 8.229-4.26 12.33-4.524 4.1-.265 8.175 2.54 12.277 2.937 4.1.397 8.228-1.614 12.33-2.382 4.1-.74 8.175-.211 12.276 1.244 4.1 1.455 8.228 3.836 12.33 3.836 4.1 0 8.175-2.38 12.276-2.698 4.101-.291 8.229 1.455 12.33 2.249 4.1.793 8.175.635 12.276 0 4.102-.609 8.229-1.667 10.32-2.196l2.063-.53V76.2H0z" fill="#458588"/><path d="M0 61.912l2.064.344c2.09.37 6.217 1.059 10.319 1.985 4.1.926 8.175 2.09 12.276 1.825 4.101-.264 8.229-1.957 12.33-2.434 4.1-.476 8.175.212 12.277.344 4.1.133 8.228-.29 12.33.397 4.1.714 8.175 2.567 12.276 3.096 4.1.529 8.228-.265 12.33-1.323 4.1-1.059 8.175-2.381 12.276-2.064 4.101.291 8.229 2.249 12.33 1.614 4.1-.609 8.175-3.784 12.276-4.498 4.102-.688 8.229 1.058 10.32 1.958l2.063.873V76.2H0z" fill="#5b908c"/><path d="M0 65.617l2.064-.318c2.09-.29 6.217-.926 10.319-.132 4.1.794 8.175 3.016 12.276 3.545 4.101.53 8.229-.635 12.33-1.376 4.1-.74 8.175-1.11 12.277-.873 4.1.212 8.228 1.006 12.33.688 4.1-.29 8.175-1.72 12.276-1.323 4.1.397 8.228 2.62 12.33 3.096 4.1.476 8.175-.74 12.276-1.932 4.101-1.19 8.229-2.354 12.33-1.984 4.1.344 8.175 2.196 12.276 3.466 4.102 1.297 8.229 1.985 10.32 2.355l2.063.344V76.2H0z" fill="#6f9a91"/><path d="M0 68.262h2.064c2.09 0 6.217 0 10.319.212 4.1.238 8.175.662 12.276 1.164 4.101.477 8.229 1.006 12.33.873 4.1-.132 8.175-.926 12.277-.793 4.1.132 8.228 1.19 12.33 1.667 4.1.502 8.175.396 12.276.661 4.1.265 8.228.9 12.33.979 4.1.08 8.175-.344 12.276-.45 4.101-.08 8.229.185 12.33-.211 4.1-.397 8.175-1.456 12.276-1.8 4.102-.37 8.229 0 10.32.16l2.063.184V76.2H0z" fill="#83a598"/></svg>