<svg width="512" height="288" viewBox="0 0 135.467 76.2" xmlns:xlink="http://www.w3.org/1999/xlink" xmlns="http://www.w3.org/2000/svg"><defs><linearGradient id="a"><stop offset="0" stop-color="#f2e5bc"/><stop offset="1" stop-color="#7c6f64"/></linearGradient><linearGradient xlink:href="#a" id="b" x1="99.589" y1="65.917" x2="29.831" y2="-41.049" gradientUnits="userSpaceOnUse"/></defs><path fill="url(#b)" d="M0 0h135.467v76.2H0z"/><path d="M52.476 39.535c-.015-.326-.252-.315-.36-.31-.1.005-.316.015-.323.302-.009.237-.021.614-.658.96-.367.204-.915.318-1.389.34-1.667.075-2.916-1.064-2.977-2.396-.06-1.332 1.1-2.572 2.727-2.646.523-.024 1.032.08 1.397.272.608.319.715.71.796.982.06.225.248.217.336.213.346-.016.336-.223.327-.42l-.062-1.372c-.008-.158-.019-.405-.315-.391-.187.008-.232.11-.294.26-.083.152-.082.172-.161.373-.42-.297-1.173-.56-2.12-.516-1.984.09-3.387 1.618-3.312 3.276.076 1.648 1.584 3.062 3.617 2.97 1.776-.082 2.817-.89 2.77-1.897zm8-1.72c-.078-1.707-1.663-3.06-3.597-2.97-1.953.089-3.387 1.608-3.311 3.276.078 1.707 1.662 3.058 3.596 2.97 1.954-.09 3.388-1.608 3.312-3.276zm-.687-.087c.066 1.43-1.103 2.69-2.652 2.76-1.56.072-2.828-1.086-2.893-2.507-.06-1.312 1.114-2.464 2.663-2.534 1.549-.071 2.823.968 2.882 2.28zm10.066 2.379c-.014-.307-.25-.296-.408-.29l-.533.026-.22-4.826.532-.024c.148-.007.395-.018.382-.314-.014-.306-.251-.295-.41-.288l-.946.043c-.198.01-.425.02-.557.372l-1.935 5.04-2.386-4.824c-.142-.29-.263-.354-.589-.34l-.947.044c-.158.007-.395.018-.381.324.014.296.26.285.408.278l.533-.024.22 4.825-.533.024c-.157.008-.394.018-.38.324.013.296.26.285.408.278l1.618-.074c.148-.006.395-.018.381-.314-.014-.306-.25-.295-.408-.288l-.533.025-.218-4.776h.01l2.375 4.805c.055.117.174.358.45.346.09-.004.295-.053.419-.365l1.926-5.023h.01l.218 4.776-.533.024c-.148.007-.394.018-.38.314.013.306.25.295.408.288l1.618-.074c.148-.007.395-.018.381-.314zm3.572-.164c-.014-.306-.25-.295-.408-.288l-.582.027-.22-4.825.581-.027c.148-.007.395-.018.382-.314-.014-.306-.251-.295-.409-.288l-1.845.084c-.158.008-.395.018-.381.324.014.296.26.285.408.278l.582-.026.22 4.825-.582.026c-.157.008-.394.019-.38.324.013.296.26.285.408.278l1.845-.084c.148-.007.395-.018.381-.314zm7.113-5.763c-.013-.306-.25-.295-.408-.288l-1.618.074c-.158.007-.395.018-.38.324.013.296.26.285.407.278l.533-.024.225 4.923h-.01l-3.217-5.053c-.213-.327-.43-.317-.637-.307l-.937.042c-.158.008-.395.018-.381.324.014.296.26.285.408.278l.533-.024.22 4.825-.533.024c-.157.008-.394.018-.38.324.013.296.26.285.408.278l1.618-.074c.148-.006.395-.018.381-.314-.014-.305-.25-.295-.408-.287l-.533.024-.225-4.924h.01l3.217 5.054c.213.326.43.316.637.307.316-.014.402-.078.386-.423l-.23-5.023.534-.024c.148-.007.394-.018.38-.314zm8.305 2.993c-.014-.306-.26-.295-.419-.288l-1.894.087c-.148.007-.395.018-.381.314.014.306.25.295.408.288l.869-.04c-.145.936-1.004 1.618-2.06 1.666-1.55.07-2.855-1.016-2.917-2.388-.063-1.372 1.118-2.582 2.726-2.656.523-.024 1.032.082 1.397.273.608.318.715.709.796.982.06.224.247.216.336.212.346-.016.336-.223.327-.42l-.062-1.372c-.008-.158-.019-.405-.315-.391-.187.008-.232.11-.295.26-.082.153-.08.172-.16.374-.42-.298-1.173-.56-2.12-.517-1.984.09-3.387 1.618-3.312 3.276.08 1.727 1.682 3.058 3.577 2.972 1.115-.051 1.832-.598 2.17-.97l.017.355c.009.198.018.405.364.39.335-.016.325-.233.317-.42l-.076-1.658.316-.015c.148-.006.404-.018.39-.314zM58.506 51.64c-.036-.79-.7-1.462-1.596-1.61l-1.474-.238c-.27-.047-.992-.28-1.02-.893-.023-.493.508-1.002 1.337-1.04 1.036-.047 1.494.456 1.653 1.12.037.168.074.315.36.3.345-.014.336-.222.327-.42l-.06-1.301c-.007-.158-.018-.405-.314-.391-.217.01-.234.08-.362.52-.533-.41-1.227-.448-1.622-.43-1.233.056-1.996.882-1.959 1.71.023.495.296.838.533 1.045.421.356.77.41 1.676.556l.429.07c.617.1.767.123 1.105.384 0 0 .328.262.348.686.024.533-.453 1.128-1.361 1.17-.543.025-1.051-.07-1.335-.216-.365-.2-.534-.44-.584-.883-.016-.138-.035-.325-.35-.31-.346.015-.336.223-.327.42l.06 1.302c.006.158.018.405.314.39.217-.01.242-.11.363-.49.591.389 1.413.41 1.877.389 1.312-.06 2.021-.982 1.982-1.84zm7.999-1.74c-.078-1.707-1.662-3.06-3.596-2.97-1.954.089-3.388 1.608-3.311 3.275.078 1.707 1.662 3.06 3.596 2.97 1.954-.088 3.387-1.607 3.311-3.275zm-.686-.087c.065 1.43-1.103 2.69-2.652 2.76-1.56.072-2.829-1.086-2.893-2.507-.06-1.313 1.113-2.464 2.662-2.534 1.55-.071 2.823.968 2.883 2.28zm8.748-.281c-.078-1.707-1.662-3.06-3.596-2.97-1.954.089-3.388 1.608-3.312 3.275.078 1.708 1.663 3.06 3.597 2.97 1.954-.088 3.387-1.607 3.311-3.275zm-.686-.087c.065 1.43-1.103 2.69-2.653 2.76-1.559.072-2.828-1.086-2.893-2.507-.06-1.313 1.114-2.464 2.663-2.534 1.55-.071 2.823.968 2.883 2.28zm8.091-2.97c-.014-.306-.25-.295-.409-.288l-1.618.074c-.158.007-.394.018-.38.324.013.296.26.284.408.278l.533-.025.224 4.924h-.01l-3.216-5.054c-.213-.326-.43-.316-.637-.307l-.938.043c-.158.007-.395.018-.38.324.013.296.26.285.408.278l.532-.024.22 4.825-.532.024c-.158.007-.395.018-.38.324.013.296.26.285.407.278l1.619-.074c.148-.006.394-.018.38-.314-.013-.306-.25-.295-.408-.288l-.533.025-.224-4.924h.01l3.216 5.054c.213.326.43.316.637.307.316-.015.402-.078.386-.423l-.229-5.023.533-.024c.148-.007.395-.018.381-.314z" aria-label="COMING SOON" font-size="9.878" font-family="'Latin Modern Mono Prop'" letter-spacing="0" word-spacing="0" text-anchor="middle" fill="#458588" stroke-width=".265" stroke="#458588"/><path d="M47.102 32.737l40.182-1.834a3.891 3.891 0 014.074 3.719l.725 15.885a3.891 3.891 0 01-3.718 4.073l-40.182 1.834a3.891 3.891 0 01-4.074-3.718l-.725-15.885a3.891 3.891 0 013.718-4.073z" fill="none" stroke-linecap="round" stroke-linejoin="round" stroke="#458588"/><path d="M0 59.531l2.064.08c2.09.105 6.217.264 10.319 1.11 4.1.848 8.175 2.33 12.276 1.403 4.101-.926 8.229-4.26 12.33-4.524 4.1-.265 8.175 2.54 12.277 2.937 4.1.397 8.228-1.614 12.33-2.382 4.1-.74 8.175-.211 12.276 1.244 4.1 1.455 8.228 3.836 12.33 3.836 4.1 0 8.175-2.38 12.276-2.698 4.101-.291 8.229 1.455 12.33 2.249 4.1.793 8.175.635 12.276 0 4.102-.609 8.229-1.667 10.32-2.196l2.063-.53V76.2H0z" fill="#458588"/><path d="M0 61.912l2.064.344c2.09.37 6.217 1.059 10.319 1.985 4.1.926 8.175 2.09 12.276 1.825 4.101-.264 8.229-1.957 12.33-2.434 4.1-.476 8.175.212 12.277.344 4.1.133 8.228-.29 12.33.397 4.1.714 8.175 2.567 12.276 3.096 4.1.529 8.228-.265 12.33-1.323 4.1-1.059 8.175-2.381 12.276-2.064 4.101.291 8.229 2.249 12.33 1.614 4.1-.609 8.175-3.784 12.276-4.498 4.102-.688 8.229 1.058 10.32 1.958l2.063.873V76.2H0z" fill="#5b908c"/><path d="M0 65.617l2.064-.318c2.09-.29 6.217-.926 10.319-.132 4.1.794 8.175 3.016 12.276 3.545 4.101.53 8.229-.635 12.33-1.376 4.1-.74 8.175-1.11 12.277-.873 4.1.212 8.228 1.006 12.33.688 4.1-.29 8.175-1.72 12.276-1.323 4.1.397 8.228 2.62 12.33 3.096 4.1.476 8.175-.74 12.276-1.932 4.101-1.19 8.229-2.354 12.33-1.984 4.1.344 8.175 2.196 12.276 3.466 4.102 1.297 8.229 1.985 10.32 2.355l2.063.344V76.2H0z" fill="#6f9a91"/><path d="M0 68.262h2.064c2.09 0 6.217 0 10.319.212 4.1.238 8.175.662 12.276 1.164 4.101.477 8.229 1.006 12.33.873 4.1-.132 8.175-.926 12.277-.793 4.1.132 8.228 1.19 12.33 1.667 4.1.502 8.175.396 12.276.661 4.1.265 8.228.9 12.33.979 4.1.08 8.175-.344 12.276-.45 4.101-.08 8.229.185 12.33-.211 4.1-.397 8.175-1.456 12.276-1.8 4.102-.37 8.229 0 10.32.16l2.063.184V76.2H0z" fill="#83a598"/></svg>