<svg width="512" height="288" viewBox="0 0 135.467 76.2" xmlns:xlink="http://www.w3.org/1999/xlink" xmlns="http://www.w3.org/2000/svg"><defs><linearGradient id="a"><stop offset="0" stop-color="#f2e5bc"/><stop offset="1" stop-color="#7c6f64"/></linearGradient><linearGradient xlink:href="#a" id="b" x1="99.589" y1="65.917" x2="29.831" y2="-41.049" gradientUnits="userSpaceOnUse"/></defs><path fill="url(#b)" d="M0 0h135.467v76.2H0z"/><path d="M0 58.473l2.514.317c2.513.291 7.54.926 12.567 1.456 5.027.529 10.054.952 15.082.555 5.027-.397 10.054-1.614 15.08-1.402 5.028.212 10.055 1.905 15.03 2.725 5 .847 9.921.847 14.922.45 4.974-.397 10.001-1.19 15.028-2.064 5.027-.9 10.054-1.852 15.081-2.09 5.028-.212 10.055.317 15.082.661 5.027.37 10.054.53 12.567.635l2.514.08V76.2H0z" fill="#98971a"/><path d="M0 62.97l2.514-.21c2.513-.239 7.54-.662 12.567-.583 5.027.08 10.054.714 15.082 1.058 5.027.344 10.054.45 15.08.662 5.028.211 10.055.582 15.03 1.058 5 .476 9.921 1.111 14.922 1.058 4.974-.052 10.001-.74 15.028-1.19 5.027-.45 10.054-.609 15.081-.741 5.028-.132 10.055-.238 15.082.212 5.027.45 10.054 1.402 12.567 1.905l2.514.476V76.2H0z" fill="#a3a31e"/><path d="M0 66.94l2.514-.053c2.513-.027 7.54-.133 12.567-.08 5.027.053 10.054.212 15.082.476 5.027.265 10.054.635 15.08.37 5.028-.264 10.055-1.163 15.03-1.163 5 0 9.921.9 14.922 1.19 4.974.318 10.001.053 15.028-.211 5.027-.265 10.054-.53 15.081-.53 5.028 0 10.055.265 15.082.715 5.027.423 10.054 1.058 12.567 1.35l2.514.317V76.2H0z" fill="#adaf22"/><path d="M0 72.496l2.514-.185c2.513-.16 7.54-.53 12.567-.477 5.027.053 10.054.477 15.082.582 5.027.08 10.054-.185 15.08-.238 5.028-.026 10.055.133 15.03.265 5 .132 9.921.238 14.922.106 4.974-.133 10.001-.503 15.028-.98 5.027-.476 10.054-1.11 15.081-1.005 5.028.08 10.055.873 15.082.82 5.027-.026 10.054-.925 12.567-1.349l2.514-.45V76.2H0z" fill="#b8bb26"/></svg>