<svg width="512" height="288" viewBox="0 0 135.467 76.2" xmlns:xlink="http://www.w3.org/1999/xlink" xmlns="http://www.w3.org/2000/svg"><defs><linearGradient id="a"><stop offset="0" stop-color="#f2e5bc"/><stop offset="1" stop-color="#7c6f64"/></linearGradient><linearGradient xlink:href="#a" id="b" x1="99.589" y1="65.917" x2="29.831" y2="-41.049" gradientUnits="userSpaceOnUse"/></defs><path fill="url(#b)" d="M0 0h135.467v76.2H0z"/><path d="M52.623 39.026c-.004-.326-.242-.323-.35-.322-.1.002-.316.005-.333.291-.017.237-.041.613-.69.938-.373.191-.925.287-1.4.293-1.668.019-2.878-1.161-2.894-2.494-.016-1.334 1.185-2.534 2.814-2.554.523-.006 1.029.116 1.387.319.597.34.69.734.763 1.008.052.227.24.225.328.224.347-.004.344-.211.341-.409l-.016-1.373c-.003-.158-.005-.405-.302-.401-.187.001-.235.102-.302.25-.088.149-.088.169-.174.367-.41-.31-1.153-.599-2.101-.587-1.986.024-3.44 1.504-3.42 3.164.02 1.65 1.48 3.113 3.516 3.09 1.777-.023 2.845-.796 2.832-1.804zm8.053-1.451c-.021-1.709-1.56-3.113-3.496-3.089-1.955.024-3.439 1.494-3.419 3.163.021 1.709 1.559 3.112 3.495 3.09 1.956-.025 3.44-1.495 3.42-3.164zm-.684-.11c.018 1.431-1.193 2.651-2.743 2.67-1.562.02-2.79-1.18-2.807-2.603-.016-1.313 1.195-2.425 2.746-2.443 1.55-.02 2.789 1.062 2.804 2.375zm9.98 2.715c-.003-.308-.24-.305-.397-.303l-.534.007-.058-4.83.532-.007c.148-.002.396-.004.393-.3-.004-.307-.241-.304-.4-.302l-.947.011c-.199.004-.426.006-.57.353l-2.102 4.974-2.223-4.903c-.133-.294-.251-.362-.578-.36l-.948.013c-.158.002-.395.005-.391.311.004.297.25.294.398.292l.534-.006.058 4.83-.534.005c-.157.003-.394.005-.39.312.003.296.25.293.398.291l1.62-.02c.148 0 .395-.005.391-.3-.004-.307-.24-.304-.398-.302l-.534.007-.057-4.78h.01l2.212 4.881c.051.12.162.364.439.361.09 0 .296-.043.43-.35l2.094-4.956h.01l.058 4.78-.534.007c-.148.002-.394.005-.39.3.003.307.24.304.398.302l1.62-.02c.148-.001.395-.004.39-.3zm3.576-.045c-.004-.306-.24-.303-.398-.301l-.583.007-.058-4.83.582-.007c.148-.002.395-.005.392-.3-.004-.307-.241-.304-.4-.302l-1.846.022c-.158.003-.395.005-.392.31.005.297.25.294.399.292l.582-.006.059 4.83-.583.006c-.157.003-.394.006-.39.311.003.296.25.294.398.292l1.847-.023c.148-.002.395-.004.391-.3zm7.302-5.521c-.003-.306-.24-.303-.398-.302l-1.62.02c-.158.002-.395.005-.39.311.003.296.25.294.397.292l.534-.006.06 4.927h-.01l-3.046-5.158c-.202-.334-.42-.331-.627-.328l-.937.01c-.159.003-.396.005-.392.312.004.296.25.293.398.291l.534-.006.058 4.83-.533.006c-.158.003-.395.005-.391.31.003.297.25.294.398.292l1.62-.02c.148 0 .395-.004.391-.3-.003-.306-.24-.304-.398-.301l-.533.006-.06-4.929h.01l3.046 5.16c.202.333.419.33.626.328.316-.004.404-.065.4-.41l-.062-5.028.535-.006c.148-.002.394-.005.39-.301zm8.2 3.27c-.003-.307-.25-.304-.409-.303l-1.896.024c-.148.002-.395.005-.391.301.004.306.24.303.398.301l.87-.01c-.176.93-1.058 1.583-2.115 1.596-1.551.019-2.82-1.111-2.835-2.485-.017-1.373 1.204-2.543 2.813-2.563.524-.006 1.029.117 1.387.32.597.338.691.732.763 1.008.053.226.24.224.329.223.346-.004.343-.212.34-.409l-.015-1.373c-.003-.158-.006-.406-.302-.401-.187.001-.236.102-.304.25-.087.15-.085.169-.172.368-.41-.312-1.154-.599-2.102-.588-1.985.025-3.439 1.504-3.42 3.163.023 1.73 1.58 3.113 3.476 3.09 1.116-.013 1.851-.536 2.201-.896l.005.355c.003.198.005.406.351.402.336-.005.333-.222.331-.409l-.02-1.66.316-.004c.148-.001.404-.005.4-.3zM58.244 51.325c-.01-.79-.65-1.484-1.541-1.661l-1.466-.289c-.268-.056-.982-.313-.99-.926-.006-.494.542-.985 1.372-.995 1.037-.012 1.478.506 1.614 1.176.032.168.064.316.35.312.346-.004.344-.212.341-.41l-.016-1.302c-.002-.159-.005-.406-.301-.402-.217.003-.237.072-.38.508-.518-.428-1.21-.489-1.606-.484-1.234.014-2.024.814-2.015 1.644.006.495.268.847.498 1.062.409.37.756.435 1.656.611l.427.085c.613.12.762.148 1.091.42 0 0 .32.273.325.698.006.533-.49 1.112-1.4 1.123-.543.007-1.048-.105-1.327-.26-.358-.212-.519-.458-.554-.902-.011-.139-.024-.326-.34-.322-.345.004-.342.212-.34.41l.016 1.302c.001.158.005.406.301.402.217-.003.246-.102.38-.478.577.408 1.398.457 1.862.45 1.314-.015 2.053-.913 2.043-1.772zm8.053-1.471c-.021-1.709-1.56-3.113-3.495-3.089-1.956.024-3.44 1.494-3.419 3.163.021 1.708 1.559 3.113 3.495 3.088 1.956-.022 3.439-1.492 3.419-3.162zm-.683-.11c.017 1.431-1.193 2.652-2.743 2.67-1.562.02-2.791-1.18-2.807-2.603-.016-1.314 1.194-2.425 2.745-2.443 1.551-.02 2.789 1.062 2.805 2.375zm8.752.012c-.02-1.708-1.558-3.113-3.494-3.089-1.956.024-3.44 1.494-3.42 3.163.02 1.71 1.56 3.114 3.496 3.088 1.955-.022 3.438-1.492 3.418-3.162zm-.682-.11c.017 1.432-1.193 2.652-2.744 2.67-1.56.02-2.79-1.18-2.808-2.603-.016-1.314 1.196-2.425 2.747-2.443 1.551-.02 2.789 1.062 2.805 2.375zm8.186-2.697c-.004-.306-.24-.303-.4-.302l-1.62.02c-.157.002-.393.005-.39.311.003.296.25.293.399.292l.533-.007.06 4.928h-.01l-3.046-5.159c-.202-.333-.419-.33-.626-.328l-.939.012c-.158.001-.395.004-.39.31.002.297.25.294.398.292l.532-.006.059 4.83-.533.006c-.158.002-.395.005-.39.31.003.297.25.294.397.292l1.62-.02c.149 0 .395-.004.39-.3-.002-.307-.24-.304-.397-.302l-.534.007-.059-4.929h.01l3.045 5.16c.202.333.42.33.627.328.316-.005.404-.065.4-.41l-.061-5.028.533-.006c.148-.002.396-.005.392-.301z" aria-label="COMING SOON" font-size="9.878" font-family="'Latin Modern Mono Prop'" letter-spacing="0" word-spacing="0" text-anchor="middle" fill="#d79921" stroke-width=".265" stroke="#d79921"/><path d="M47.48 32.052l40.22-.488a3.891 3.891 0 013.947 3.854l.193 15.9a3.891 3.891 0 01-3.852 3.946l-40.221.488a3.891 3.891 0 01-3.947-3.853L43.627 36a3.891 3.891 0 013.852-3.946z" fill="none" stroke-linecap="round" stroke-linejoin="round" stroke="#d79921"/><path d="M0 59.796l2.249.185c2.249.159 6.747.53 11.245.423 4.498-.08 8.996-.608 13.546-.529 4.525.106 9.129.794 13.653.265 4.55-.53 9.049-2.276 13.547-1.985 4.498.318 8.996 2.7 13.493 2.752 4.498.027 8.996-2.249 13.494-3.175 4.498-.926 8.996-.503 13.547-.265 4.524.212 9.128.212 13.653 1.191 4.55.953 9.048 2.91 13.546 3.44 4.498.529 8.996-.37 11.245-.794l2.249-.45V76.2H0z" fill="#d79921"/><path d="M0 64.823l2.249-.397c2.249-.397 6.747-1.19 11.245-1.587 4.498-.397 8.996-.397 13.546.185 4.525.555 9.129 1.72 13.653 2.01 4.55.318 9.049-.211 13.547-.529 4.498-.29 8.996-.396 13.493-.29 4.498.079 8.996.343 13.494.793 4.498.423 8.996 1.058 13.547.873 4.524-.185 9.128-1.137 13.653-2.196 4.55-1.058 9.048-2.222 13.546-1.984 4.498.211 8.996 1.799 11.245 2.593l2.249.793V76.2H0z" fill="#e3a526"/><path d="M0 69.32l2.249-.264c2.249-.264 6.747-.794 11.245-.846 4.498-.027 8.996.396 13.546.502 4.525.08 9.129-.185 13.653-.926 4.55-.767 9.049-1.984 13.547-1.772 4.498.211 8.996 1.905 13.493 2.91 4.498 1.005 8.996 1.376 13.494.794 4.498-.582 8.996-2.064 13.547-2.778 4.524-.715 9.128-.609 13.653.132 4.55.74 9.048 2.17 13.546 2.037 4.498-.132 8.996-1.825 11.245-2.646l2.249-.846V76.2H0z" fill="#efb12a"/><path d="M0 72.76l2.249-.211c2.249-.238 6.747-.662 11.245-.768 4.498-.079 8.996.186 13.546.397 4.525.238 9.129.397 13.653.582 4.55.186 9.049.344 13.547-.132 4.498-.476 8.996-1.64 13.493-2.434 4.498-.794 8.996-1.217 13.494-1.402 4.498-.186 8.996-.08 13.547.344 4.524.45 9.128 1.243 13.653 1.243 4.55 0 9.048-.794 13.546-.582 4.498.238 8.996 1.455 11.245 2.09l2.249.609V76.2H0z" fill="#fabd2f"/></svg>