<svg width="512" height="288" viewBox="0 0 135.467 76.2" xmlns:xlink="http://www.w3.org/1999/xlink" xmlns="http://www.w3.org/2000/svg"><defs><linearGradient id="a"><stop offset="0" stop-color="#f2e5bc"/><stop offset="1" stop-color="#7c6f64"/></linearGradient><linearGradient xlink:href="#a" id="b" x1="99.589" y1="65.917" x2="29.831" y2="-41.049" gradientUnits="userSpaceOnUse"/></defs><path fill="url(#b)" d="M0 0h135.467v76.2H0z"/><path d="M0 59.531l3.757.715c3.73.687 11.245 2.116 18.786 2.46 7.54.344 15.107-.344 22.648-.926 7.54-.582 15.055-1.005 22.543-2.117 7.487-1.11 15.001-2.857 22.542-1.931 7.54.926 15.108 4.524 22.648 4.63 7.541.08 15.055-3.36 18.786-5.08l3.757-1.72V76.2H0z" fill="#cc241d"/><path d="M0 60.325l3.757.265c3.73.264 11.245.793 18.786 1.322 7.54.53 15.107 1.059 22.648.98 7.54-.106 15.055-.794 22.543-.106 7.487.714 15.001 2.83 22.542 3.148 7.54.291 15.108-1.19 22.648-1.773 7.541-.582 15.055-.211 18.786-.052l3.757.185V76.2H0z" fill="#db3124"/><path d="M0 67.733l3.757.053c3.73.027 11.245.132 18.786 0 7.54-.132 15.107-.503 22.648-.264 7.54.211 15.055 1.005 22.543.873 7.487-.133 15.001-1.19 22.542-2.17 7.54-.952 15.108-1.852 22.648-1.984 7.541-.133 15.055.502 18.786.794l3.757.317V76.2H0z" fill="#eb3d2c"/><path d="M0 71.173l3.757-.476c3.73-.503 11.245-1.456 18.786-1.059 7.54.397 15.107 2.143 22.648 2.514 7.54.344 15.055-.715 22.543-1.429 7.487-.688 15.001-1.058 22.542-.74 7.54.317 15.108 1.27 22.648 1.719 7.541.45 15.055.344 18.786.318l3.757-.053V76.2H0z" fill="#fb4934"/></svg>