<svg width="512" height="288" viewBox="0 0 135.467 76.2" xmlns:xlink="http://www.w3.org/1999/xlink" xmlns="http://www.w3.org/2000/svg"><defs><linearGradient id="a"><stop offset="0" stop-color="#f2e5bc"/><stop offset="1" stop-color="#7c6f64"/></linearGradient><linearGradient xlink:href="#a" id="b" x1="99.589" y1="65.917" x2="29.831" y2="-41.049" gradientUnits="userSpaceOnUse"/></defs><path fill="url(#b)" d="M0 0h135.467v76.2H0z"/><path d="M52.876 38.267c.013-.326-.224-.335-.332-.34-.1-.003-.316-.01-.347.275-.03.235-.073.61-.737.9-.383.173-.938.24-1.412.223-1.668-.065-2.817-1.305-2.766-2.638.053-1.332 1.313-2.47 2.94-2.407.523.02 1.022.167 1.37.388.578.37.652.768.71 1.046.04.229.229.237.317.24.346.013.353-.194.361-.39l.054-1.373c.005-.158.015-.405-.281-.416-.187-.008-.24.09-.315.234-.096.145-.096.165-.192.358-.394-.331-1.122-.656-2.07-.692-1.984-.077-3.51 1.328-3.575 2.986-.063 1.649 1.321 3.184 3.355 3.263 1.776.068 2.882-.65 2.92-1.657zm8.117-1.042c.065-1.707-1.4-3.188-3.335-3.261-1.954-.076-3.51 1.317-3.575 2.986-.065 1.707 1.4 3.187 3.334 3.261 1.955.075 3.511-1.317 3.576-2.986zm-.678-.144c-.054 1.43-1.325 2.588-2.874 2.528-1.56-.06-2.727-1.32-2.672-2.742.05-1.312 1.317-2.362 2.866-2.301 1.55.06 2.732 1.202 2.68 2.514zm9.83 3.216c.013-.307-.223-.315-.381-.322l-.534-.02.187-4.827.532.02c.148.006.395.016.407-.28.012-.306-.225-.315-.384-.322l-.947-.036c-.198-.007-.425-.016-.586.324l-2.352 4.86-1.972-5.008c-.117-.301-.232-.375-.558-.388l-.948-.036c-.158-.007-.395-.015-.406.29-.011.297.235.306.383.312l.533.02-.186 4.827-.533-.02c-.158-.006-.395-.016-.406.29-.012.296.235.306.383.312l1.618.062c.148.006.395.015.406-.281.012-.306-.224-.315-.382-.321l-.533-.02.184-4.778.01.001 1.963 4.988c.045.121.143.371.42.382.09.004.297-.028.447-.328l2.342-4.844.01.001-.185 4.778-.533-.021c-.148-.006-.394-.015-.405.28-.012.307.225.316.383.322l1.618.062c.148.006.395.016.406-.28zm3.574.137c.012-.306-.224-.315-.382-.321l-.583-.022.187-4.826.581.021c.148.006.395.016.407-.28.012-.306-.225-.315-.383-.322l-1.846-.071c-.158-.005-.395-.015-.407.29-.01.297.235.307.383.312l.583.023-.187 4.827-.582-.023c-.157-.006-.394-.015-.406.29-.012.297.235.306.383.312l1.846.071c.148.006.395.015.406-.28zm7.572-5.145c.013-.306-.224-.315-.382-.32l-1.619-.063c-.158-.006-.395-.015-.406.29-.011.297.236.307.383.312l.533.02-.19 4.925h-.01l-2.78-5.306c-.185-.344-.403-.352-.61-.36l-.937-.036c-.158-.006-.395-.015-.407.29-.01.297.235.306.383.312l.534.02-.187 4.827-.533-.02c-.157-.006-.394-.016-.406.29-.012.296.235.306.383.312l1.619.062c.148.006.395.015.406-.281.012-.305-.224-.315-.382-.32l-.534-.021.19-4.926.01.001 2.781 5.307c.185.342.402.35.609.359.316.013.407-.044.42-.389l.193-5.025.534.021c.148.006.394.016.405-.28zm8.024 3.68c.012-.305-.234-.315-.393-.321l-1.895-.073c-.148-.005-.395-.015-.406.281-.011.306.225.315.383.321l.869.033c-.223.92-1.136 1.528-2.193 1.487-1.55-.06-2.76-1.252-2.706-2.624.053-1.373 1.331-2.48 2.94-2.418.523.02 1.021.169 1.369.39.579.368.653.766.71 1.045.042.228.229.236.318.24.346.013.353-.194.36-.391l.054-1.373c.006-.158.015-.405-.28-.416-.188-.008-.241.09-.317.234-.094.146-.094.165-.19.36-.394-.333-1.122-.657-2.07-.694-1.984-.076-3.51 1.328-3.575 2.986-.066 1.728 1.419 3.189 3.314 3.262 1.116.043 1.876-.442 2.244-.784l-.013.355c-.007.198-.016.405.33.42.336.012.344-.205.352-.392l.063-1.659.316.012c.148.006.404.016.415-.28zM57.868 50.837c.03-.79-.575-1.516-1.455-1.738l-1.449-.362c-.265-.07-.965-.362-.941-.975.018-.493.59-.956 1.42-.924 1.036.04 1.45.58 1.552 1.256.023.17.048.319.334.33.345.013.353-.195.36-.392l.05-1.302c.007-.158.017-.405-.28-.416-.217-.009-.24.06-.404.487-.497-.453-1.185-.55-1.58-.564-1.233-.048-2.063.71-2.096 1.54-.018.494.225.859.443 1.085.39.39.733.473 1.624.695l.421.106c.607.151.754.187 1.07.475 0 0 .304.289.288.713-.02.533-.546 1.086-1.454 1.051-.543-.02-1.042-.158-1.312-.327-.347-.23-.495-.483-.508-.929-.004-.139-.008-.327-.323-.338-.346-.014-.353.194-.36.39L53.217 52c-.008.158-.017.405.28.416.217.009.25-.089.402-.458.557.437 1.374.528 1.838.545 1.313.05 2.097-.809 2.13-1.667zm8.117-1.062c.065-1.707-1.4-3.188-3.334-3.261-1.955-.076-3.511 1.317-3.574 2.985-.066 1.707 1.398 3.189 3.333 3.261 1.955.077 3.51-1.316 3.575-2.985zm-.677-.144c-.055 1.43-1.325 2.588-2.874 2.527-1.56-.059-2.728-1.32-2.672-2.74.05-1.314 1.316-2.363 2.865-2.302 1.55.06 2.732 1.202 2.682 2.514zm8.741.455c.066-1.707-1.399-3.188-3.334-3.262-1.954-.075-3.51 1.318-3.575 2.986-.066 1.708 1.4 3.188 3.335 3.261 1.954.077 3.51-1.316 3.574-2.985zm-.676-.144c-.056 1.43-1.325 2.588-2.876 2.527-1.56-.06-2.726-1.32-2.672-2.741.05-1.314 1.317-2.362 2.867-2.301 1.55.06 2.731 1.201 2.681 2.514zm8.312-2.28c.012-.306-.224-.315-.383-.321l-1.619-.062c-.158-.007-.394-.016-.406.29-.012.297.235.305.383.312l.534.02-.191 4.925h-.01l-2.78-5.307c-.185-.343-.402-.351-.609-.36l-.938-.035c-.158-.007-.395-.016-.406.29-.012.297.235.306.383.312l.532.02-.186 4.827-.532-.02c-.158-.007-.395-.016-.406.29-.012.296.235.306.382.311l1.62.063c.148.006.394.015.405-.281.012-.306-.225-.315-.383-.322l-.533-.02.19-4.925.01.001 2.78 5.306c.185.343.403.351.61.36.316.011.407-.044.42-.39l.194-5.024.533.021c.148.006.395.015.406-.28z" aria-label="COMING SOON" font-size="9.878" font-family="'Latin Modern Mono Prop'" letter-spacing="0" word-spacing="0" text-anchor="middle" fill="#cc241d" stroke-width=".265" stroke="#cc241d"/><path d="M48.093 31.041l40.194 1.55a3.891 3.891 0 013.747 4.048l-.613 15.89a3.891 3.891 0 01-4.047 3.746l-40.194-1.55a3.891 3.891 0 01-3.747-4.047l.613-15.89a3.891 3.891 0 014.047-3.746z" fill="none" stroke-linecap="round" stroke-linejoin="round" stroke="#cc241d"/><path d="M0 59.531l3.757.715c3.73.687 11.245 2.116 18.786 2.46 7.54.344 15.107-.344 22.648-.926 7.54-.582 15.055-1.005 22.543-2.117 7.487-1.11 15.001-2.857 22.542-1.931 7.54.926 15.108 4.524 22.648 4.63 7.541.08 15.055-3.36 18.786-5.08l3.757-1.72V76.2H0z" fill="#cc241d"/><path d="M0 60.325l3.757.265c3.73.264 11.245.793 18.786 1.322 7.54.53 15.107 1.059 22.648.98 7.54-.106 15.055-.794 22.543-.106 7.487.714 15.001 2.83 22.542 3.148 7.54.291 15.108-1.19 22.648-1.773 7.541-.582 15.055-.211 18.786-.052l3.757.185V76.2H0z" fill="#db3124"/><path d="M0 67.733l3.757.053c3.73.027 11.245.132 18.786 0 7.54-.132 15.107-.503 22.648-.264 7.54.211 15.055 1.005 22.543.873 7.487-.133 15.001-1.19 22.542-2.17 7.54-.952 15.108-1.852 22.648-1.984 7.541-.133 15.055.502 18.786.794l3.757.317V76.2H0z" fill="#eb3d2c"/><path d="M0 71.173l3.757-.476c3.73-.503 11.245-1.456 18.786-1.059 7.54.397 15.107 2.143 22.648 2.514 7.54.344 15.055-.715 22.543-1.429 7.487-.688 15.001-1.058 22.542-.74 7.54.317 15.108 1.27 22.648 1.719 7.541.45 15.055.344 18.786.318l3.757-.053V76.2H0z" fill="#fb4934"/></svg>