<svg width="512" height="288" viewBox="0 0 135.467 76.2" xmlns:xlink="http://www.w3.org/1999/xlink" xmlns="http://www.w3.org/2000/svg"><defs><linearGradient id="a"><stop offset="0" stop-color="#f2e5bc"/><stop offset="1" stop-color="#7c6f64"/></linearGradient><linearGradient xlink:href="#a" id="b" x1="99.589" y1="65.917" x2="29.831" y2="-41.049" gradientUnits="userSpaceOnUse"/></defs><path fill="url(#b)" d="M0 0h135.467v76.2H0z"/><path d="M0 59.796l2.249.185c2.249.159 6.747.53 11.245.423 4.498-.08 8.996-.608 13.546-.529 4.525.106 9.129.794 13.653.265 4.55-.53 9.049-2.276 13.547-1.985 4.498.318 8.996 2.7 13.493 2.752 4.498.027 8.996-2.249 13.494-3.175 4.498-.926 8.996-.503 13.547-.265 4.524.212 9.128.212 13.653 1.191 4.55.953 9.048 2.91 13.546 3.44 4.498.529 8.996-.37 11.245-.794l2.249-.45V76.2H0z" fill="#d79921"/><path d="M0 64.823l2.249-.397c2.249-.397 6.747-1.19 11.245-1.587 4.498-.397 8.996-.397 13.546.185 4.525.555 9.129 1.72 13.653 2.01 4.55.318 9.049-.211 13.547-.529 4.498-.29 8.996-.396 13.493-.29 4.498.079 8.996.343 13.494.793 4.498.423 8.996 1.058 13.547.873 4.524-.185 9.128-1.137 13.653-2.196 4.55-1.058 9.048-2.222 13.546-1.984 4.498.211 8.996 1.799 11.245 2.593l2.249.793V76.2H0z" fill="#e3a526"/><path d="M0 69.32l2.249-.264c2.249-.264 6.747-.794 11.245-.846 4.498-.027 8.996.396 13.546.502 4.525.08 9.129-.185 13.653-.926 4.55-.767 9.049-1.984 13.547-1.772 4.498.211 8.996 1.905 13.493 2.91 4.498 1.005 8.996 1.376 13.494.794 4.498-.582 8.996-2.064 13.547-2.778 4.524-.715 9.128-.609 13.653.132 4.55.74 9.048 2.17 13.546 2.037 4.498-.132 8.996-1.825 11.245-2.646l2.249-.846V76.2H0z" fill="#efb12a"/><path d="M0 72.76l2.249-.211c2.249-.238 6.747-.662 11.245-.768 4.498-.079 8.996.186 13.546.397 4.525.238 9.129.397 13.653.582 4.55.186 9.049.344 13.547-.132 4.498-.476 8.996-1.64 13.493-2.434 4.498-.794 8.996-1.217 13.494-1.402 4.498-.186 8.996-.08 13.547.344 4.524.45 9.128 1.243 13.653 1.243 4.55 0 9.048-.794 13.546-.582 4.498.238 8.996 1.455 11.245 2.09l2.249.609V76.2H0z" fill="#fabd2f"/></svg>