<svg width="512" height="288" viewBox="0 0 135.467 76.2" xmlns:xlink="http://www.w3.org/1999/xlink" xmlns="http://www.w3.org/2000/svg"><defs><linearGradient id="a"><stop offset="0" stop-color="#f2e5bc"/><stop offset="1" stop-color="#7c6f64"/></linearGradient><linearGradient xlink:href="#a" id="b" x1="99.589" y1="65.917" x2="29.831" y2="-41.049" gradientUnits="userSpaceOnUse"/></defs><path fill="url(#b)" d="M0 0h135.467v76.2H0z"/><path d="M52.6 39.1c-.006-.326-.243-.322-.351-.32-.1.002-.316.006-.332.293-.015.236-.038.613-.685.94-.372.194-.923.292-1.398.3-1.668.028-2.884-1.147-2.907-2.48-.022-1.333 1.173-2.54 2.801-2.567.524-.009 1.03.11 1.39.312.598.336.693.73.767 1.005.053.226.241.224.33.222.346-.006.342-.213.338-.41l-.022-1.374c-.004-.158-.008-.405-.304-.4-.187.003-.235.104-.301.252-.088.15-.087.17-.172.368-.411-.309-1.157-.593-2.104-.576-1.986.033-3.432 1.52-3.405 3.18.03 1.65 1.496 3.106 3.53 3.072 1.778-.031 2.842-.81 2.824-1.817zm8.046-1.49c-.03-1.709-1.575-3.106-3.51-3.072-1.955.033-3.432 1.51-3.404 3.18.03 1.708 1.574 3.104 3.51 3.071 1.955-.034 3.432-1.51 3.404-3.18zm-.684-.107c.025 1.431-1.18 2.657-2.73 2.684-1.562.026-2.796-1.167-2.82-2.59-.023-1.313 1.184-2.43 2.734-2.457 1.55-.026 2.794 1.049 2.816 2.362zm9.994 2.666c-.006-.308-.242-.303-.4-.3l-.534.009-.081-4.83.532-.01c.148-.002.395-.006.39-.302-.004-.306-.242-.302-.4-.3l-.948.016c-.198.005-.425.008-.567.356l-2.078 4.984-2.247-4.892c-.134-.293-.253-.36-.58-.356l-.947.017c-.158.002-.396.006-.39.313.005.296.251.292.4.29l.533-.01.082 4.83-.534.009c-.157.003-.394.006-.389.313.005.296.252.292.4.29l1.62-.029c.148-.001.395-.006.39-.303-.006-.306-.242-.302-.4-.3l-.534.01-.081-4.78h.01l2.237 4.872c.051.118.163.362.44.358.09-.001.296-.044.429-.353l2.069-4.965h.01l.081 4.78-.533.009c-.149.003-.395.007-.39.303.005.306.242.302.4.3l1.62-.028c.148-.003.395-.007.39-.303zm3.575-.062c-.005-.306-.242-.302-.4-.3l-.582.01-.082-4.829.581-.01c.148-.003.396-.007.391-.303-.005-.306-.242-.302-.4-.3l-1.847.032c-.158.003-.396.006-.39.313.005.296.251.292.4.29l.582-.01.082 4.83-.582.009c-.158.003-.395.007-.39.313.005.296.252.292.4.29l1.847-.032c.148-.003.395-.007.39-.303zm7.275-5.557c-.005-.307-.242-.302-.4-.3l-1.62.028c-.158.002-.395.007-.389.313.005.296.252.292.4.29l.533-.01.084 4.928h-.01l-3.071-5.143c-.204-.333-.421-.33-.628-.325l-.938.015c-.158.004-.395.007-.39.313.005.296.252.292.4.29l.533-.01.082 4.83-.533.009c-.157.003-.395.007-.39.313.005.296.252.292.4.29l1.62-.028c.148-.002.395-.007.39-.303-.006-.306-.242-.302-.4-.299l-.533.009-.084-4.929h.01l3.07 5.145c.204.332.422.328.629.325.316-.005.404-.067.398-.412l-.087-5.028.535-.008c.148-.003.394-.007.389-.303zm8.216 3.229c-.006-.306-.252-.302-.41-.3l-1.897.033c-.148.003-.395.007-.39.303.006.306.242.302.4.3l.87-.016c-.172.932-1.05 1.589-2.107 1.607-1.551.026-2.825-1.097-2.847-2.47-.024-1.374 1.191-2.55 2.8-2.578.524-.009 1.03.112 1.39.313.598.335.693.73.767 1.005.053.225.24.223.33.221.346-.006.342-.213.338-.41l-.022-1.374c-.004-.158-.008-.405-.304-.4-.187.003-.235.104-.302.252-.087.15-.085.17-.171.37-.411-.31-1.157-.594-2.104-.578-1.986.034-3.432 1.52-3.405 3.18.03 1.728 1.594 3.105 3.49 3.073 1.117-.02 1.85-.546 2.198-.908l.006.356c.004.198.007.405.353.4.335-.006.332-.224.33-.41l-.03-1.66.317-.006c.148-.002.404-.007.399-.303zm-30.74 13.594c-.014-.791-.659-1.482-1.55-1.654l-1.467-.282c-.268-.054-.983-.308-.994-.921-.008-.494.537-.987 1.367-1.002 1.037-.017 1.48.499 1.62 1.168.032.168.065.316.351.31.345-.005.342-.213.339-.41l-.023-1.303c-.002-.158-.006-.406-.302-.4-.218.004-.237.073-.377.51-.521-.426-1.214-.484-1.61-.477-1.233.02-2.02.825-2.006 1.654.009.495.272.845.503 1.06.41.367.758.431 1.66.603l.426.082c.614.118.763.145 1.093.416 0 0 .32.27.329.695.008.534-.485 1.115-1.394 1.13-.544.01-1.049-.1-1.328-.253-.36-.21-.522-.455-.559-.9-.012-.138-.026-.325-.341-.32-.346.006-.342.214-.339.411l.023 1.303c.001.158.006.406.303.4.217-.004.245-.103.376-.48.58.405 1.401.45 1.866.442 1.313-.022 2.048-.924 2.033-1.782zm8.045-1.511c-.03-1.709-1.574-3.105-3.51-3.072-1.955.033-3.432 1.51-3.403 3.18.03 1.708 1.574 3.106 3.51 3.07 1.955-.031 3.431-1.509 3.403-3.178zm-.683-.107c.024 1.432-1.18 2.658-2.73 2.683-1.562.028-2.797-1.166-2.82-2.588-.023-1.314 1.183-2.431 2.733-2.457 1.551-.027 2.794 1.048 2.817 2.361zm8.752-.03c-.03-1.709-1.574-3.106-3.51-3.072-1.955.033-3.432 1.51-3.404 3.179.03 1.71 1.575 3.106 3.51 3.072 1.957-.032 3.432-1.51 3.404-3.18zm-.683-.107c.024 1.431-1.18 2.657-2.731 2.683-1.56.027-2.796-1.166-2.82-2.589-.023-1.314 1.184-2.43 2.734-2.456 1.552-.027 2.794 1.048 2.817 2.361zm8.172-2.737c-.005-.307-.241-.302-.4-.3l-1.62.028c-.158.002-.394.006-.389.313.005.296.252.291.4.29l.534-.01.083 4.928h-.01l-3.07-5.144c-.204-.332-.421-.328-.628-.325l-.94.016c-.157.002-.395.007-.388.313.004.296.251.292.4.29l.532-.01.082 4.83-.533.009c-.158.002-.395.006-.389.313.005.296.252.292.4.29l1.62-.028c.148-.002.394-.007.389-.303-.005-.307-.242-.302-.4-.3l-.534.01-.083-4.929h.01l3.07 5.145c.204.332.421.328.628.325.317-.006.405-.067.398-.412l-.085-5.028.534-.008c.148-.003.395-.007.39-.303z" aria-label="COMING SOON" font-size="9.878" font-family="'Latin Modern Mono Prop'" letter-spacing="0" word-spacing="0" text-anchor="middle" fill="#98971a" stroke-width=".265" stroke="#98971a"/><path d="M47.423 32.151l40.218-.684a3.891 3.891 0 013.966 3.834l.27 15.9a3.891 3.891 0 01-3.833 3.964l-40.218.684a3.891 3.891 0 01-3.966-3.833l-.27-15.899a3.891 3.891 0 013.833-3.965z" fill="none" stroke-linecap="round" stroke-linejoin="round" stroke="#98971a"/><path d="M0 58.473l2.514.317c2.513.291 7.54.926 12.567 1.456 5.027.529 10.054.952 15.082.555 5.027-.397 10.054-1.614 15.08-1.402 5.028.212 10.055 1.905 15.03 2.725 5 .847 9.921.847 14.922.45 4.974-.397 10.001-1.19 15.028-2.064 5.027-.9 10.054-1.852 15.081-2.09 5.028-.212 10.055.317 15.082.661 5.027.37 10.054.53 12.567.635l2.514.08V76.2H0z" fill="#98971a"/><path d="M0 62.97l2.514-.21c2.513-.239 7.54-.662 12.567-.583 5.027.08 10.054.714 15.082 1.058 5.027.344 10.054.45 15.08.662 5.028.211 10.055.582 15.03 1.058 5 .476 9.921 1.111 14.922 1.058 4.974-.052 10.001-.74 15.028-1.19 5.027-.45 10.054-.609 15.081-.741 5.028-.132 10.055-.238 15.082.212 5.027.45 10.054 1.402 12.567 1.905l2.514.476V76.2H0z" fill="#a3a31e"/><path d="M0 66.94l2.514-.053c2.513-.027 7.54-.133 12.567-.08 5.027.053 10.054.212 15.082.476 5.027.265 10.054.635 15.08.37 5.028-.264 10.055-1.163 15.03-1.163 5 0 9.921.9 14.922 1.19 4.974.318 10.001.053 15.028-.211 5.027-.265 10.054-.53 15.081-.53 5.028 0 10.055.265 15.082.715 5.027.423 10.054 1.058 12.567 1.35l2.514.317V76.2H0z" fill="#adaf22"/><path d="M0 72.496l2.514-.185c2.513-.16 7.54-.53 12.567-.477 5.027.053 10.054.477 15.082.582 5.027.08 10.054-.185 15.08-.238 5.028-.026 10.055.133 15.03.265 5 .132 9.921.238 14.922.106 4.974-.133 10.001-.503 15.028-.98 5.027-.476 10.054-1.11 15.081-1.005 5.028.08 10.055.873 15.082.82 5.027-.026 10.054-.925 12.567-1.349l2.514-.45V76.2H0z" fill="#b8bb26"/></svg>