<svg xmlns="http://www.w3.org/2000/svg" height="75" width="75" viewBox="0 0 91.463 91.463"><circle r="39.634" cy="45.732" cx="45.732" class="icon" fill="#e377c2"/><path d="M73.17 22.445l-1.89-2.243-.343 1.785a5.301 5.301 0 00-5.902-.414c.064.417.12.958.12 1.623 0 .828-.09 1.828-.347 2.97a.614.614 0 01-.731.465.616.616 0 01-.468-.734c.238-1.05.315-1.96.315-2.701 0-.32-.015-.594-.036-.844a24.436 24.436 0 01-4.886 2.916l.002.069c0 .96-.152 2.52-.878 4.397a.61.61 0 01-.573.39.674.674 0 01-.222-.039.613.613 0 01-.35-.795c.561-1.452.733-2.66.775-3.508-2.148.814-4.333 1.291-6.535 1.512-.14.95-.509 2.441-1.493 4.142a.622.622 0 01-.534.307.619.619 0 01-.533-.925c.797-1.372 1.14-2.58 1.294-3.413a33.28 33.28 0 01-1.794.063 34.589 34.589 0 01-4.377-.289c-.188.907-.666 2.474-1.903 4.208a.616.616 0 01-.857.142.613.613 0 01-.142-.858 10.459 10.459 0 001.542-3.108c.062-.211.108-.395.144-.557a45.492 45.492 0 01-6.059-1.395c-.247.873-.843 2.416-2.25 4.052a.612.612 0 01-.869.065.617.617 0 01-.066-.867 10.133 10.133 0 001.785-2.92 8.12 8.12 0 00.233-.702 48.39 48.39 0 01-5.307-2.087c-.23.85-.817 2.45-2.278 4.148a.613.613 0 01-.867.064.61.61 0 01-.065-.864 10.074 10.074 0 001.78-2.923 6.66 6.66 0 00.304-.96 34.437 34.437 0 01-1.21-.625 11.399 11.399 0 01-.282-.158c-.05-.028-.046-.028-.05-.028a5.316 5.316 0 00-7.28 1.876l-.007.014-.931-1.08-.856 2.977 1.206-.366c-.49 2.189.427 4.534 2.462 5.735h-.003c.335.148 7.553 4.496 17.725 6.33v9.314c0 .77.546 1.398 1.23 1.398h1.847v21.97a1.335 1.335 0 002.668 0v-21.97h1.853c.679 0 1.232-.627 1.232-1.397v-8.508c7.22-.042 15.34-2.028 22.494-7.787a5.311 5.311 0 00.874-7.386zM41.526 45.093v-7.506a51.9 51.9 0 001.827.234v7.272zm3.314 0v-7.14a49.17 49.17 0 001.826.099v7.04z" fill="#fff"/></svg>