<svg xmlns="http://www.w3.org/2000/svg" width="100" height="100"><path d="M99.237 10.435l-3.356-3.98-.609 3.167a9.41 9.41 0 0 0-10.477-.734c.114.74.212 1.701.212 2.88 0 1.471-.16 3.246-.614 5.272a1.09 1.09 0 0 1-1.299.826 1.093 1.093 0 0 1-.83-1.302c.422-1.866.56-3.48.56-4.796 0-.566-.027-1.053-.064-1.498a43.376 43.376 0 0 1-8.674 5.177c0 .045.003.077.003.122 0 1.706-.27 4.475-1.559 7.805-.164.43-.578.692-1.017.692-.129 0-.262-.022-.394-.068a1.088 1.088 0 0 1-.62-1.412c.995-2.577 1.3-4.72 1.374-6.227-3.812 1.446-7.691 2.292-11.599 2.685-.249 1.687-.904 4.333-2.65 7.352a1.104 1.104 0 0 1-.949.545 1.098 1.098 0 0 1-.945-1.642c1.414-2.435 2.022-4.58 2.296-6.058a59.075 59.075 0 0 1-3.184.111c-2.623.004-5.225-.191-7.77-.512-.333 1.609-1.182 4.39-3.378 7.469a1.093 1.093 0 0 1-1.522.251 1.088 1.088 0 0 1-.252-1.523c1.518-2.122 2.317-4.09 2.738-5.516.11-.375.192-.702.256-.989a80.754 80.754 0 0 1-10.756-2.477c-.439 1.55-1.497 4.289-3.995 7.194a1.087 1.087 0 0 1-1.541.115 1.095 1.095 0 0 1-.118-1.54c1.683-1.95 2.632-3.812 3.168-5.182.196-.509.316-.907.414-1.246a85.897 85.897 0 0 1-9.42-3.705c-.41 1.51-1.45 4.348-4.043 7.363a1.088 1.088 0 0 1-1.54.114 1.084 1.084 0 0 1-.115-1.535c1.679-1.947 2.628-3.816 3.16-5.188.301-.771.456-1.335.54-1.704a61.13 61.13 0 0 1-2.149-1.11 20.234 20.234 0 0 1-.5-.279c-.088-.05-.082-.05-.088-.05a9.436 9.436 0 0 0-12.925 3.329c-.005.009-.007.018-.011.026L3.342 10.74l-1.52 5.283 2.142-.648c-.87 3.884.757 8.047 4.37 10.18h-.005c.594.262 13.406 7.98 31.464 11.236v16.533c0 1.368.968 2.481 2.184 2.481h3.277v38.999a2.37 2.37 0 0 0 4.737 0V55.806h3.288c1.205 0 2.187-1.113 2.187-2.48V38.223c12.816-.074 27.232-3.6 39.93-13.823 4.012-3.225 4.681-9.05 1.552-13.11zM43.063 50.638V37.315a92.13 92.13 0 0 0 3.242.415v12.908zm5.882 0V37.965c1.068.081 2.15.133 3.242.175v12.498z" fill="#fff"/></svg>