<?xml version="1.0" encoding="UTF-8" standalone="no"?>
<svg
   xmlns:dc="http://purl.org/dc/elements/1.1/"
   xmlns:cc="http://creativecommons.org/ns#"
   xmlns:rdf="http://www.w3.org/1999/02/22-rdf-syntax-ns#"
   xmlns:svg="http://www.w3.org/2000/svg"
   xmlns="http://www.w3.org/2000/svg"
   xmlns:sodipodi="http://sodipodi.sourceforge.net/DTD/sodipodi-0.dtd"
   xmlns:inkscape="http://www.inkscape.org/namespaces/inkscape"
   version="1.1"
   x="0px"
   y="0px"
   viewBox="0 0 100 100"
   enable-background="new 0 0 100 100"
   xml:space="preserve"
   id="svg8"
   sodipodi:docname="noun_316285_cc.svg"
   width="100"
   height="100"
   inkscape:version="0.92.2 (5c3e80d, 2017-08-06)"><metadata
     id="metadata14"><rdf:RDF><cc:Work
         rdf:about=""><dc:format>image/svg+xml</dc:format><dc:type
           rdf:resource="http://purl.org/dc/dcmitype/StillImage" /><dc:title></dc:title></cc:Work></rdf:RDF></metadata><defs
     id="defs12" /><sodipodi:namedview
     pagecolor="#ffffff"
     bordercolor="#666666"
     borderopacity="1"
     objecttolerance="10"
     gridtolerance="10"
     guidetolerance="10"
     inkscape:pageopacity="0"
     inkscape:pageshadow="2"
     inkscape:window-width="1366"
     inkscape:window-height="708"
     id="namedview10"
     showgrid="false"
     inkscape:zoom="1.888"
     inkscape:cx="-26.800847"
     inkscape:cy="62.5"
     inkscape:window-x="0"
     inkscape:window-y="32"
     inkscape:window-maximized="1"
     inkscape:current-layer="svg8" /><path
     d="M 99.237288,10.43463 95.880792,6.455758 95.272487,9.6217538 C 92.27751,7.2859525 88.129784,6.9655645 84.794936,8.8878922 c 0.113651,0.740356 0.212148,1.7015198 0.212148,2.8791618 0,1.472053 -0.160194,3.247175 -0.613716,5.273413 -0.113651,0.508724 -0.563926,0.852924 -1.059661,0.852924 -0.08226,0 -0.160194,-0.0087 -0.239209,-0.02706 -0.590986,-0.128804 -0.957916,-0.71546 -0.830194,-1.302117 0.422133,-1.866043 0.559596,-3.479889 0.559596,-4.796077 0,-0.566091 -0.02706,-1.053168 -0.06386,-1.498031 -2.831537,2.162619 -5.730182,3.863056 -8.674287,5.17708 0,0.04438 0.0032,0.07685 0.0032,0.12231 0,1.70585 -0.270598,4.474608 -1.558644,7.804045 -0.164523,0.430791 -0.577997,0.69273 -1.017448,0.69273 -0.128805,0 -0.261939,-0.02273 -0.393991,-0.06819 -0.563926,-0.219726 -0.838853,-0.852925 -0.619128,-1.412522 0.994718,-2.576092 1.299953,-4.719228 1.373555,-6.226999 -3.812183,1.446075 -7.691475,2.292505 -11.598909,2.685414 -0.24895,1.687448 -0.90488,4.332814 -2.649695,7.351604 -0.205655,0.34853 -0.572585,0.545526 -0.949258,0.545526 -0.182924,0 -0.37126,-0.04546 -0.545525,-0.147206 -0.522795,-0.301987 -0.698143,-0.971987 -0.399403,-1.494783 1.413604,-2.435381 2.021908,-4.580681 2.295753,-6.058146 -1.061826,0.0617 -2.123652,0.107157 -3.184396,0.111486 -2.622635,0.0032 -5.224705,-0.191583 -7.77049,-0.511971 -0.332295,1.608434 -1.18089,4.389098 -3.377063,7.468503 -0.215395,0.297658 -0.549855,0.453522 -0.888643,0.453522 -0.220808,0 -0.440534,-0.06494 -0.633199,-0.202407 -0.490324,-0.34853 -0.60614,-1.03152 -0.252198,-1.522925 1.517514,-2.122571 2.316319,-4.089276 2.737369,-5.515869 0.110404,-0.37559 0.192666,-0.702472 0.256527,-0.989306 -3.814348,-0.600727 -7.453349,-1.477464 -10.755727,-2.476512 -0.439451,1.548903 -1.496947,4.288436 -3.995107,7.193575 -0.215396,0.252198 -0.522796,0.381002 -0.825865,0.381002 -0.251115,0 -0.508724,-0.092 -0.715461,-0.266268 -0.457852,-0.393991 -0.508724,-1.086721 -0.117981,-1.540243 1.683119,-1.949388 2.632377,-3.811102 3.168161,-5.18141 0.195913,-0.508724 0.316058,-0.907044 0.413473,-1.245832 -1.123522,-0.370178 -2.213491,-0.746851 -3.233104,-1.128935 -2.409404,-0.90055 -4.486513,-1.791358 -6.185868,-2.576092 -0.410227,1.509936 -1.451488,4.347967 -4.043816,7.362428 -0.215396,0.252197 -0.521713,0.381002 -0.830194,0.381002 -0.251115,0 -0.504395,-0.08659 -0.710049,-0.266268 -0.458934,-0.389661 -0.509807,-1.080227 -0.114734,-1.535914 1.67879,-1.94614 2.628047,-3.815431 3.159502,-5.187904 0.301987,-0.770663 0.456769,-1.334589 0.541196,-1.703684 C 19.712887,10.269024 18.985519,9.8858574 18.519009,9.6314953 18.28413,9.5026907 18.115276,9.409605 18.018944,9.3522383 17.93127,9.3024483 17.936682,9.3024483 17.93127,9.3024483 13.442591,6.6516709 7.6561252,8.1421243 5.0064303,12.630803 c -0.00541,0.0087 -0.00758,0.0184 -0.011906,0.02598 L 3.3417122,10.74095 1.8220342,16.024104 3.9640874,15.375751 c -0.8691605,3.884704 0.7565918,8.047583 4.3696153,10.180977 h -0.00433 c 0.5931506,0.260856 13.4054213,7.979391 31.4640453,11.235226 v 16.533533 c 0,1.367061 0.967658,2.480842 2.183184,2.480842 h 3.277482 v 38.998573 c 0,1.302118 1.063991,2.361779 2.370438,2.361779 1.306447,0 2.366108,-1.059661 2.366108,-2.361779 V 55.806326 h 3.288306 c 1.204702,0 2.187514,-1.113781 2.187514,-2.480842 V 38.223955 c 12.815518,-0.0736 27.231893,-3.600035 39.92943,-13.823225 4.012426,-3.224445 4.68134,-9.049877 1.55215,-13.108846 z M 43.063323,50.637905 V 37.314746 c 1.067238,0.153699 2.143136,0.297658 3.241763,0.415638 v 12.907521 z m 5.881717,0 V 37.965263 c 1.06832,0.08118 2.150712,0.133134 3.241763,0.174265 v 12.498377 z"
     id="path2"
     inkscape:connector-curvature="0"
     style="fill:#e377c2;stroke-width:1.08239174;fill-opacity:1" /></svg>