<svg height="289" width="512" viewBox="0 0 624.387 352.437" xmlns="http://www.w3.org/2000/svg"><defs><clipPath clipPathUnits="userSpaceOnUse" id="a"><path fill="#5c0a5c" stroke-width="123.191" stroke-linecap="round" d="M0 0h624.387v352.437H0z"/></clipPath></defs><path fill="#5c0a5c" d="M0 0h624.387v352.437H0z"/><path d="M654.875-13.042l-14.7-17.446-2.668 13.884a41.23 41.23 0 00-45.905-3.22c.498 3.243.933 7.451.933 12.623 0 6.44-.7 14.218-2.699 23.1a4.776 4.776 0 01-5.685 3.617 4.791 4.791 0 01-3.64-5.709c1.85-8.166 2.45-15.244 2.45-21.008 0-2.489-.117-4.62-.28-6.564a190.06 190.06 0 01-38.003 22.68l.016.537c0 7.467-1.183 19.6-6.83 34.2a4.745 4.745 0 01-4.456 3.033 5.242 5.242 0 01-1.727-.304 4.768 4.768 0 01-2.722-6.183c4.363-11.294 5.701-20.69 6.028-27.285-16.707 6.331-33.702 10.041-50.829 11.76-1.089 7.39-3.959 18.986-11.612 32.216a4.838 4.838 0 01-4.154 2.388 4.815 4.815 0 01-4.145-7.195c6.199-10.67 8.867-20.067 10.064-26.546a258.848 258.848 0 01-13.953.49 269.03 269.03 0 01-34.044-2.247c-1.462 7.054-5.18 19.242-14.801 32.729a4.791 4.791 0 01-6.666 1.105 4.768 4.768 0 01-1.104-6.674 81.349 81.349 0 0011.993-24.174c.482-1.64.84-3.072 1.12-4.332a353.832 353.832 0 01-47.126-10.85c-1.921 6.79-6.557 18.791-17.5 31.516a4.76 4.76 0 01-6.76.506 4.799 4.799 0 01-.513-6.744 78.813 78.813 0 0013.884-22.711 63.156 63.156 0 001.812-5.46 376.372 376.372 0 01-41.277-16.233c-1.79 6.611-6.355 19.056-17.718 32.263a4.768 4.768 0 01-6.744.498 4.745 4.745 0 01-.505-6.72 78.354 78.354 0 0013.844-22.735 51.8 51.8 0 002.365-7.467 267.847 267.847 0 01-9.411-4.861 88.66 88.66 0 01-2.194-1.23c-.389-.217-.358-.217-.389-.217A41.347 41.347 0 00242.001-3.42l-.054.11-7.241-8.4-6.658 23.154 9.38-2.847c-3.811 17.026 3.321 35.265 19.15 44.606h-.024c2.605 1.152 58.746 34.97 137.863 49.234v72.444c0 5.989 4.247 10.873 9.567 10.873h14.365v170.88a10.383 10.383 0 0020.752 0v-170.88h14.412c5.282 0 9.583-4.876 9.583-10.865v-66.175c56.156-.326 119.312-15.773 174.956-60.566A41.308 41.308 0 00644.849-9.3zM408.751 163.112V104.73a403.673 403.673 0 0014.21 1.82v56.56zm25.776 0v-55.534a382.439 382.439 0 0014.203.77v54.756z" fill="#dbbddb" clip-path="url(#a)"/></svg>