<svg xmlns="http://www.w3.org/2000/svg" height="75" width="75" viewBox="0 0 91.463 91.463"><circle r="39.634" cy="45.732" cx="45.732" class="icon" fill="#663d00"/><g fill="#fff"><path d="M72.42 60.772h-5.782a7.127 7.127 0 002.775-5.638c0-3.939-3.205-7.143-7.142-7.143h-.421c-.798-3.32-2.36-5.464-4.451-7.497l1.478-1.252a4.413 4.413 0 001.29-1.79 4.416 4.416 0 00.22-.715c.017-.077.034-.156.048-.236a4.475 4.475 0 00.058-.943c-.006-.099-.01-.197-.02-.295a5.131 5.131 0 00-.037-.263l4.38-3.594a3.254 3.254 0 002.387 1.035 3.27 3.27 0 002.07-.741 3.241 3.241 0 001.178-2.205 3.245 3.245 0 00-.725-2.392 3.24 3.24 0 00-2.134-1.164 3.228 3.228 0 00-.727-2.323 3.257 3.257 0 00-2.525-1.194 3.271 3.271 0 00-2.07.741 3.268 3.268 0 00-.314 4.755l-4.38 3.594a4.443 4.443 0 00-1.598-.3 4.462 4.462 0 00-2.822 1.01l-1.788 1.467c-.391.32-1.089.693-1.95 1.083l-.137.063c-.096.043-.195.085-.295.127l-.235.102-.13.053a23.651 23.651 0 00-6.93-1.028c-11.45 0-20.766 8.05-20.766 17.946 0 2.718.707 4.933 2.044 6.414a7.726 7.726 0 002.017 2.323h-5.941a.751.751 0 00-.626 1.168l4.51 6.766c.14.21.375.335.626.335H67.91c.25 0 .486-.126.626-.335l4.51-6.766a.75.75 0 00.037-.77.748.748 0 00-.662-.398zm-8.786-32.286a.753.753 0 00-.123-1.245 1.76 1.76 0 01-.533-.435 1.764 1.764 0 01.245-2.48c.731-.597 1.885-.483 2.48.243a1.748 1.748 0 01.23 1.857.75.75 0 00.1.79.747.747 0 00.756.255 1.78 1.78 0 011.775.586 1.763 1.763 0 01-.245 2.48c-.73.6-1.883.482-2.479-.243a1.706 1.706 0 01-.206-.32.751.751 0 00-1.147-.242l-4.593 3.77c-.013-.023-.031-.042-.044-.063a4.428 4.428 0 00-.355-.509l-.074-.089a4.475 4.475 0 00-.43-.449c-.018-.017-.033-.037-.051-.053zm-14.7 8.129c.003-.001.007 0 .01-.002 1.654-.677 2.758-1.252 3.375-1.758l1.79-1.465a2.899 2.899 0 011.862-.668 2.963 2.963 0 011.714.554c.037.025.074.045.11.073.159.124.307.264.436.421l.101.137a2.951 2.951 0 01.656 1.583 2.947 2.947 0 01-1.064 2.543l-1.79 1.468a.77.77 0 00-.148.164c-.119.177-2.934 4.392-4.213 6.893a6.039 6.039 0 01-1.726 2.314 6.152 6.152 0 01-3.889 1.393h-.001a6.121 6.121 0 01-4.752-2.247 6.146 6.146 0 01.852-8.64 6.153 6.153 0 011.737-.99.54.54 0 00.063-.029l.026-.007a66.144 66.144 0 004.852-1.737zm-24.69 21.031a.728.728 0 00-.11-.152c-1.116-1.198-1.705-3.086-1.705-5.459 0-9.067 8.64-16.443 19.263-16.443 1.52 0 3.019.166 4.484.467a75.64 75.64 0 01-2.214.754 8.492 8.492 0 00-.358.113l-.098.032a.797.797 0 00-.142.06 7.63 7.63 0 00-2.058 1.197c-3.258 2.674-3.734 7.499-1.061 10.756a7.623 7.623 0 005.913 2.797h.002a7.658 7.658 0 004.842-1.734 7.447 7.447 0 002.133-2.838c.82-1.602 2.383-4.062 3.324-5.512 2.002 1.967 3.389 3.961 4.053 7.209a.75.75 0 00.735.602h1.025c3.11 0 5.638 2.53 5.638 5.639a5.644 5.644 0 01-5.638 5.638H29.194c-1.97 0-3.913-1.228-4.95-3.125zm43.263 9.892h-43.55l-3.508-5.263h50.566z"/><path d="M19.439 61.783l4.36 6.614h44.27l4.21-6.765z"/></g></svg>