<svg height="289" width="512" viewBox="0 0 624.387 352.437" xmlns="http://www.w3.org/2000/svg"><defs><clipPath clipPathUnits="userSpaceOnUse" id="a"><path fill="#5c0a0a" stroke-width="76.222" stroke-linecap="round" d="M0 0h624.387v352.437H0z"/></clipPath></defs><path fill="#5c0a0a" d="M0 0h624.387v352.437H0z"/><path overflow="visible" font-weight="400" d="M459.927-30.488a363.95 363.95 0 00-17.983.436c-35.77 1.719-71.811 8.517-105.263 22.913-33.507 14.42-64.22 36.594-86.535 66.196-10.057 13.355-19.087 29.167-21.498 47.561a69.813 69.813 0 00-.599 9.629v55.424c0 6.308.91 12.7 2.91 18.923 3.01 9.341 8.454 18.068 16.348 24.64 6.837 5.693 14.754 9.178 22.625 11.215 7.833 2.03 15.556 2.645 22.851 2.77 14.584.264 27.666-1.105 38.92.754 20.106 3.328 38.725 17.002 55.704 33.016 17.072 16.108 33.849 35.358 56.637 49.039 27.72 16.652 61.25 22.252 92.866 16.403 31.578-5.841 60.472-22.836 81.464-46.892a148.866 148.866 0 0036.4-91.466c.078-1.921.101-3.85.101-5.771V128.87a148.002 148.002 0 00-29.4-88.573c-21.038-28.03-51.41-47.413-83.828-58.325-26.522-8.929-54.273-12.374-81.72-12.444zm.668 23.24c1.945 0 3.882.047 5.818.078 23.287.576 46.27 3.889 67.822 11.145 28.676 9.653 55.012 26.732 72.667 50.244 16.854 22.455 25.752 51.1 24.655 79.162-1.096 28.078-12.203 55.922-30.69 77.1-17.578 20.145-42.086 34.487-68.188 39.317-26.07 4.822-54.125.078-76.688-13.471-18.698-11.231-34.517-28.925-52.647-46.02-18.224-17.19-40.211-34.456-67.845-39.037-15.501-2.567-29.773-.84-42.311-1.066-6.246-.116-12.141-.653-17.438-2.022-5.258-1.369-9.994-3.601-13.58-6.58-4.09-3.422-7.326-8.4-9.1-13.906-1.788-5.554-2.208-11.83-1.392-18.068 1.657-12.553 8.315-25.044 17.033-36.61 19.476-25.845 46.877-45.803 77.155-58.83C376.184 1.137 409.488-5.25 443.064-6.867a332.645 332.645 0 0117.524-.389zm-.108 22.143a286.422 286.422 0 00-16.357.374c-31.492 1.516-62.175 7.505-89.506 19.273-27.206 11.705-51.442 29.54-68.218 51.815-7.444 9.862-11.838 19.18-12.756 26.156-.45 3.392-.116 6.417.514 8.4.598 1.844 1.71 3.267 2.193 3.672.474.388 2.185 1.438 4.954 2.146 2.87.747 7.016 1.237 12.281 1.322 10.578.195 25.993-1.874 45.531 1.361 34.829 5.772 60.005 26.46 79.426 44.777 19.126 18.044 34.051 34.26 48.852 43.15 17.632 10.578 40.467 14.522 61.242 10.672 20.883-3.858 41.198-15.672 55.533-32.091 15.088-17.282 24.344-40.538 25.246-63.404.895-22.867-6.533-46.737-20.238-64.99-14.427-19.22-36.913-34.106-62.011-42.553-18.993-6.393-39.729-9.473-61.289-9.994a248.38 248.38 0 00-5.397-.078zm54 95.2a39.433 29.322 0 0139.433 29.33 39.433 29.322 0 01-39.433 29.33 39.433 29.322 0 01-39.433-29.323 39.433 29.322 0 0139.433-29.337zm-262.42 52.865a60.184 60.184 0 0017.865 7.715c7.833 2.022 15.556 2.637 22.851 2.761 14.576.265 27.666-1.112 38.92.763 20.106 3.328 38.718 16.994 55.689 33.008 17.087 16.116 33.856 35.358 56.645 49.039 27.727 16.652 61.257 22.252 92.866 16.403 31.585-5.849 60.48-22.843 81.471-46.884a146.159 146.159 0 009.8-12.561 126.341 126.341 0 01-27.307 53.044c-17.578 20.144-42.086 34.486-68.188 39.316-26.063 4.822-54.117.078-76.688-13.47-18.698-11.232-34.517-28.926-52.655-46.022-18.216-17.196-40.195-34.455-67.837-39.044-15.494-2.566-29.773-.832-42.311-1.057-6.253-.11-12.133-.662-17.438-2.023-5.258-1.369-9.994-3.6-13.572-6.58-4.099-3.414-7.327-8.4-9.1-13.906-1.789-5.553-2.216-11.83-1.4-18.076a55.455 55.455 0 01.39-2.426z" fill="#dbbdbd" clip-path="url(#a)"/></svg>