<svg xmlns="http://www.w3.org/2000/svg" height="75" width="75" viewBox="0 0 91.463 91.463"><circle r="39.634" cy="45.732" cx="45.732" class="icon" fill="#5c0a0a"/><path overflow="visible" font-weight="400" d="M48.106 22.514a46.794 46.794 0 00-2.312.056c-4.599.221-9.233 1.095-13.534 2.946-4.308 1.854-8.257 4.705-11.126 8.511-1.293 1.717-2.454 3.75-2.764 6.115a8.976 8.976 0 00-.077 1.238v7.126c0 .811.117 1.633.374 2.433.387 1.201 1.087 2.323 2.102 3.168.879.732 1.897 1.18 2.909 1.442 1.007.261 2 .34 2.938.356 1.875.034 3.557-.142 5.004.097 2.585.428 4.979 2.186 7.162 4.245 2.195 2.071 4.352 4.546 7.282 6.305 3.564 2.141 7.875 2.861 11.94 2.109 4.06-.751 7.775-2.936 10.474-6.029a19.14 19.14 0 004.68-11.76c.01-.247.013-.495.013-.742v-7.127a19.029 19.029 0 00-3.78-11.388c-2.705-3.604-6.61-6.096-10.778-7.499-3.41-1.148-6.978-1.591-10.507-1.6zm.086 2.988c.25 0 .499.006.748.01 2.994.074 5.949.5 8.72 1.433 3.687 1.241 7.073 3.437 9.343 6.46 2.167 2.887 3.311 6.57 3.17 10.178-.141 3.61-1.569 7.19-3.946 9.913-2.26 2.59-5.411 4.434-8.767 5.055-3.352.62-6.959.01-9.86-1.732-2.404-1.444-4.438-3.719-6.769-5.917-2.343-2.21-5.17-4.43-8.723-5.019-1.993-.33-3.828-.108-5.44-.137-.803-.015-1.561-.084-2.242-.26-.676-.176-1.285-.463-1.746-.846-.526-.44-.942-1.08-1.17-1.788-.23-.714-.284-1.521-.179-2.323.213-1.614 1.069-3.22 2.19-4.707 2.504-3.323 6.027-5.889 9.92-7.564 3.898-1.678 8.18-2.499 12.497-2.707a42.769 42.769 0 012.253-.05zm-.014 2.847a36.826 36.826 0 00-2.103.048c-4.049.195-7.994.965-11.508 2.478-3.498 1.505-6.614 3.798-8.771 6.662-.957 1.268-1.522 2.466-1.64 3.363-.058.436-.015.825.066 1.08.077.237.22.42.282.472.061.05.281.185.637.276.369.096.902.159 1.579.17 1.36.025 3.342-.241 5.854.175 4.478.742 7.715 3.402 10.212 5.757 2.459 2.32 4.378 4.405 6.281 5.548 2.267 1.36 5.203 1.867 7.874 1.372 2.685-.496 5.297-2.015 7.14-4.126 1.94-2.222 3.13-5.212 3.246-8.152.115-2.94-.84-6.009-2.602-8.356-1.855-2.471-4.746-4.385-7.973-5.471-2.442-.822-5.108-1.218-7.88-1.285-.23-.006-.462-.009-.694-.01zm6.943 12.24a5.07 3.77 0 015.07 3.771 5.07 3.77 0 01-5.07 3.771 5.07 3.77 0 01-5.07-3.77 5.07 3.77 0 015.07-3.772zm-33.74 6.797a7.738 7.738 0 002.297.992c1.007.26 2 .339 2.938.355 1.874.034 3.557-.143 5.004.098 2.585.428 4.978 2.185 7.16 4.244 2.197 2.072 4.353 4.546 7.283 6.305 3.565 2.141 7.876 2.861 11.94 2.109 4.061-.752 7.776-2.937 10.475-6.028a18.792 18.792 0 001.26-1.615 16.244 16.244 0 01-3.511 6.82c-2.26 2.59-5.411 4.434-8.767 5.055-3.351.62-6.958.01-9.86-1.732-2.404-1.444-4.438-3.719-6.77-5.917-2.342-2.211-5.168-4.43-8.722-5.02-1.992-.33-3.828-.107-5.44-.136-.804-.014-1.56-.085-2.242-.26-.676-.176-1.285-.463-1.745-.846-.527-.439-.942-1.08-1.17-1.788-.23-.714-.285-1.521-.18-2.324a7.13 7.13 0 01.05-.312z" fill="#fff"/></svg>