<svg xmlns="http://www.w3.org/2000/svg" width="110.28" height="95.299" viewBox="0 0 29.178 25.215"><path d="M12.883 4.366c-1.429.014-2.772.3-4.012.756.612 1.697 2.492 7.959-.266 14.59 4.432 1.79 10.145 1.474 16.145-5.78l4.321 2.145V8.716l-4.32 1.995c-4.304-4.768-8.345-6.382-11.868-6.347zm-4.453.927C3.193 7.427-.107 12.5-.107 12.5l.166-.17s.618.607 1.498 1.157 2.005 1.017 2.976.808l.1.462c-1.179.255-2.398-.29-3.326-.87a10.04 10.04 0 0 1-.773-.537c1.18 1.48 3.93 4.533 7.636 6.175 2.69-6.467.853-12.583.26-14.233zm-3.072 4.816a1.265 1.265 0 0 1 1.265 1.264 1.265 1.265 0 0 1-1.265 1.264 1.265 1.265 0 0 1-1.264-1.264 1.265 1.265 0 0 1 1.264-1.264z" fill="#fff"/></svg>