<svg xmlns="http://www.w3.org/2000/svg" width="100mm" height="100mm" viewBox="0 0 100 100"><path d="M44.276 36.803c-4.807.048-9.326 1.01-13.5 2.545 2.058 5.711 8.386 26.78-.895 49.09 14.914 6.027 34.136 4.962 54.324-19.447l14.541 7.22V51.44l-14.541 6.718c-14.479-16.045-28.076-21.475-39.93-21.356zm-14.984 3.12C11.674 47.103.567 64.177.567 64.177l.558-.57s2.08 2.04 5.04 3.89c2.961 1.849 6.748 3.423 10.015 2.719l.336 1.557c-3.967.855-8.07-.977-11.192-2.927a33.78 33.78 0 0 1-2.601-1.81c3.974 4.98 13.22 15.255 25.694 20.779 9.047-21.762 2.871-42.341.875-47.892zM18.956 56.127a4.255 4.255 0 0 1 4.255 4.255 4.255 4.255 0 0 1-4.255 4.254 4.255 4.255 0 0 1-4.255-4.254 4.255 4.255 0 0 1 4.255-4.255z" fill="#17becf"/><path d="M36.204 7.315s-7.375 5.39-.142 11.204c0 0 9.606 3.841 1.418 12.623M52.49 7.315s-7.375 5.39-.142 11.204c0 0 9.607 3.841 1.418 12.623M67.653 7.315s-7.375 5.39-.142 11.204c0 0 9.607 3.841 1.418 12.623" fill="none" stroke="#17becf" stroke-width="1.591935"/></svg>