<?xml version="1.0" encoding="UTF-8" standalone="no"?>
<!-- Created with Inkscape (http://www.inkscape.org/) -->

<svg
   xmlns:dc="http://purl.org/dc/elements/1.1/"
   xmlns:cc="http://creativecommons.org/ns#"
   xmlns:rdf="http://www.w3.org/1999/02/22-rdf-syntax-ns#"
   xmlns:svg="http://www.w3.org/2000/svg"
   xmlns="http://www.w3.org/2000/svg"
   xmlns:sodipodi="http://sodipodi.sourceforge.net/DTD/sodipodi-0.dtd"
   xmlns:inkscape="http://www.inkscape.org/namespaces/inkscape"
   width="100mm"
   height="100mm"
   viewBox="0 0 100 100"
   version="1.1"
   id="svg8"
   inkscape:version="0.92.3 (2405546, 2018-03-11)"
   sodipodi:docname="Seafood.svg">
  <defs
     id="defs2" />
  <sodipodi:namedview
     id="base"
     pagecolor="#ffffff"
     bordercolor="#666666"
     borderopacity="1.0"
     inkscape:pageopacity="0.0"
     inkscape:pageshadow="2"
     inkscape:zoom="1.979899"
     inkscape:cx="146.75095"
     inkscape:cy="179.05411"
     inkscape:document-units="mm"
     inkscape:current-layer="layer1"
     showgrid="false"
     inkscape:window-width="1920"
     inkscape:window-height="1018"
     inkscape:window-x="0"
     inkscape:window-y="34"
     inkscape:window-maximized="1" />
  <metadata
     id="metadata5">
    <rdf:RDF>
      <cc:Work
         rdf:about="">
        <dc:format>image/svg+xml</dc:format>
        <dc:type
           rdf:resource="http://purl.org/dc/dcmitype/StillImage" />
        <dc:title />
      </cc:Work>
    </rdf:RDF>
  </metadata>
  <g
     inkscape:label="Layer 1"
     inkscape:groupmode="layer"
     id="layer1"
     transform="translate(0,-197)">
    <g
       id="g4832">
      <path
         id="path2062"
         d="m 44.275923,233.80286 c -4.806668,0.0481 -9.325484,1.01043 -13.500827,2.54529 2.059013,5.71126 8.386445,26.78045 -0.894496,49.09042 14.914638,6.02622 34.136139,4.96107 54.324141,-19.44805 l 14.541757,7.22015 V 248.4406 l -14.541757,6.71887 C 69.726055,239.11383 56.128731,233.68436 44.275923,233.80286 Z m -14.984343,3.1206 C 11.673596,244.10249 0.56674271,261.1769 0.56674271,261.1769 l 0.55830689,-0.56927 c 0,0 2.0803355,2.04003 5.0406672,3.88895 2.9603314,1.84892 6.7475672,3.42364 10.0138762,2.71914 l 0.336191,1.55701 c -3.966756,0.85557 -8.069277,-0.97704 -11.1913668,-2.927 -0.9760657,-0.60961 -1.8459963,-1.23236 -2.6017761,-1.80929 3.9741554,4.97924 13.2206469,15.25417 25.6941859,20.77856 9.047474,-21.7616 2.871656,-42.34134 0.874753,-47.89154 z m -10.335808,16.20351 a 4.2547438,4.2547438 0 0 1 4.254759,4.25476 4.2547438,4.2547438 0 0 1 -4.254759,4.25476 4.2547438,4.2547438 0 0 1 -4.25476,-4.25476 4.2547438,4.2547438 0 0 1 4.25476,-4.25476 z"
         style="fill:#ffffff;fill-opacity:1;stroke:none;stroke-width:0.28079876px;stroke-linecap:butt;stroke-linejoin:miter;stroke-opacity:1"
         inkscape:connector-curvature="0" />
      <path
         inkscape:connector-curvature="0"
         id="path2104"
         d="m 36.20359,204.31528 c 0,0 -7.37489,5.38934 -0.141825,11.20415 0,0 9.606681,3.8408 1.418248,12.62242"
         style="fill:none;stroke:#ffffff;stroke-width:1.59193003;stroke-linecap:butt;stroke-linejoin:miter;stroke-miterlimit:4;stroke-dasharray:none;stroke-opacity:1" />
      <path
         style="fill:none;stroke:#ffffff;stroke-width:1.59193003;stroke-linecap:butt;stroke-linejoin:miter;stroke-miterlimit:4;stroke-dasharray:none;stroke-opacity:1"
         d="m 52.489929,204.31528 c 0,0 -7.37489,5.38934 -0.141825,11.20415 0,0 9.606681,3.8408 1.418248,12.62242"
         id="path2108"
         inkscape:connector-curvature="0" />
      <path
         inkscape:connector-curvature="0"
         id="path2110"
         d="m 67.653072,204.31528 c 0,0 -7.37489,5.38934 -0.141825,11.20415 0,0 9.606681,3.8408 1.418248,12.62242"
         style="fill:none;stroke:#ffffff;stroke-width:1.59193003;stroke-linecap:butt;stroke-linejoin:miter;stroke-miterlimit:4;stroke-dasharray:none;stroke-opacity:1" />
    </g>
  </g>
</svg>
