<svg xmlns="http://www.w3.org/2000/svg" height="75" width="75" viewBox="0 0 91.463 91.463"><circle r="39.634" cy="45.732" cx="45.732" class="icon" fill="#0a0a5c"/><path d="M42.724 30.444c-2.687.026-5.213.564-7.545 1.422 1.15 3.191 4.686 14.969-.5 27.44 8.335 3.367 19.08 2.773 30.365-10.87l8.127 4.034V38.625l-8.125 3.752C56.95 33.41 49.35 30.374 42.724 30.44zm-8.375 1.743c-9.85 4.014-16.056 13.555-16.056 13.555l.312-.32s1.162 1.142 2.817 2.177c1.655 1.034 3.771 1.912 5.598 1.52l.188.868c-2.218.48-4.51-.545-6.256-1.636a18.883 18.883 0 01-1.454-1.01c2.22 2.783 7.392 8.526 14.362 11.614 5.06-12.163 1.604-23.666.49-26.77zm-5.778 9.058a2.38 2.38 0 012.38 2.378A2.38 2.38 0 0128.57 46a2.38 2.38 0 01-2.377-2.377 2.38 2.38 0 012.377-2.378z" fill="#fff"/></svg>