<?xml version="1.0" encoding="UTF-8" standalone="no"?>
<!-- Created with Inkscape (http://www.inkscape.org/) -->

<svg
   xmlns:dc="http://purl.org/dc/elements/1.1/"
   xmlns:cc="http://creativecommons.org/ns#"
   xmlns:rdf="http://www.w3.org/1999/02/22-rdf-syntax-ns#"
   xmlns:svg="http://www.w3.org/2000/svg"
   xmlns="http://www.w3.org/2000/svg"
   xmlns:sodipodi="http://sodipodi.sourceforge.net/DTD/sodipodi-0.dtd"
   xmlns:inkscape="http://www.inkscape.org/namespaces/inkscape"
   width="100mm"
   height="100mm"
   viewBox="0 0 100 100"
   version="1.1"
   id="svg8"
   inkscape:version="0.92.2 (5c3e80d, 2017-08-06)"
   sodipodi:docname="Seafood.svg">
  <defs
     id="defs2" />
  <sodipodi:namedview
     id="base"
     pagecolor="#ffffff"
     bordercolor="#666666"
     borderopacity="1.0"
     inkscape:pageopacity="0.0"
     inkscape:pageshadow="2"
     inkscape:zoom="1.979899"
     inkscape:cx="239.93752"
     inkscape:cy="138.64801"
     inkscape:document-units="mm"
     inkscape:current-layer="layer1"
     showgrid="false"
     inkscape:window-width="1920"
     inkscape:window-height="1017"
     inkscape:window-x="0"
     inkscape:window-y="35"
     inkscape:window-maximized="1" />
  <metadata
     id="metadata5">
    <rdf:RDF>
      <cc:Work
         rdf:about="">
        <dc:format>image/svg+xml</dc:format>
        <dc:type
           rdf:resource="http://purl.org/dc/dcmitype/StillImage" />
        <dc:title />
      </cc:Work>
    </rdf:RDF>
  </metadata>
  <g
     inkscape:label="Layer 1"
     inkscape:groupmode="layer"
     id="layer1"
     transform="translate(0,-197)">
    <g
       id="g2116"
       transform="matrix(1.0612867,0,0,1.0612867,-1.2381572,-19.126227)">
      <path
         id="path2062"
         transform="matrix(0.26458333,0,0,0.26458333,0,197)"
         d="m 162.08789,156.18164 c -17.11784,0.17114 -33.21056,3.5984 -48.08008,9.06445 7.3327,20.33934 29.86639,95.3724 -3.18554,174.82422 53.11504,21.46099 121.56798,17.6677 193.46289,-69.25976 l 51.78711,25.71289 v -88.21289 l -51.78711,23.92773 c -51.5625,-57.14285 -99.98623,-76.47865 -142.19727,-76.05664 z m -53.36328,11.11328 C 45.982229,192.8614 6.4277344,253.66797 6.4277344,253.66797 l 1.9882812,-2.02735 c 0,0 7.4086344,7.26511 17.9511724,13.84961 10.542537,6.58451 24.029902,12.19249 35.662109,9.6836 l 1.197265,5.54492 c -14.126683,3.0469 -28.736866,-3.47951 -39.855468,-10.42383 -3.476033,-2.171 -6.57409,-4.38877 -9.265625,-6.44336 14.153037,17.73241 47.082281,54.32418 91.503911,73.99805 32.22049,-77.49892 10.22674,-150.78894 3.11523,-170.55469 z M 71.916016,225 A 15.152288,15.152288 0 0 1 87.068359,240.15234 15.152288,15.152288 0 0 1 71.916016,255.30469 15.152288,15.152288 0 0 1 56.763672,240.15234 15.152288,15.152288 0 0 1 71.916016,225 Z"
         style="fill:#17becf;fill-opacity:1;stroke:none;stroke-width:0.99999994px;stroke-linecap:butt;stroke-linejoin:miter;stroke-opacity:1"
         inkscape:connector-curvature="0" />
      <path
         inkscape:connector-curvature="0"
         id="path2104"
         d="m 35.279578,210.53831 c 0,0 -6.949008,5.07812 -0.133635,10.55714 0,0 9.051919,3.619 1.336348,11.8935"
         style="fill:none;stroke:#17becf;stroke-width:1.5;stroke-linecap:butt;stroke-linejoin:miter;stroke-miterlimit:4;stroke-dasharray:none;stroke-opacity:1" />
      <path
         style="fill:none;stroke:#17becf;stroke-width:1.5;stroke-linecap:butt;stroke-linejoin:miter;stroke-miterlimit:4;stroke-dasharray:none;stroke-opacity:1"
         d="m 50.625421,210.53831 c 0,0 -6.949008,5.07812 -0.133635,10.55714 0,0 9.051919,3.619 1.336348,11.8935"
         id="path2108"
         inkscape:connector-curvature="0" />
      <path
         inkscape:connector-curvature="0"
         id="path2110"
         d="m 64.91293,210.53831 c 0,0 -6.949008,5.07812 -0.133635,10.55714 0,0 9.051919,3.619 1.336348,11.8935"
         style="fill:none;stroke:#17becf;stroke-width:1.5;stroke-linecap:butt;stroke-linejoin:miter;stroke-miterlimit:4;stroke-dasharray:none;stroke-opacity:1" />
    </g>
  </g>
</svg>
