<?xml version="1.0" encoding="UTF-8" standalone="no"?>
<svg
   xmlns:dc="http://purl.org/dc/elements/1.1/"
   xmlns:cc="http://creativecommons.org/ns#"
   xmlns:rdf="http://www.w3.org/1999/02/22-rdf-syntax-ns#"
   xmlns:svg="http://www.w3.org/2000/svg"
   xmlns="http://www.w3.org/2000/svg"
   xmlns:sodipodi="http://sodipodi.sourceforge.net/DTD/sodipodi-0.dtd"
   xmlns:inkscape="http://www.inkscape.org/namespaces/inkscape"
   version="1.1"
   x="0px"
   y="0px"
   viewBox="0 0 100 100"
   enable-background="new 0 0 100 100"
   xml:space="preserve"
   id="svg8"
   sodipodi:docname="noun_14173_cc.svg"
   width="100"
   height="100"
   inkscape:version="0.92.2 (5c3e80d, 2017-08-06)"><metadata
     id="metadata14"><rdf:RDF><cc:Work
         rdf:about=""><dc:format>image/svg+xml</dc:format><dc:type
           rdf:resource="http://purl.org/dc/dcmitype/StillImage" /><dc:title></dc:title></cc:Work></rdf:RDF></metadata><defs
     id="defs12" /><sodipodi:namedview
     pagecolor="#ffffff"
     bordercolor="#666666"
     borderopacity="1"
     objecttolerance="10"
     gridtolerance="10"
     guidetolerance="10"
     inkscape:pageopacity="0"
     inkscape:pageshadow="2"
     inkscape:window-width="1920"
     inkscape:window-height="1017"
     id="namedview10"
     showgrid="false"
     inkscape:pagecheckerboard="true"
     inkscape:zoom="5.3400704"
     inkscape:cx="45.756945"
     inkscape:cy="45.056937"
     inkscape:window-x="0"
     inkscape:window-y="35"
     inkscape:window-maximized="1"
     inkscape:current-layer="svg8" /><path
     d="M 0.84431153,89.255695 31.816248,58.282768 c -4.022342,-5.996389 -6.183498,-13.047121 -6.183498,-20.4295 0,-9.823702 3.825334,-19.059349 10.772116,-26.006131 6.946783,-6.945793 16.181439,-10.7711268 26.005142,-10.7711268 9.823702,0 19.059349,3.8253338 26.006131,10.7711268 6.945793,6.946782 10.771124,16.182429 10.771124,26.006131 0,9.823703 -3.825331,19.058359 -10.772114,26.005142 -6.946782,6.946782 -16.181439,10.772116 -26.006131,10.772116 -7.465539,0 -14.58953,-2.211645 -20.629478,-6.321107 L 10.837302,99.249677 C 9.7928601,100.29511 7.8722732,100.06741 6.5486523,98.74379 L 1.349208,93.544346 C 0.02558716,92.220725 -0.20112129,90.300138 0.84431153,89.255695 Z M 62.410008,64.667234 c 14.786538,0 26.814956,-12.028417 26.814956,-26.813966 0,-14.785548 -12.029408,-26.814956 -26.814956,-26.814956 -14.785549,0 -26.813966,12.029408 -26.813966,26.814956 0,14.785549 12.028417,26.813966 26.813966,26.813966 z"
     id="path2"
     inkscape:connector-curvature="0"
     style="stroke-width:0.98999321;stroke:none;stroke-opacity:1;fill:#ffffff;fill-opacity:1" /></svg>