<svg xmlns="http://www.w3.org/2000/svg" width="100" height="100"><path d="M.844 89.256l30.972-30.973c-4.022-5.997-6.183-13.047-6.183-20.43 0-9.823 3.825-19.06 10.772-26.006C43.352 4.901 52.586 1.076 62.41 1.076c9.824 0 19.06 3.825 26.006 10.771 6.946 6.947 10.771 16.183 10.771 26.006 0 9.824-3.825 19.059-10.772 26.005-6.947 6.947-16.181 10.773-26.006 10.773-7.466 0-14.59-2.212-20.63-6.322L10.838 99.25c-1.044 1.046-2.965.818-4.288-.505l-5.2-5.2C.026 92.221-.2 90.3.844 89.256zM62.41 64.667c14.787 0 26.815-12.028 26.815-26.814 0-14.785-12.03-26.815-26.815-26.815-14.786 0-26.814 12.03-26.814 26.815 0 14.786 12.028 26.814 26.814 26.814z" fill="#fff"/></svg>