<svg xmlns="http://www.w3.org/2000/svg" width="100" height="100"><path d="M98.53 89.256L67.56 58.283c4.022-5.997 6.183-13.047 6.183-20.43 0-9.823-3.825-19.06-10.772-26.006C56.023 4.901 46.789 1.076 36.965 1.076c-9.824 0-19.06 3.825-26.006 10.771C4.013 18.794.188 28.03.188 37.853c0 9.824 3.825 19.059 10.772 26.005 6.947 6.947 16.18 10.773 26.006 10.773 7.466 0 14.59-2.212 20.63-6.322l30.94 30.941c1.045 1.046 2.966.818 4.289-.505l5.2-5.2c1.324-1.324 1.55-3.245.506-4.289zM36.966 64.667c-14.787 0-26.815-12.028-26.815-26.814 0-14.785 12.03-26.815 26.815-26.815 14.786 0 26.814 12.03 26.814 26.815 0 14.786-12.028 26.814-26.814 26.814z" fill="#aaa"/></svg>