<?xml version="1.0" encoding="UTF-8" standalone="no"?>
<svg
   xmlns:dc="http://purl.org/dc/elements/1.1/"
   xmlns:cc="http://creativecommons.org/ns#"
   xmlns:rdf="http://www.w3.org/1999/02/22-rdf-syntax-ns#"
   xmlns:svg="http://www.w3.org/2000/svg"
   xmlns="http://www.w3.org/2000/svg"
   xmlns:sodipodi="http://sodipodi.sourceforge.net/DTD/sodipodi-0.dtd"
   xmlns:inkscape="http://www.inkscape.org/namespaces/inkscape"
   version="1.0"
   x="0px"
   y="0px"
   viewBox="0 0 99.999998 100"
   enable-background="new 0 0 37.207 100"
   xml:space="preserve"
   id="svg10"
   sodipodi:docname="noun_63858_cc.svg"
   width="100"
   height="100"
   inkscape:version="0.92.2 (5c3e80d, 2017-08-06)"><metadata
     id="metadata16"><rdf:RDF><cc:Work
         rdf:about=""><dc:format>image/svg+xml</dc:format><dc:type
           rdf:resource="http://purl.org/dc/dcmitype/StillImage" /><dc:title></dc:title></cc:Work></rdf:RDF></metadata><defs
     id="defs14" /><sodipodi:namedview
     pagecolor="#ffffff"
     bordercolor="#666666"
     borderopacity="1"
     objecttolerance="10"
     gridtolerance="10"
     guidetolerance="10"
     inkscape:pageopacity="0"
     inkscape:pageshadow="2"
     inkscape:window-width="1366"
     inkscape:window-height="708"
     id="namedview12"
     showgrid="false"
     inkscape:zoom="2.6700352"
     inkscape:cx="-18.502157"
     inkscape:cy="59.397318"
     inkscape:window-x="0"
     inkscape:window-y="32"
     inkscape:window-maximized="1"
     inkscape:current-layer="svg10" /><g
     id="g825"
     transform="translate(30.720339,25.423729)"
     style="fill:#ffffff;fill-opacity:1"><circle
       id="circle2"
       r="8.1590004"
       cy="-16.841"
       cx="18.118"
       style="fill:#ffffff;fill-opacity:1" /><path
       inkscape:connector-curvature="0"
       id="path4"
       d="m 8.472,70.426 c 0,2.524 2.05,4.574 4.574,4.574 2.529,0 4.576,-2.05 4.576,-4.574 l 0.004,-38.374 h 2.037 L 19.65,70.426 c 0,2.524 2.048,4.574 4.574,4.574 2.526,0 4.573,-2.05 4.573,-4.574 l 0.02,-66.158 h 2.006 v 24.38 c 0,4.905 6.398,4.905 6.384,0 V 3.748 C 37.207,-1.67 34.023,-6.98 27.684,-6.98 L 9.396,-6.988 C 3.619,-6.988 0,-2.278 0,3.599 v 25.05 c 0,4.869 6.433,4.869 6.433,0 V 4.269 h 2.048 z"
       style="fill:#ffffff;fill-opacity:1" /></g></svg>