<svg xmlns="http://www.w3.org/2000/svg" width="100" height="100"><g fill="#fff"><path d="M41.19 15.897v9.823h16.043V15.615c1.586-.508 2.945-1.684 3.58-3.367a5.657 5.657 0 0 0-3.289-7.288 5.62 5.62 0 0 0-2.5-.325 6.268 6.268 0 0 0-3.581-3.486c-2.964-1.12-6.222.15-7.72 2.839-2.609-.135-5.124 1.381-6.093 3.958a6.17 6.17 0 0 0 3.56 7.951zM17.424 100h63.891V89.881H17.424zM46.504 36.696l3.557 3.89 3.684-3.58a46.95 46.95 0 0 0-7.24-.31z"/><path d="M41.92 67.667l-4.136 7.169h-9.827v1.642h-1.78a1.093 1.093 0 0 0 0 2.184h1.78v9.299h25.435v-9.3h1.777c.604 0 1.096-.488 1.096-1.091 0-.6-.492-1.092-1.096-1.092h-1.777v-1.642H39.178l3.911-6.781c.183.06.377.125.555.182 6.48 2.122 9.234-8.064 2.803-10.173-4.281-1.398-10.816-3.383-13.566-7.175.045-.039.093-.08.152-.118a12.01 12.01 0 0 1 1.892-1.032v.878c.652.517 1.256.952 1.772 1.236 2.757 2.149 7.177 3.587 10.304 4.605l.661.215c4.092 1.34 5.416 5.089 4.92 8.206-.575 3.597-3.298 6.107-6.626 6.107a7.44 7.44 0 0 1-2.328-.387c-.123-.039-.265-.088-.387-.128l-1.728 2.826h13.249v1.642h.458a2.417 2.417 0 0 1 2.412 2.413 2.416 2.416 0 0 1-2.412 2.41h-.458v8.58h7.403V50.385c.09.072.184.136.274.214 3.817 3.32 3.45 9.1 2.872 13.63-.858 6.73 9.695 6.652 10.543 0 .976-7.631-.295-15.5-5.96-21.084-3.541-3.486-8.287-5.118-13.175-5.677l-5.036 4.896 4.336 4.742-1.775 1.623L43.458 36.93a32.447 32.447 0 0 0-4.077.724c-7.6 1.516-19.145 5.258-17.116 15.015 1.724 8.282 12.188 12.48 19.656 15zM57.09 26.864H41.31a7.892 7.892 0 0 0 7.89 7.89 7.887 7.887 0 0 0 7.89-7.89z"/><path d="M35.244 67.549l-.022 5.748h1.852l2.454-4.091c-1.354-.484-2.842-1.03-4.284-1.657zM25.898 65.245c-.118.546-.034 1.13.144 1.655.198.52.509.967.847 1.36.367.388.72.67.984.964.296.293.526.618.685.934.142.318.192.64.035.999-.142.365-.461.705-.833 1.011.487-.04.97-.243 1.367-.642.4-.398.562-1.093.418-1.659-.238-1.133-1.141-1.902-1.675-2.484-.562-.6-.927-1.274-.95-2.03-.02-.76.32-1.606.84-2.411a3.235 3.235 0 0 0-1.862 2.303zM30.8 68.366c-.082.367-.023.76.096 1.114.135.351.345.656.573.92.249.265.487.458.666.654.201.198.355.42.463.634.097.215.129.433.024.671-.095.247-.311.478-.563.685.328-.03.656-.166.925-.436.267-.27.379-.741.282-1.123-.16-.766-.772-1.288-1.133-1.68-.382-.406-.629-.863-.642-1.373-.014-.518.215-1.093.57-1.637a2.208 2.208 0 0 0-1.262 1.57z"/></g></svg>