<?xml version="1.0" encoding="UTF-8" standalone="no"?>
<!-- Generator: Adobe Illustrator 18.1.1, SVG Export Plug-In . SVG Version: 6.00 Build 0)  -->

<svg
   xmlns:dc="http://purl.org/dc/elements/1.1/"
   xmlns:cc="http://creativecommons.org/ns#"
   xmlns:rdf="http://www.w3.org/1999/02/22-rdf-syntax-ns#"
   xmlns:svg="http://www.w3.org/2000/svg"
   xmlns="http://www.w3.org/2000/svg"
   xmlns:sodipodi="http://sodipodi.sourceforge.net/DTD/sodipodi-0.dtd"
   xmlns:inkscape="http://www.inkscape.org/namespaces/inkscape"
   version="1.1"
   id="Capa_1"
   x="0px"
   y="0px"
   viewBox="0 0 100 100"
   xml:space="preserve"
   sodipodi:docname="chef-cooking-on-stove.svg"
   width="100"
   height="100"
   inkscape:version="0.92.2 (5c3e80d, 2017-08-06)"><metadata
     id="metadata57"><rdf:RDF><cc:Work
         rdf:about=""><dc:format>image/svg+xml</dc:format><dc:type
           rdf:resource="http://purl.org/dc/dcmitype/StillImage" /><dc:title></dc:title></cc:Work></rdf:RDF></metadata><defs
     id="defs55" /><sodipodi:namedview
     pagecolor="#ffffff"
     bordercolor="#666666"
     borderopacity="1"
     objecttolerance="10"
     gridtolerance="10"
     guidetolerance="10"
     inkscape:pageopacity="0"
     inkscape:pageshadow="2"
     inkscape:window-width="1366"
     inkscape:window-height="708"
     id="namedview53"
     showgrid="false"
     inkscape:pagecheckerboard="true"
     inkscape:zoom="4.0198266"
     inkscape:cx="13.184648"
     inkscape:cy="49.255856"
     inkscape:window-x="0"
     inkscape:window-y="32"
     inkscape:window-maximized="1"
     inkscape:current-layer="Capa_1" /><g
     id="g20"
     transform="matrix(1.690683,0,0,1.690683,-0.25837899,0.74169412)"
     style="fill:#ffffff;fill-opacity:1"><g
       id="g18"
       style="fill:#ffffff;fill-opacity:1"><path
         style="fill:#ffffff;fill-opacity:1"
         d="m 24.516,8.964 v 5.81 h 0.085 9.306 0.098 V 8.797 C 34.943,8.497 35.747,7.801 36.122,6.806 36.775,5.079 35.903,3.148 34.177,2.495 33.688,2.31 33.185,2.26 32.698,2.303 32.317,1.387 31.584,0.62 30.58,0.241 28.827,-0.421 26.9,0.33 26.014,1.92 24.471,1.84 22.983,2.737 22.41,4.261 c -0.715,1.884 0.231,3.982 2.106,4.703 z"
         id="path2"
         inkscape:connector-curvature="0" /><polygon
         style="fill:#ffffff;fill-opacity:1"
         points="10.459,58.709 48.249,58.709 48.249,52.724 34.993,52.724 10.459,52.724 "
         id="polygon4" /><path
         style="fill:#ffffff;fill-opacity:1"
         d="m 27.659,21.266 2.104,2.301 2.179,-2.117 c -1.065,-0.128 -2.579,-0.247 -4.283,-0.184 z"
         id="path6"
         inkscape:connector-curvature="0" /><path
         style="fill:#ffffff;fill-opacity:1"
         d="m 24.948,39.585 -2.447,4.24 H 20.61 19.574 16.689 v 0.971 h -1.053 c -0.356,0 -0.646,0.291 -0.646,0.646 0,0.357 0.29,0.646 0.646,0.646 h 1.053 v 5.5 h 15.044 v -5.5 h 1.051 c 0.357,0 0.648,-0.289 0.648,-0.646 0,-0.355 -0.291,-0.646 -0.648,-0.646 h -1.051 v -0.971 h -8.407 l 2.313,-4.011 c 0.108,0.036 0.223,0.074 0.328,0.108 3.833,1.255 5.462,-4.77 1.658,-6.017 -2.532,-0.827 -6.397,-2.001 -8.024,-4.244 0.027,-0.023 0.055,-0.047 0.09,-0.07 0.348,-0.238 0.727,-0.435 1.119,-0.61 V 29.5 c 0.386,0.306 0.743,0.563 1.048,0.731 1.631,1.271 4.245,2.122 6.095,2.724 l 0.391,0.127 c 2.42,0.793 3.203,3.01 2.91,4.854 -0.34,2.127 -1.951,3.612 -3.919,3.612 -0.449,0 -0.913,-0.076 -1.377,-0.229 -0.073,-0.023 -0.157,-0.052 -0.229,-0.076 l -1.022,1.672 h 7.836 v 0.971 h 0.271 c 0.786,0 1.427,0.641 1.427,1.427 0,0.786 -0.641,1.426 -1.427,1.426 h -0.271 v 5.075 h 4.379 V 29.362 c 0.053,0.043 0.109,0.081 0.162,0.127 2.258,1.964 2.041,5.382 1.699,8.062 -0.508,3.98 5.734,3.934 6.236,0 0.577,-4.514 -0.175,-9.168 -3.525,-12.471 -2.095,-2.062 -4.902,-3.027 -7.793,-3.358 l -2.979,2.896 2.565,2.805 -1.05,0.96 -6.38,-6.979 c -0.795,0.093 -1.604,0.227 -2.411,0.428 -4.496,0.897 -11.324,3.11 -10.124,8.881 1.02,4.899 7.209,7.382 11.626,8.872 z"
         id="path8"
         inkscape:connector-curvature="0" /><path
         style="fill:#ffffff;fill-opacity:1"
         d="m 33.92,15.451 h -9.333 c 0,2.578 2.091,4.667 4.667,4.667 2.579,0 4.666,-2.089 4.666,-4.667 z"
         id="path10"
         inkscape:connector-curvature="0" /><path
         style="fill:#ffffff;fill-opacity:1"
         d="m 20.999,39.515 -0.013,3.4 h 1.095 l 1.452,-2.42 c -0.801,-0.286 -1.681,-0.609 -2.534,-0.98 z"
         id="path12"
         inkscape:connector-curvature="0" /><path
         style="fill:#ffffff;fill-opacity:1"
         d="m 15.471,38.152 c -0.07,0.323 -0.02,0.669 0.085,0.979 0.117,0.308 0.301,0.572 0.501,0.805 0.217,0.229 0.426,0.396 0.582,0.57 0.175,0.173 0.311,0.365 0.405,0.552 0.084,0.188 0.114,0.379 0.021,0.591 -0.084,0.216 -0.273,0.417 -0.493,0.598 0.288,-0.024 0.574,-0.144 0.809,-0.38 0.236,-0.235 0.332,-0.646 0.247,-0.981 -0.141,-0.67 -0.675,-1.125 -0.991,-1.469 -0.332,-0.355 -0.548,-0.754 -0.562,-1.201 -0.011,-0.449 0.19,-0.95 0.497,-1.426 -0.518,0.231 -0.97,0.711 -1.101,1.362 z"
         id="path14"
         inkscape:connector-curvature="0" /><path
         style="fill:#ffffff;fill-opacity:1"
         d="m 18.37,39.998 c -0.048,0.217 -0.013,0.45 0.057,0.659 0.08,0.208 0.204,0.388 0.339,0.544 0.147,0.157 0.288,0.271 0.394,0.387 0.119,0.117 0.21,0.248 0.274,0.375 0.057,0.127 0.076,0.256 0.014,0.397 -0.056,0.146 -0.184,0.283 -0.333,0.405 0.194,-0.018 0.388,-0.098 0.547,-0.258 0.158,-0.159 0.224,-0.438 0.167,-0.664 -0.095,-0.453 -0.457,-0.762 -0.67,-0.994 -0.226,-0.24 -0.372,-0.51 -0.38,-0.812 -0.008,-0.306 0.127,-0.646 0.337,-0.968 -0.352,0.161 -0.658,0.485 -0.746,0.929 z"
         id="path16"
         inkscape:connector-curvature="0" /></g></g><g
     id="g22"
     transform="translate(0,41.291)" /><g
     id="g24"
     transform="translate(0,41.291)" /><g
     id="g26"
     transform="translate(0,41.291)" /><g
     id="g28"
     transform="translate(0,41.291)" /><g
     id="g30"
     transform="translate(0,41.291)" /><g
     id="g32"
     transform="translate(0,41.291)" /><g
     id="g34"
     transform="translate(0,41.291)" /><g
     id="g36"
     transform="translate(0,41.291)" /><g
     id="g38"
     transform="translate(0,41.291)" /><g
     id="g40"
     transform="translate(0,41.291)" /><g
     id="g42"
     transform="translate(0,41.291)" /><g
     id="g44"
     transform="translate(0,41.291)" /><g
     id="g46"
     transform="translate(0,41.291)" /><g
     id="g48"
     transform="translate(0,41.291)" /><g
     id="g50"
     transform="translate(0,41.291)" /></svg>