<?xml version="1.0" encoding="UTF-8" standalone="no"?>
<svg
   xmlns:dc="http://purl.org/dc/elements/1.1/"
   xmlns:cc="http://creativecommons.org/ns#"
   xmlns:rdf="http://www.w3.org/1999/02/22-rdf-syntax-ns#"
   xmlns:svg="http://www.w3.org/2000/svg"
   xmlns="http://www.w3.org/2000/svg"
   xmlns:sodipodi="http://sodipodi.sourceforge.net/DTD/sodipodi-0.dtd"
   xmlns:inkscape="http://www.inkscape.org/namespaces/inkscape"
   viewBox="0 0 384.255 385.26999"
   version="1.1"
   x="0px"
   y="0px"
   id="svg38"
   sodipodi:docname="Stats.svg"
   width="384.255"
   height="385.26999"
   inkscape:version="0.92.3 (2405546, 2018-03-11)">
  <metadata
     id="metadata44">
    <rdf:RDF>
      <cc:Work
         rdf:about="">
        <dc:format>image/svg+xml</dc:format>
        <dc:type
           rdf:resource="http://purl.org/dc/dcmitype/StillImage" />
        <dc:title>Seo and Web-04</dc:title>
      </cc:Work>
    </rdf:RDF>
  </metadata>
  <defs
     id="defs42" />
  <sodipodi:namedview
     pagecolor="#ffffff"
     bordercolor="#666666"
     borderopacity="1"
     objecttolerance="10"
     gridtolerance="10"
     guidetolerance="10"
     inkscape:pageopacity="0"
     inkscape:pageshadow="2"
     inkscape:window-width="1920"
     inkscape:window-height="1018"
     id="namedview40"
     showgrid="false"
     fit-margin-top="5"
     fit-margin-left="5"
     fit-margin-right="5"
     fit-margin-bottom="5"
     inkscape:pagecheckerboard="true"
     inkscape:zoom="1.5042452"
     inkscape:cx="236.5724"
     inkscape:cy="162.51988"
     inkscape:window-x="0"
     inkscape:window-y="34"
     inkscape:window-maximized="1"
     inkscape:current-layer="svg38" />
  <title
     id="title2">Seo and Web-04</title>
  <desc
     id="desc4">Created with Sketch.</desc>
  <rect
     ry="16.678524"
     y="97.999985"
     x="277.04001"
     height="259.03"
     width="60.5"
     id="rect836"
     style="opacity:1;fill:#17becf;fill-opacity:1;fill-rule:nonzero;stroke:none;stroke-width:1.68838251;stroke-linecap:butt;stroke-linejoin:miter;stroke-miterlimit:4;stroke-dasharray:none;stroke-dashoffset:0;stroke-opacity:1" />
  <rect
     style="opacity:1;fill:#ff7f0e;fill-opacity:1;fill-rule:nonzero;stroke:none;stroke-width:1.30335641;stroke-linecap:butt;stroke-linejoin:miter;stroke-miterlimit:4;stroke-dasharray:none;stroke-dashoffset:0;stroke-opacity:1"
     id="rect834"
     width="60.5"
     height="154.36"
     x="199.39999"
     y="202.66998"
     ry="9.9389915" />
  <rect
     ry="13.339342"
     y="149.85999"
     x="121.75"
     height="207.17"
     width="60.5"
     id="rect832"
     style="opacity:1;fill:#2ca02c;fill-opacity:1;fill-rule:nonzero;stroke:none;stroke-width:1.50993836;stroke-linecap:butt;stroke-linejoin:miter;stroke-miterlimit:4;stroke-dasharray:none;stroke-dashoffset:0;stroke-opacity:1" />
  <rect
     style="opacity:1;fill:#d62728;fill-opacity:1;fill-rule:nonzero;stroke:none;stroke-width:1.11830795;stroke-linecap:butt;stroke-linejoin:miter;stroke-miterlimit:4;stroke-dasharray:none;stroke-dashoffset:0;stroke-opacity:1"
     id="rect830"
     width="60.5"
     height="113.64"
     x="37.360001"
     y="243.38998"
     ry="7.3170962" />
  <path
     style="fill:#ffffff;fill-opacity:1;fill-rule:nonzero;stroke:none;stroke-width:1;stroke-opacity:1"
     d="M 371.93,358.29 H 12.87 c -4.0454858,0 -7.325,-3.27951 -7.325,-7.325 0,-4.04549 3.2795142,-7.325 7.325,-7.325 h 359.06 c 4.04549,0 7.325,3.27951 7.325,7.325 0,4.04549 -3.27951,7.325 -7.325,7.325 z"
     id="path6"
     inkscape:connector-curvature="0" />
  <path
     style="fill:#ffffff;fill-opacity:1;fill-rule:nonzero;stroke:none;stroke-width:1;stroke-opacity:1"
     d="m 242.04,135.26 c -2.71301,0.0146 -5.21157,-1.47261 -6.49232,-3.86433 -1.28075,-2.39172 -1.13362,-5.29565 0.38232,-7.54567 l 55,-81.81 c 1.3813,-2.336709 3.94226,-3.717186 6.65356,-3.586586 2.7113,0.1306 5.12771,1.750832 6.27802,4.209485 1.15032,2.458654 0.84564,5.351987 -0.79158,7.517101 l -54.94,81.84 c -1.36197,2.02878 -3.64646,3.24417 -6.09,3.24 z"
     id="path24"
     inkscape:connector-curvature="0" />
  <path
     style="fill:#ffffff;fill-opacity:1;fill-rule:nonzero;stroke:none;stroke-width:1;stroke-opacity:1"
     d="m 213.17,141.09 c -1.6091,1.6e-4 -3.17329,-0.53061 -4.45,-1.51 L 162.2,103.9 c -3.04606,-2.51008 -3.55761,-6.981422 -1.1572,-10.114627 2.40042,-3.133205 6.85079,-3.803101 10.0672,-1.515373 l 46.52,35.68 c 2.48646,1.9126 3.48024,5.19544 2.47198,8.16595 -1.00826,2.97052 -3.79502,4.97016 -6.93198,4.97405 z"
     id="path26"
     inkscape:connector-curvature="0" />
  <path
     style="fill:#ffffff;fill-opacity:1;fill-rule:nonzero;stroke:none;stroke-width:1;stroke-opacity:1"
     d="m 79.71,176.82 c -2.872304,3.6e-4 -5.479384,-1.67917 -6.66649,-4.29469 C 71.856403,169.9098 72.308674,166.84172 74.2,164.68 l 60.18,-68.8 c 1.68431,-2.098291 4.384,-3.103397 7.03043,-2.617457 2.64642,0.485941 4.81293,2.384583 5.64191,4.944369 0.82899,2.559788 0.18681,5.368018 -1.67234,7.313088 l -60.18,68.8 c -1.383202,1.58692 -3.384876,2.49842 -5.49,2.5 z"
     id="path28"
     inkscape:connector-curvature="0" />
  <circle
     style="opacity:1;fill:#ffffff;fill-opacity:1;fill-rule:nonzero;stroke:none;stroke-width:1.58344829;stroke-linecap:butt;stroke-linejoin:miter;stroke-miterlimit:4;stroke-dasharray:none;stroke-dashoffset:0;stroke-opacity:1"
     id="path876"
     cx="67.610001"
     cy="183.38998"
     r="25.790001" />
  <circle
     r="25.790001"
     cy="86.849991"
     cx="152.009"
     id="circle878"
     style="opacity:1;fill:#ffffff;fill-opacity:1;fill-rule:nonzero;stroke:none;stroke-width:1.58344829;stroke-linecap:butt;stroke-linejoin:miter;stroke-miterlimit:4;stroke-dasharray:none;stroke-dashoffset:0;stroke-opacity:1" />
  <circle
     style="opacity:1;fill:#ffffff;fill-opacity:1;fill-rule:nonzero;stroke:none;stroke-width:1.58344829;stroke-linecap:butt;stroke-linejoin:miter;stroke-miterlimit:4;stroke-dasharray:none;stroke-dashoffset:0;stroke-opacity:1"
     id="circle880"
     cx="229.64999"
     cy="146.38998"
     r="25.790001" />
  <circle
     r="25.790001"
     cy="30.789988"
     cx="307.29001"
     id="circle882"
     style="opacity:1;fill:#ffffff;fill-opacity:1;fill-rule:nonzero;stroke:none;stroke-width:1.58344829;stroke-linecap:butt;stroke-linejoin:miter;stroke-miterlimit:4;stroke-dasharray:none;stroke-dashoffset:0;stroke-opacity:1" />
</svg>
