<svg xmlns="http://www.w3.org/2000/svg" width="384.255" height="385.27"><rect ry="16.679" y="98" x="277.04" height="259.03" width="60.5" fill="#17becf"/><rect width="60.5" height="154.36" x="199.4" y="202.67" ry="9.939" fill="#ff7f0e"/><rect ry="13.339" y="149.86" x="121.75" height="207.17" width="60.5" fill="#2ca02c"/><rect width="60.5" height="113.64" x="37.36" y="243.39" ry="7.317" fill="#d62728"/><path d="M371.93 358.29H12.87a7.325 7.325 0 110-14.65h359.06a7.325 7.325 0 110 14.65zM242.04 135.26a7.32 7.32 0 01-6.11-11.41l55-81.81a7.32 7.32 0 1112.14 8.14l-54.94 81.84a7.32 7.32 0 01-6.09 3.24zm-28.87 5.83a7.31 7.31 0 01-4.45-1.51L162.2 103.9a7.33 7.33 0 018.91-11.63l46.52 35.68a7.33 7.33 0 01-4.46 13.14zM79.71 176.82a7.32 7.32 0 01-5.51-12.14l60.18-68.8a7.32 7.32 0 1111 9.64l-60.18 68.8a7.29 7.29 0 01-5.49 2.5z" fill="#fff"/><circle cx="67.61" cy="183.39" r="25.79" fill="#fff"/><circle r="25.79" cy="86.85" cx="152.009" fill="#fff"/><circle cx="229.65" cy="146.39" r="25.79" fill="#fff"/><circle r="25.79" cy="30.79" cx="307.29" fill="#fff"/></svg>