<svg aria-hidden="true" fill="currentColor" viewBox="0 0 32 32" xmlns="http://www.w3.org/2000/svg"><path d="M16 9.774c-3.4 0-6.1 2.8-6.1 6.1s2.7 6.3 6.1 6.3c3.4 0 6.1-2.8 6.1-6.1s-2.7-6.3-6.1-6.3zm13.3 11l-3.3-4.8 3.3-4.8c.3-.5.1-1.1-.5-1.2l-5.7-1-1-5.7c-.1-.6-.8-.8-1.2-.5l-4.9 3.3-4.8-3.3c-.5-.4-1.2-.1-1.3.4l-1 5.8-5.7 1c-.6.1-.8.8-.5 1.2l3.3 4.8-3.3 4.8c-.3.5-.1 1.1.5 1.2l5.7 1 1 5.7c.1.6.8.8 1.2.5l4.9-3.2 4.8 3.3c.5.3 1.1.1 1.2-.5l1-5.7 5.7-1c.7-.1.9-.8.6-1.3zm-13.3 2.7a7.6 7.6 0 01-7.7-7.5c0-4.2 3.5-7.5 7.7-7.5s7.7 3.4 7.7 7.5c0 4.2-3.4 7.5-7.7 7.5z" fill="#d5c4a1"/></svg>