<?xml version="1.0" encoding="UTF-8" standalone="no"?>
<svg
   data-name="Layer 1"
   viewBox="0 0 46.868698 55"
   x="0px"
   y="0px"
   version="1.1"
   id="svg10"
   sodipodi:docname="noun_play_4216015.svg"
   width="46.868698"
   height="55"
   inkscape:version="1.1 (1:1.1+202105261517+ce6663b3b7)"
   inkscape:export-filename="/home/tom/Recipes/resources/img/noun_play_4216015.png"
   inkscape:export-xdpi="96"
   inkscape:export-ydpi="96"
   xmlns:inkscape="http://www.inkscape.org/namespaces/inkscape"
   xmlns:sodipodi="http://sodipodi.sourceforge.net/DTD/sodipodi-0.dtd"
   xmlns="http://www.w3.org/2000/svg"
   xmlns:svg="http://www.w3.org/2000/svg"
   xmlns:rdf="http://www.w3.org/1999/02/22-rdf-syntax-ns#"
   xmlns:cc="http://creativecommons.org/ns#"
   xmlns:dc="http://purl.org/dc/elements/1.1/">
  <defs
     id="defs14" />
  <sodipodi:namedview
     id="namedview12"
     pagecolor="#ffffff"
     bordercolor="#666666"
     borderopacity="1.0"
     inkscape:pageshadow="2"
     inkscape:pageopacity="0.0"
     inkscape:pagecheckerboard="true"
     showgrid="false"
     fit-margin-top="0"
     fit-margin-left="0"
     fit-margin-right="0"
     fit-margin-bottom="0"
     inkscape:zoom="11.287606"
     inkscape:cx="24.54019"
     inkscape:cy="25.51471"
     inkscape:window-width="1920"
     inkscape:window-height="1020"
     inkscape:window-x="0"
     inkscape:window-y="32"
     inkscape:window-maximized="1"
     inkscape:current-layer="svg10" />
  <title
     id="title2">Artboard 1 copy 2</title>
  <path
     d="M 4.4036135,54.999999 A 4.4000603,4.4000603 0 0 1 4.9405991e-7,50.597855 V 4.4036081 A 4.4034656,4.4034656 0 0 1 6.6885595,0.63931132 L 44.748556,23.735349 a 4.4032308,4.4032308 0 0 1 0.0015,7.529282 L 6.6871205,54.362092 a 4.4011171,4.4011171 0 0 1 -2.283507,0.637907 z M 5.8714845,7.0117941 V 47.988891 L 39.635375,27.500349 Z"
     id="path4"
     style="fill:#ffffff;fill-opacity:1;stroke:none;stroke-width:1.46788;stroke-opacity:1" />
  <metadata
     id="metadata831">
    <rdf:RDF>
      <cc:Work
         rdf:about="">
        <dc:title>Artboard 1 copy 2</dc:title>
      </cc:Work>
    </rdf:RDF>
  </metadata>
  <path
     style="fill:#ffffff;fill-opacity:1;stroke:none;stroke-width:0.226084;stroke-linecap:round;stroke-linejoin:round;stroke-miterlimit:4;stroke-dasharray:none;stroke-dashoffset:0;stroke-opacity:1"
     d="m 4.9660765,27.506296 c 0,-13.794487 0.043,-22.4932809 0.111039,-22.4688409 0.06107,0.02193 8.4042565,5.0731469 18.5403945,11.2249189 13.961381,8.473369 18.393884,11.217464 18.283084,11.318778 -0.100772,0.09214 -35.4724305,21.578662 -36.8448015,22.381383 -0.04934,0.02886 -0.08972,-10.076442 -0.08972,-22.456239 z"
     id="path1386" />
</svg>
