<?xml version="1.0" encoding="UTF-8" standalone="no"?>
<svg
   version="1.1"
   x="0px"
   y="0px"
   viewBox="0 0 55.000004 55.016232"
   enable-background="new 0 0 100 100"
   xml:space="preserve"
   id="svg8"
   sodipodi:docname="noun_restart_848601.svg"
   width="55.000004"
   height="55.016232"
   inkscape:version="1.1 (1:1.1+202105261517+ce6663b3b7)"
   inkscape:export-filename="/home/tom/Recipes/resources/img/noun_restart_848601.png"
   inkscape:export-xdpi="95.999992"
   inkscape:export-ydpi="95.999992"
   xmlns:inkscape="http://www.inkscape.org/namespaces/inkscape"
   xmlns:sodipodi="http://sodipodi.sourceforge.net/DTD/sodipodi-0.dtd"
   xmlns="http://www.w3.org/2000/svg"
   xmlns:svg="http://www.w3.org/2000/svg"><defs
     id="defs12" /><sodipodi:namedview
     id="namedview10"
     pagecolor="#ffffff"
     bordercolor="#666666"
     borderopacity="1.0"
     inkscape:pageshadow="2"
     inkscape:pageopacity="0.0"
     inkscape:pagecheckerboard="true"
     showgrid="false"
     fit-margin-top="0"
     fit-margin-left="0"
     fit-margin-right="0"
     fit-margin-bottom="0"
     inkscape:zoom="9.1944537"
     inkscape:cx="19.033214"
     inkscape:cy="26.864021"
     inkscape:window-width="1920"
     inkscape:window-height="1020"
     inkscape:window-x="0"
     inkscape:window-y="32"
     inkscape:window-maximized="1"
     inkscape:current-layer="svg8" /><path
     d="M 8.1041778,8.0011569 C 13.434413,2.7020009 20.510314,-0.13794229 28.027812,0.00515561 L 27.952052,3.9885879 C 21.523006,3.8662109 15.4721,6.2949899 10.913039,10.826207 c -9.2010027,9.14726 -9.2463276,24.076065 -0.09777,33.277067 9.146614,9.202298 24.07477,9.246328 33.277067,0.09907 7.545988,-7.501958 8.928404,-18.890869 4.13689,-27.822511 -1.006866,2.909226 -2.091431,4.320133 -2.091431,4.320133 -1.690627,2.424247 -3.150097,0.06734 -3.150097,0.06734 L 34.124045,3.5968519 53.298519,5.9945499 c 0,0 2.71368,0.557499 1.021757,2.981098 0,0 -1.036002,1.6362381 -3.649967,3.7043581 6.836972,10.672128 5.574344,25.058326 -3.770404,34.348035 C 36.139714,57.724769 18.683711,57.671674 7.9882728,46.911488 -2.707811,36.152596 -2.6560102,18.697239 8.1041738,8.0011539 Z"
     id="path2"
     style="fill:#ffffff;fill-opacity:1;stroke-width:0.647502"
     inkscape:export-filename="/home/tom/Recipes/resources/img/path2.png"
     inkscape:export-xdpi="80"
     inkscape:export-ydpi="80" /></svg>
