<svg xmlns="http://www.w3.org/2000/svg" width="100" height="100"><path d="M81.097 30.451l4.667-4.667a3.707 3.707 0 1 0-5.243-5.243l-4.667 4.667a40.6 40.6 0 0 0-22.376-9.285V8.331h3.708a3.71 3.71 0 0 0 3.708-3.708A3.71 3.71 0 0 0 57.186.915H42.355a3.71 3.71 0 0 0-3.708 3.708 3.71 3.71 0 0 0 3.708 3.708h3.708v7.592a40.6 40.6 0 0 0-22.376 9.285L19.02 20.54a3.707 3.707 0 1 0-5.243 5.243l4.667 4.667c-5.903 7.075-9.46 16.17-9.46 26.084 0 22.49 18.296 40.787 40.787 40.787 22.49 0 40.787-18.297 40.787-40.787 0-9.914-3.558-19.01-9.46-26.084zM49.771 89.906c-18.401 0-33.372-14.97-33.372-33.371 0-18.401 14.97-33.372 33.372-33.372 18.4 0 33.371 14.97 33.371 33.372 0 18.4-14.97 33.371-33.371 33.371z" fill="#333"/><path d="M49.77 30.579a3.71 3.71 0 0 0-3.707 3.708v22.248a3.71 3.71 0 0 0 3.708 3.708 3.71 3.71 0 0 0 3.707-3.708V34.287a3.71 3.71 0 0 0-3.707-3.708z" fill="#333"/></svg>