<svg width="55" height="55.016" xmlns="http://www.w3.org/2000/svg"><path d="M8.104 8.001C13.434 2.702 20.51-.138 28.028.005l-.076 3.984c-6.429-.123-12.48 2.306-17.039 6.837-9.201 9.147-9.246 24.076-.098 33.277 9.147 9.203 24.075 9.247 33.277.1C51.638 36.7 53.021 25.31 48.23 16.38c-1.007 2.91-2.091 4.32-2.091 4.32-1.69 2.424-3.15.067-3.15.067l-8.864-17.17L53.3 5.995s2.713.557 1.021 2.98c0 0-1.036 1.637-3.65 3.705 6.837 10.672 5.575 25.058-3.77 34.348-10.76 10.697-28.216 10.644-38.912-.117-10.696-10.758-10.644-28.214.116-38.91z" fill="#fff"/></svg>