<svg xmlns="http://www.w3.org/2000/svg" width="335" height="335"><path d="M146.414 62.024c1.072-15.422 15.702-27.347 31.47-23.42l4.306 1.087c7.636 1.913 14.416 7.522 16.692 15.917 3.628 13.46 8.79 41.417 1.022 74.39a165 165 0 0 1 7.307-.842c11.76-1.072 27.53-1.188 41.5 3.464 8.544 2.853 16.395 11.232 19.793 20.997 3.035 8.775 2.64 19.166-3.86 28.584q1.42 2.97 2.277 5.988c1.27 4.453 1.863 9.352 1.863 14.12 0 4.766-.593 9.665-1.863 14.118-.644 2.227-1.485 4.503-2.64 6.664 2.788 6.383 1.765 13.51-.05 18.935a52.8 52.8 0 0 1-8.05 14.861c.892 2.508 1.255 5.147 1.255 7.67 0 5.031-1.468 10.31-4.173 15.043-5.51 9.666-16.444 17.55-31.9 17.55h-57.73c-9.98 0-17.648-1.336-24.18-3.596a79.2 79.2 0 0 1-16-7.983l-.79-.495c-8.314-5.064-16.479-10.045-34.11-11.909-12.636-1.352-23.885-11.546-23.885-25.5V181.69c0-14.02 11.3-23.62 22.383-26.638 14.003-3.827 25.962-12.98 35.165-23.257 9.237-10.342 15.076-21.113 17.138-27.034 3.282-9.484 5.872-25.385 7.06-42.72z" style="fill:#32302f;fill-opacity:1;stroke-width:16.4942"/></svg>