<svg xmlns="http://www.w3.org/2000/svg" width="512" height="512"><path d="M0 0h512v512H0z" style="fill:#a89984;fill-opacity:1;stroke-width:.784064"/><path d="M251.746 224.176c1.072-15.422 15.702-27.347 31.47-23.421l4.306 1.088c7.636 1.913 14.416 7.522 16.692 15.917 3.628 13.46 8.791 41.417 1.022 74.39a165 165 0 0 1 7.307-.842c11.76-1.072 27.53-1.188 41.5 3.464 8.544 2.853 16.395 11.232 19.793 20.997 3.035 8.775 2.64 19.166-3.86 28.584q1.419 2.97 2.277 5.988c1.27 4.453 1.863 9.352 1.863 14.119s-.593 9.666-1.863 14.119c-.644 2.227-1.485 4.503-2.64 6.664 2.788 6.383 1.765 13.508-.049 18.935a52.8 52.8 0 0 1-8.05 14.861c.891 2.508 1.254 5.147 1.254 7.67 0 5.031-1.468 10.31-4.173 15.043-5.509 9.666-16.444 17.55-31.9 17.55h-57.73c-9.979 0-17.648-1.336-24.18-3.596a79.2 79.2 0 0 1-16-7.983l-.791-.495c-8.313-5.064-16.478-10.045-34.11-11.909-12.635-1.352-23.884-11.546-23.884-25.5v-65.977c0-14.02 11.299-23.62 22.383-26.638 14.003-3.827 25.962-12.981 35.165-23.257 9.237-10.342 15.076-21.113 17.138-27.034 3.282-9.484 5.872-25.385 7.06-42.72z" style="fill:#7c6f64;fill-opacity:1;stroke-width:16.4942"/><path d="M231.746 204.176c1.072-15.422 15.702-27.347 31.47-23.421l4.306 1.088c7.636 1.913 14.416 7.522 16.692 15.917 3.628 13.46 8.791 41.417 1.022 74.39a165 165 0 0 1 7.307-.842c11.76-1.072 27.53-1.188 41.5 3.464 8.544 2.853 16.395 11.232 19.793 20.997 3.035 8.775 2.64 19.166-3.86 28.584q1.419 2.97 2.277 5.988c1.27 4.453 1.863 9.352 1.863 14.119s-.593 9.666-1.863 14.119c-.644 2.227-1.485 4.503-2.64 6.664 2.788 6.383 1.765 13.508-.049 18.935a52.8 52.8 0 0 1-8.05 14.861c.891 2.508 1.254 5.147 1.254 7.67 0 5.031-1.468 10.31-4.173 15.043-5.509 9.666-16.444 17.55-31.9 17.55h-57.73c-9.979 0-17.648-1.336-24.18-3.596a79.2 79.2 0 0 1-16-7.983l-.791-.495c-8.313-5.064-16.478-10.045-34.11-11.909-12.635-1.352-23.884-11.546-23.884-25.5v-65.977c0-14.02 11.299-23.62 22.383-26.638 14.003-3.827 25.962-12.981 35.165-23.257 9.237-10.342 15.076-21.113 17.138-27.034 3.282-9.484 5.872-25.385 7.06-42.72z" style="fill:#504945;fill-opacity:1;stroke-width:16.4942"/><path d="M211.746 184.176c1.072-15.422 15.702-27.347 31.47-23.421l4.306 1.088c7.636 1.913 14.416 7.522 16.692 15.917 3.628 13.46 8.791 41.417 1.022 74.39a165 165 0 0 1 7.307-.842c11.76-1.072 27.53-1.188 41.5 3.464 8.544 2.853 16.395 11.232 19.793 20.997 3.035 8.775 2.64 19.166-3.86 28.584q1.419 2.97 2.277 5.988c1.27 4.453 1.863 9.352 1.863 14.119s-.593 9.666-1.863 14.119c-.644 2.227-1.485 4.503-2.64 6.664 2.788 6.383 1.765 13.509-.049 18.935a52.8 52.8 0 0 1-8.05 14.861c.891 2.508 1.254 5.147 1.254 7.67 0 5.031-1.468 10.31-4.173 15.043-5.509 9.666-16.444 17.55-31.9 17.55h-57.73c-9.979 0-17.648-1.336-24.18-3.596a79.2 79.2 0 0 1-16-7.983l-.791-.495c-8.313-5.064-16.478-10.045-34.11-11.909-12.635-1.352-23.884-11.546-23.884-25.5v-65.977c0-14.02 11.299-23.62 22.383-26.638 14.003-3.827 25.962-12.981 35.165-23.257 9.237-10.342 15.076-21.113 17.138-27.034 3.282-9.484 5.872-25.385 7.06-42.72z" style="fill:#32302f;fill-opacity:1;stroke-width:16.4942"/></svg>