<?xml version="1.0" encoding="UTF-8" standalone="no"?>
<svg
   xmlns:dc="http://purl.org/dc/elements/1.1/"
   xmlns:cc="http://creativecommons.org/ns#"
   xmlns:rdf="http://www.w3.org/1999/02/22-rdf-syntax-ns#"
   xmlns:svg="http://www.w3.org/2000/svg"
   xmlns="http://www.w3.org/2000/svg"
   xmlns:sodipodi="http://sodipodi.sourceforge.net/DTD/sodipodi-0.dtd"
   xmlns:inkscape="http://www.inkscape.org/namespaces/inkscape"
   version="1.1"
   x="0px"
   y="0px"
   viewBox="0 0 100 100"
   xml:space="preserve"
   id="svg18"
   sodipodi:docname="Turkey.svg"
   width="100"
   height="100"
   inkscape:version="0.92.3 (2405546, 2018-03-11)"><metadata
     id="metadata24"><rdf:RDF><cc:Work
         rdf:about=""><dc:format>image/svg+xml</dc:format><dc:type
           rdf:resource="http://purl.org/dc/dcmitype/StillImage" /><dc:title></dc:title></cc:Work></rdf:RDF></metadata><defs
     id="defs22" /><sodipodi:namedview
     pagecolor="#ffffff"
     bordercolor="#666666"
     borderopacity="1"
     objecttolerance="10"
     gridtolerance="10"
     guidetolerance="10"
     inkscape:pageopacity="0"
     inkscape:pageshadow="2"
     inkscape:window-width="1920"
     inkscape:window-height="1018"
     id="namedview20"
     showgrid="false"
     inkscape:zoom="1.888"
     inkscape:cx="-124.5233"
     inkscape:cy="62.5"
     inkscape:window-x="0"
     inkscape:window-y="34"
     inkscape:window-maximized="1"
     inkscape:current-layer="svg18" /><g
     id="g844"
     style="fill:#ffffff;fill-opacity:1"><path
       style="stroke-width:1.28248775;fill:#ffffff;fill-opacity:1"
       d="m 24.385658,94.866672 c 0.258626,-1.001318 -0.136516,-1.710193 -0.394517,-2.043965 -0.438976,-0.566098 -1.100259,-0.891103 -1.815396,-0.891103 -1.062686,0 -1.923731,-0.861046 -1.923731,-1.923732 V 76.453924 c -0.293382,0.05229 -0.586294,0.106844 -0.88672,0.134166 -0.28117,0.02568 -0.55921,0.04446 -0.832866,0.05824 -0.165947,0.0081 -0.331268,0.01193 -0.495962,0.01193 -0.81181,0 -1.601309,-0.12367 -2.371475,-0.308332 v 13.657978 c 0,1.062686 -0.861046,1.923732 -1.923732,1.923732 -0.715137,0 -1.37642,0.325006 -1.815396,0.891103 -0.258001,0.333773 -0.653143,1.042648 -0.394516,2.044591 0.192874,0.74457 0.822846,1.374542 1.567415,1.567416 1.344483,0.346923 2.415311,-0.432088 2.782899,-1.382055 0.335025,-0.867934 1.149731,-1.430276 2.074649,-1.431527 6.26e-4,0 0.0019,0 0.0026,0 0.924293,0 1.738999,0.561088 2.076529,1.429648 0.366962,0.950594 1.442799,1.727726 2.782271,1.383935 0.745196,-0.192875 1.375168,-0.822847 1.568043,-1.568043 z"
       id="path2"
       inkscape:connector-curvature="0" /><path
       style="stroke-width:1.28248775;fill:#ffffff;fill-opacity:1"
       d="m 88.136197,94.866672 c 0.258627,-1.001318 -0.136515,-1.710193 -0.394515,-2.043965 -0.438977,-0.566098 -1.10026,-0.891103 -1.815397,-0.891103 -1.062686,0 -1.923732,-0.861046 -1.923732,-1.923732 V 76.350519 c -0.76946,0.184577 -1.558101,0.308176 -2.36897,0.308334 -0.164068,0 -0.328762,-0.0044 -0.49471,-0.01257 -0.277413,-0.01377 -0.555451,-0.03256 -0.836623,-0.05824 -0.300426,-0.02732 -0.593338,-0.08187 -0.88672,-0.134166 v 13.553948 c 0,1.062686 -0.861045,1.923732 -1.923731,1.923732 -0.715137,0 -1.37642,0.325005 -1.815396,0.891103 -0.258001,0.333773 -0.653143,1.042647 -0.394515,2.044591 0.192873,0.74457 0.822845,1.374542 1.567415,1.567416 1.342605,0.344418 2.415309,-0.432089 2.782271,-1.382055 0.338157,-0.870439 1.152862,-1.431527 2.077155,-1.431527 0.0013,0 0.0019,0 0.0026,0 0.92492,0.0013 1.739624,0.563593 2.075275,1.433405 0.366963,0.946837 1.442799,1.723969 2.781647,1.380178 0.745195,-0.192875 1.375167,-0.822847 1.568042,-1.568043 z"
       id="path4"
       inkscape:connector-curvature="0" /><path
       style="stroke-width:1.28248775;fill:#ffffff;fill-opacity:1"
       d="m 80.584047,8.1340507 c 1.028167,2.0138293 1.588394,4.1975953 1.802481,6.3374493 0.246337,-0.271621 0.492988,-0.543162 0.756858,-0.811104 0.745196,-0.756468 1.963184,-0.765235 2.720903,-0.02066 0.756468,0.745822 0.765861,1.963809 0.02066,2.720903 -2.1296,2.162241 -3.565667,4.478844 -4.525028,6.776504 -0.05917,0.155145 -0.117027,0.313499 -0.179723,0.460659 -0.0051,0.01193 -0.01456,0.02043 -0.01988,0.03225 -1.999661,5.149521 -1.630976,10.140608 -1.121081,13.006792 3.960808,-2.687713 7.071843,-5.840704 9.26923,-9.398856 C 92.553513,21.98342 92.12393,15.085664 88.240772,10.074067 86.531831,7.8691656 84.693892,6.0988566 83.452733,5.0023552 82.476465,4.1400565 81.447594,4.1244012 80.75688,4.2646733 c -0.749345,0.1510745 -1.435128,0.5719691 -1.973439,1.1386158 0.685627,0.8434332 1.298065,1.7462777 1.800603,2.7307653 z"
       id="path6"
       inkscape:connector-curvature="0" /><path
       style="stroke-width:1.28248775;fill:#ffffff;fill-opacity:1"
       d="m 10.359073,27.237984 c 2.197388,3.558152 5.309048,6.71177 9.269231,9.398858 0.509895,-2.864542 0.879127,-7.855865 -1.120769,-13.006246 -0.0054,-0.01206 -0.01503,-0.02058 -0.0202,-0.03279 -0.06293,-0.147552 -0.120862,-0.306297 -0.180193,-0.46199 -0.959438,-2.297191 -2.395349,-4.613324 -4.524558,-6.775174 -0.745195,-0.757093 -0.735802,-1.975081 0.02066,-2.720903 0.758972,-0.744569 1.976332,-0.735176 2.720903,0.02066 0.26387,0.267943 0.510521,0.539485 0.756858,0.811106 0.214087,-2.139854 0.774314,-4.323622 1.802481,-6.337451 C 19.586025,7.1495644 20.198463,6.2467199 20.88409,5.4032867 20.34578,4.8366399 19.659997,4.4157454 18.910652,4.2646709 18.219311,4.1231471 17.191067,4.1381791 16.215424,5.0023528 14.97364,6.0988542 13.1357,7.8691631 11.42676,10.074066 7.5436021,15.085662 7.1140187,21.983417 10.359064,27.237985 Z"
       id="path8"
       inkscape:connector-curvature="0" /><path
       style="stroke-width:1.28248775;fill:#ffffff;fill-opacity:1"
       d="m 39.774258,75.681957 c 2.412179,-0.936191 5.146233,-1.997625 10.059514,-1.997625 4.913281,0 7.647335,1.061434 10.059514,1.997625 1.244289,0.483438 2.419694,0.939323 3.866249,1.251803 5.270537,1.142216 7.799583,-3.555882 8.59746,-5.470221 -1.504091,-2.718554 -2.318169,-6.189115 -2.409205,-10.329177 -0.04321,-1.939387 0.705117,-3.823041 2.10596,-5.304039 1.301274,-1.37454 3.483006,-4.117988 3.483006,-7.048047 0,-1.062686 0.861046,-1.923732 1.923732,-1.923732 1.062686,0 1.923732,0.861046 1.923732,1.923732 0,4.049105 -2.46666,7.50581 -4.535674,9.692553 -0.700108,0.740185 -1.074584,1.654459 -1.054546,2.574368 0.07828,3.547506 0.737681,6.448759 1.961305,8.623603 0.978774,1.741503 2.8092,2.893739 4.895121,3.084108 0.228568,0.02066 0.455258,0.03569 0.678817,0.04697 2.725913,0.135888 5.256446,-1.500411 6.29659,-4.062882 8.063766,-19.85226 2.376484,-26.419999 0.441481,-27.959862 -2.338286,-1.861736 -4.94835,-1.625027 -6.384259,-0.618074 -0.0097,0.0069 -0.02075,0.01052 -0.03061,0.01722 -0.610168,0.400934 -1.23333,0.794197 -1.87747,1.174465 -0.299957,0.177219 -0.638113,0.267395 -0.978148,0.267395 -0.227316,0 -0.455884,-0.04008 -0.673807,-0.122119 -0.544181,-0.20352 -0.967502,-0.641871 -1.150982,-1.192939 -0.15992,-0.47976 -3.011311,-9.359328 0.796623,-18.576817 C 78.745005,19.145406 79.334117,14.146647 77.157394,9.8836899 75.380197,6.4019355 72.125758,4.1018488 67.485507,3.0454251 64.247351,2.3096221 62.670543,2.9959596 60.28529,4.0373487 57.920703,5.0693512 54.976867,6.3537179 49.833766,6.3537179 c -5.143102,0 -8.086938,-1.2843667 -10.451524,-2.3163692 C 36.995111,2.9959545 35.417675,2.3083704 32.182024,3.0454251 27.541773,4.1018488 24.287334,6.4019355 22.510137,9.8836899 20.333258,14.14696 20.922683,19.14611 21.899109,21.730812 c 3.807542,9.217255 0.956307,18.096511 0.796388,18.576269 -0.183481,0.55107 -0.606802,0.989419 -1.150982,1.192939 -0.217923,0.08204 -0.446492,0.122119 -0.673808,0.122119 -0.340034,0 -0.678191,-0.09017 -0.978147,-0.267394 -0.644297,-0.380425 -1.267616,-0.773767 -1.87794,-1.174779 -0.0097,-0.0065 -0.02051,-0.01013 -0.03014,-0.0169 -1.436537,-1.006953 -4.044096,-1.241783 -6.384261,0.618074 -1.9350031,1.539863 -7.6222851,8.107602 0.441483,27.959862 1.040768,2.562471 3.570049,4.205658 6.300345,4.062881 0.219802,-0.01129 0.446492,-0.0263 0.675061,-0.04696 2.08592,-0.190369 3.916347,-1.342605 4.89512,-3.084108 1.223624,-2.174844 1.883028,-5.076097 1.961305,-8.623603 0.02004,-0.919909 -0.354438,-1.834183 -1.055172,-2.574996 -2.068388,-2.186114 -4.535048,-5.64282 -4.535048,-9.691925 0,-1.062687 0.861046,-1.923732 1.923732,-1.923732 1.062687,0 1.923732,0.861045 1.923732,1.923732 0,2.930058 2.181732,5.673506 3.48238,7.047421 1.401469,1.481624 2.149796,3.365278 2.106586,5.304665 -0.09103,4.13967 -0.90488,7.609918 -2.408734,10.328238 0.797954,1.912617 3.328174,6.61048 8.596989,5.47116 1.446555,-0.312481 2.62196,-0.768365 3.866249,-1.251803 z m 11.983246,-17.7081 c 0,1.062686 -0.861046,1.923732 -1.923732,1.923732 -1.062686,0 -1.923732,-0.861046 -1.923732,-1.923732 V 38.415918 c 0,-1.062687 0.861046,-1.923732 1.923732,-1.923732 1.062686,0 1.923732,0.861045 1.923732,1.923732 z M 32.996736,15.223428 c -1.038264,0.0263 -1.937508,-0.817836 -1.964435,-1.874887 -0.0263,-1.056424 0.795918,-1.936255 1.852343,-1.970698 0.398977,-0.01393 9.525587,-0.169391 16.949128,10.683458 7.421349,-10.851126 16.537392,-10.696217 16.949128,-10.683458 1.06206,0.03506 1.8943,0.924293 1.859231,1.985727 -0.03382,1.058303 -0.877952,1.898684 -1.974454,1.859858 -0.385749,-0.0094 -8.733191,0.0063 -15.157528,11.417773 -0.01257,0.02223 -0.03163,0.03758 -0.04485,0.0591 -0.06442,0.105126 -0.138942,0.203363 -0.22395,0.295574 -0.02998,0.03256 -0.05832,0.06536 -0.09025,0.09549 -0.09871,0.0933 -0.2072,0.177609 -0.328059,0.250407 -0.01362,0.0082 -0.02528,0.01965 -0.03907,0.02747 -0.0023,0.0013 -0.0041,0.0033 -0.0065,0.0046 -0.08954,0.05041 -0.184655,0.0775 -0.278118,0.112333 -0.05933,0.02207 -0.114513,0.05471 -0.175732,0.07092 -0.161249,0.04265 -0.325162,0.06474 -0.487977,0.06474 -6.26e-4,0 -0.0013,-2.35e-4 -0.0019,-2.35e-4 -6.26e-4,0 -0.0013,2.35e-4 -0.0019,2.35e-4 -0.162346,0 -0.325866,-0.02176 -0.486724,-0.06419 -0.08046,-0.02113 -0.153814,-0.06192 -0.230996,-0.0933 -0.07476,-0.03045 -0.151935,-0.04986 -0.224107,-0.09049 -0.0019,-0.0011 -0.0035,-0.0027 -0.0054,-0.0037 -0.0166,-0.0094 -0.03037,-0.02293 -0.04666,-0.03288 -0.117886,-0.07163 -0.224342,-0.153971 -0.321013,-0.245242 -0.03226,-0.03052 -0.06106,-0.06379 -0.09135,-0.09675 -0.08462,-0.09189 -0.159059,-0.189899 -0.223324,-0.29479 -0.01322,-0.02152 -0.03241,-0.03702 -0.04493,-0.05925 C 41.716658,15.202174 33.33227,15.208436 32.996618,15.223465 Z"
       id="path10"
       inkscape:connector-curvature="0" /></g></svg>