<svg xmlns="http://www.w3.org/2000/svg" height="75" width="75" viewBox="0 0 91.463 91.463"><circle r="39.634" cy="45.732" cx="45.732" class="icon" fill="#8c564b"/><g fill="#fff"><path d="M30.841 72.202a1.358 1.358 0 00-.23-1.196 1.335 1.335 0 00-1.063-.522 1.125 1.125 0 01-1.126-1.126v-7.93c-.171.03-.343.062-.519.078a11.85 11.85 0 01-.487.034 5.95 5.95 0 01-.29.007c-.475 0-.937-.072-1.388-.18v7.991a1.125 1.125 0 01-1.126 1.126c-.418 0-.805.19-1.062.52-.15.197-.382.611-.23 1.198a1.314 1.314 0 00.917.917 1.35 1.35 0 001.628-.809 1.297 1.297 0 011.214-.838h.002c.54 0 1.017.329 1.214.837a1.353 1.353 0 001.629.81 1.314 1.314 0 00.917-.917zm37.303 0a1.355 1.355 0 00-.23-1.196 1.335 1.335 0 00-1.063-.522 1.125 1.125 0 01-1.125-1.126v-7.991c-.45.107-.913.18-1.387.18-.096 0-.192-.003-.29-.008a11.806 11.806 0 01-.489-.034c-.176-.016-.347-.048-.518-.078v7.93a1.125 1.125 0 01-1.126 1.127c-.419 0-.806.19-1.063.52-.15.196-.382.61-.23 1.197a1.314 1.314 0 00.917.917 1.352 1.352 0 001.628-.808 1.298 1.298 0 011.215-.838h.001c.542 0 1.019.33 1.215.838a1.354 1.354 0 001.628.808 1.314 1.314 0 00.917-.917zM63.725 21.45c.602 1.178.93 2.456 1.055 3.708a15.799 15.799 0 01.442-.474 1.126 1.126 0 011.605 1.58 12.438 12.438 0 00-2.648 3.964c-.035.091-.068.184-.105.27-.003.007-.008.012-.012.019-1.17 3.013-.954 5.933-.655 7.61 2.317-1.572 4.137-3.416 5.423-5.499 1.9-3.075 1.648-7.11-.625-10.043a22.33 22.33 0 00-2.801-2.968 1.774 1.774 0 00-1.578-.431c-.439.087-.84.334-1.155.666a9.079 9.079 0 011.054 1.598zm-41.09 11.178c1.284 2.082 3.105 3.928 5.422 5.5.299-1.677.515-4.597-.655-7.61-.004-.008-.009-.013-.012-.02-.037-.086-.071-.179-.105-.27a12.439 12.439 0 00-2.648-3.964 1.126 1.126 0 011.604-1.58c.154.156.298.315.443.474.125-1.253.453-2.53 1.054-3.708a9.079 9.079 0 011.054-1.598 2.23 2.23 0 00-1.154-.667 1.772 1.772 0 00-1.578.432 22.256 22.256 0 00-2.802 2.968c-2.272 2.932-2.523 6.969-.624 10.043z"/><path d="M39.845 60.976c1.412-.548 3.012-1.17 5.887-1.17 2.875 0 4.475.622 5.886 1.17.728.282 1.416.55 2.263.732 3.083.668 4.564-2.08 5.03-3.2-.88-1.591-1.356-3.623-1.41-6.045-.025-1.135.413-2.237 1.233-3.104.761-.804 2.038-2.41 2.038-4.124a1.126 1.126 0 112.25 0c0 2.37-1.442 4.392-2.653 5.672-.41.433-.629.968-.617 1.506.046 2.076.432 3.774 1.147 5.047.574 1.018 1.645 1.693 2.865 1.804.134.012.266.021.398.028 1.594.08 3.075-.878 3.684-2.378 4.718-11.616 1.39-15.46.258-16.36-1.368-1.09-2.896-.951-3.736-.362l-.017.01a27.36 27.36 0 01-1.1.688 1.125 1.125 0 01-1.64-.614c-.093-.28-1.761-5.477.467-10.87.57-1.512.916-4.437-.358-6.931-1.04-2.038-2.944-3.384-5.66-4.002-1.894-.43-2.817-.029-4.212.58-1.384.604-3.107 1.356-6.116 1.356-3.01 0-4.732-.752-6.116-1.356-1.397-.609-2.32-1.011-4.213-.58-2.715.618-4.62 1.964-5.66 4.002-1.273 2.494-.928 5.42-.356 6.932 2.227 5.393.558 10.588.465 10.87a1.125 1.125 0 01-1.64.613 26.984 26.984 0 01-1.099-.688l-.017-.01c-.841-.59-2.367-.727-3.736.362-1.133.9-4.46 4.744.258 16.36.609 1.5 2.09 2.461 3.687 2.378a9.48 9.48 0 00.395-.028c1.22-.111 2.291-.786 2.864-1.804.716-1.273 1.102-2.97 1.148-5.047.012-.538-.208-1.073-.618-1.506-1.21-1.28-2.654-3.302-2.654-5.672a1.126 1.126 0 112.252 0c0 1.715 1.277 3.32 2.038 4.124.82.867 1.258 1.97 1.232 3.104-.053 2.422-.53 4.453-1.41 6.044.468 1.119 1.948 3.868 5.031 3.2.847-.182 1.535-.449 2.262-.731zm7.013-10.362a1.126 1.126 0 11-2.252 0V39.17a1.126 1.126 0 112.252 0zM35.88 25.599a1.133 1.133 0 01-1.15-1.097 1.122 1.122 0 011.084-1.153c.234-.008 5.574-.1 9.918 6.25 4.342-6.348 9.676-6.258 9.917-6.25a1.126 1.126 0 011.089 1.162 1.108 1.108 0 01-1.156 1.088c-.226-.006-5.11.004-8.87 6.68-.006.014-.017.023-.026.036a1.11 1.11 0 01-.13.172c-.018.02-.035.039-.053.056a1.12 1.12 0 01-.192.146l-.023.017-.004.003c-.053.029-.108.045-.163.065-.034.013-.067.032-.102.042a1.117 1.117 0 01-.286.038h-.002c-.096 0-.191-.013-.285-.038-.047-.012-.09-.036-.135-.055-.044-.017-.09-.029-.131-.052l-.003-.003-.028-.019a1.12 1.12 0 01-.188-.143l-.053-.057a1.11 1.11 0 01-.131-.173c-.008-.012-.019-.021-.026-.034-3.769-6.694-8.675-6.69-8.871-6.681z"/></g></svg>