<svg xmlns="http://www.w3.org/2000/svg" width="100" height="100"><g fill="#fff"><path d="M24.386 94.867c.258-1.002-.137-1.71-.395-2.044a2.282 2.282 0 0 0-1.815-.891 1.923 1.923 0 0 1-1.924-1.924V76.454c-.293.052-.586.107-.887.134-.28.026-.559.045-.833.058a10.17 10.17 0 0 1-.496.012c-.811 0-1.6-.123-2.371-.308v13.658a1.923 1.923 0 0 1-1.924 1.924c-.715 0-1.376.325-1.815.89-.258.335-.653 1.043-.395 2.045a2.246 2.246 0 0 0 1.568 1.568 2.308 2.308 0 0 0 2.783-1.382 2.217 2.217 0 0 1 2.074-1.432h.003c.924 0 1.739.561 2.076 1.43a2.313 2.313 0 0 0 2.783 1.384 2.245 2.245 0 0 0 1.568-1.568zm63.75 0c.259-1.002-.136-1.71-.394-2.044a2.282 2.282 0 0 0-1.816-.891 1.923 1.923 0 0 1-1.923-1.924V76.35c-.77.184-1.559.308-2.37.308-.163 0-.328-.005-.494-.013a20.177 20.177 0 0 1-.837-.058c-.3-.027-.593-.082-.886-.134v13.554a1.923 1.923 0 0 1-1.924 1.924c-.715 0-1.377.325-1.816.89-.258.334-.653 1.043-.394 2.045a2.246 2.246 0 0 0 1.567 1.568c1.343.344 2.416-.432 2.783-1.382a2.218 2.218 0 0 1 2.077-1.432h.002c.925.001 1.74.564 2.076 1.433a2.314 2.314 0 0 0 2.781 1.38 2.245 2.245 0 0 0 1.568-1.567zM80.584 8.134c1.028 2.014 1.588 4.198 1.803 6.337a27 27 0 0 1 .756-.81 1.925 1.925 0 0 1 2.742 2.7 21.256 21.256 0 0 0-4.525 6.776c-.06.155-.117.314-.18.46-.005.013-.014.021-.02.033-2 5.15-1.63 10.14-1.12 13.007 3.96-2.688 7.071-5.84 9.268-9.399 3.246-5.255 2.816-12.152-1.067-17.164-1.71-2.205-3.547-3.975-4.788-5.072-.977-.862-2.005-.878-2.696-.737-.75.15-1.435.572-1.974 1.138a15.516 15.516 0 0 1 1.801 2.731zM10.36 27.238c2.196 3.558 5.308 6.712 9.268 9.399.51-2.865.88-7.856-1.12-13.006-.006-.012-.015-.021-.02-.033-.064-.148-.122-.306-.18-.462a21.258 21.258 0 0 0-4.525-6.775 1.925 1.925 0 0 1 2.741-2.7c.264.267.51.539.757.81.214-2.14.774-4.323 1.802-6.337a15.516 15.516 0 0 1 1.801-2.73c-.538-.567-1.224-.988-1.973-1.14-.692-.14-1.72-.126-2.696.738-1.241 1.097-3.08 2.867-4.788 5.072-3.883 5.012-4.313 11.91-1.068 17.164z"/><path d="M39.774 75.682c2.412-.936 5.146-1.998 10.06-1.998 4.913 0 7.647 1.062 10.06 1.998 1.244.483 2.419.94 3.866 1.252 5.27 1.142 7.8-3.556 8.597-5.47-1.504-2.719-2.318-6.19-2.41-10.33-.042-1.939.706-3.823 2.107-5.304 1.301-1.374 3.483-4.118 3.483-7.048a1.923 1.923 0 1 1 3.847 0c0 4.05-2.466 7.506-4.535 9.693-.7.74-1.075 1.654-1.055 2.574.078 3.548.738 6.449 1.961 8.624.98 1.741 2.81 2.894 4.895 3.084.229.02.456.036.68.047 2.725.136 5.256-1.5 6.296-4.063 8.064-19.852 2.376-26.42.441-27.96-2.338-1.862-4.948-1.625-6.384-.618-.01.007-.02.01-.03.017-.61.401-1.234.794-1.878 1.175a1.922 1.922 0 0 1-2.803-1.048c-.16-.48-3.011-9.36.797-18.577.976-2.585 1.565-7.583-.612-11.846-1.777-3.482-5.031-5.782-9.671-6.839-3.239-.735-4.815-.049-7.2.992-2.365 1.032-5.31 2.317-10.452 2.317-5.143 0-8.087-1.285-10.452-2.317-2.387-1.041-3.964-1.729-7.2-.992-4.64 1.057-7.895 3.357-9.672 6.839-2.177 4.263-1.587 9.262-.61 11.847 3.807 9.217.955 18.096.795 18.576a1.923 1.923 0 0 1-2.802 1.048 46.116 46.116 0 0 1-1.878-1.175c-.01-.007-.02-.01-.03-.017-1.437-1.007-4.045-1.242-6.385.618-1.935 1.54-7.622 8.108.442 27.96 1.04 2.562 3.57 4.206 6.3 4.063a16.2 16.2 0 0 0 .675-.047c2.086-.19 3.916-1.343 4.895-3.084 1.224-2.175 1.883-5.076 1.962-8.624.02-.92-.355-1.834-1.056-2.575-2.068-2.186-4.535-5.643-4.535-9.692a1.923 1.923 0 1 1 3.848 0c0 2.93 2.182 5.674 3.482 7.048 1.402 1.481 2.15 3.365 2.107 5.304-.091 4.14-.905 7.61-2.409 10.329.798 1.912 3.328 6.61 8.597 5.47 1.447-.312 2.622-.768 3.866-1.251zm11.984-17.708a1.923 1.923 0 1 1-3.848 0V38.416a1.923 1.923 0 1 1 3.848 0zm-18.761-42.75a1.937 1.937 0 0 1-1.965-1.875 1.917 1.917 0 0 1 1.853-1.971c.399-.014 9.525-.17 16.949 10.683 7.421-10.85 16.537-10.696 16.949-10.683a1.924 1.924 0 0 1 1.86 1.986c-.035 1.058-.879 1.898-1.975 1.86-.386-.01-8.734.006-15.158 11.417-.012.022-.031.038-.045.06a1.898 1.898 0 0 1-.224.295c-.03.032-.058.065-.09.095a1.915 1.915 0 0 1-.328.25c-.014.009-.025.02-.039.028l-.007.005c-.09.05-.184.077-.278.112-.059.022-.114.055-.175.071a1.909 1.909 0 0 1-.488.065h-.004c-.163 0-.326-.022-.487-.064-.08-.021-.154-.062-.23-.094-.076-.03-.153-.05-.225-.09l-.005-.004c-.017-.01-.03-.023-.047-.033a1.915 1.915 0 0 1-.321-.245c-.032-.03-.061-.064-.091-.097a1.898 1.898 0 0 1-.224-.295c-.013-.021-.032-.037-.045-.059-6.44-11.439-14.825-11.433-15.16-11.418z"/></g></svg>