<svg xmlns="http://www.w3.org/2000/svg" width="510" height="510.004"><path d="M254.957 5C185.853 5 126.939 29.382 78.154 78.154 29.382 126.943 5 185.894 5 255.04c0 69.1 24.382 128.018 73.154 176.798 48.785 48.777 107.699 73.167 176.803 73.167 69.141 0 128.096-24.39 176.876-73.167C480.61 383.057 505 324.14 505 255.04c0-69.141-24.39-128.096-73.167-176.876C383.053 29.382 324.094 5 254.957 5zm0 20.36c63.703 0 117.922 22.382 162.586 67.092 44.715 44.67 67.088 98.872 67.088 162.583 0 63.666-22.373 117.88-67.088 162.59-44.664 44.71-98.883 67.092-162.586 67.092-63.666 0-117.885-22.381-162.59-67.091-44.67-44.71-66.998-98.925-66.998-162.591 0-63.707 22.328-117.914 66.993-162.583 44.718-44.71 98.933-67.091 162.599-67.091zM110.68 102.554l117.922 335.355h52.79l117.926-335.355h-48.777L254.957 385.11l-95.5-282.558z" fill="#2ca02c"/></svg>