<svg xmlns="http://www.w3.org/2000/svg" width="76" height="76"><g fill="#d62728"><path d="M37.978 57.998l-.32.002c-5.686-.002-10.829-1.55-14.588-4.568C19.316 50.426 17 45.92 17 40.283v-.054c0-5.63 2.316-10.668 6.058-14.28 3.741-3.615 8.91-5.815 14.614-5.815.1 0 .205 0 .313.003.093-.001.188-.003.289-.003 5.702 0 10.872 2.2 14.612 5.814a19.727 19.727 0 016.058 14.244l.002.024v.042c.01 5.649-2.309 10.165-6.07 13.175C49.119 56.45 43.976 57.998 38.29 58l-.311-.002zM18.746 40.237v.02c.008 5.178 2.052 9.099 5.417 11.815 3.37 2.711 8.12 4.184 13.496 4.184l.319-.001h.311c5.375.001 10.125-1.47 13.494-4.181 3.36-2.713 5.402-6.623 5.418-11.788l-.002-.06c-.001-10.278-8.423-18.34-18.925-18.349-.09 0-.186.003-.285.004H37.948a10.386 10.386 0 00-.276-.004c-10.495.009-18.914 8.06-18.928 18.329v.007zm39.329.02l.867-.087z"/><path d="M30.802 34.558a1.979 1.979 0 11-3.958 0 1.979 1.979 0 013.958 0M49.106 34.558a1.979 1.979 0 11-3.957 0 1.979 1.979 0 013.957 0M32.38 52.07c-3.742-.003-6.79-3.051-6.793-6.794.003-3.744 3.052-6.792 6.794-6.794h11.204c3.742.002 6.791 3.05 6.795 6.794-.004 3.743-3.052 6.79-6.795 6.794v-1.745c2.771-.004 5.046-2.278 5.05-5.049-.005-2.772-2.278-5.045-5.05-5.05l-11.204.001c-2.773.004-5.046 2.277-5.05 5.05.005 2.77 2.279 5.045 5.05 5.05h11.204V52.07H32.381z"/><path d="M35.32 45.213a1.802 1.802 0 11-3.604 0 1.802 1.802 0 013.604 0M44.136 45.213a1.802 1.802 0 11-3.604 0 1.802 1.802 0 013.604 0M20.78 29.681c-.174-.509-.39-1.175-.605-1.932-.499-1.735-.986-3.947-.982-5.732-.004-1.065.181-1.955.515-2.474.343-.508.712-.774 1.631-.798h.054c1.44 0 4.068 1.02 8.02 3.779a17.472 17.472 0 012.044-.677c-4.71-3.42-7.81-4.818-10.118-4.846-1.378-.024-2.52.63-3.11 1.618-.603.976-.775 2.158-.78 3.398.016 4.138 2.08 9.31 2.089 9.362l.162.414a20.22 20.22 0 011.3-2.268zM53.858 18.746c.921.023 1.29.289 1.634.797.333.52.52 1.41.515 2.475.003 1.784-.483 3.997-.98 5.731a39.55 39.55 0 01-.52 1.679c.254.343.503.698.746 1.07l.106-.147-.106.148c.157.24.31.488.462.74.319-.852 2.022-5.463 2.036-9.221-.005-1.24-.178-2.424-.78-3.4-.591-.987-1.733-1.64-3.113-1.617-2.293.029-5.37 1.41-10.035 4.79.543.163 1.217.395 1.983.721 3.99-2.785 6.63-3.793 8.052-3.766z"/></g><path d="M70.665 38C70.665 19.96 56.04 5.335 38 5.335S5.335 19.96 5.335 38 19.96 70.665 38 70.665C56.031 70.643 70.643 56.031 70.665 38zM8.23 38a29.744 29.744 0 0149.583-22.205l.597.603-42.012 41.985-.604-.596A29.643 29.643 0 018.23 38zm10.124 22.333l-.596-.59 41.998-41.972.59.597c10.365 11.782 9.793 29.59-1.307 40.683-11.1 11.094-28.909 11.654-40.685 1.282z" stroke="#d62728" stroke-width=".67" fill="#d62728"/></svg>