<svg xmlns="http://www.w3.org/2000/svg" version="1" width="76" height="76" viewBox="0 0 57 57"><g transform="translate(3.092 3.092) scale(.13158)"><path d="M298.482 81.06c-5.352 1.405-16.656 3.947-25.085 5.62-21.472 4.213-24.884 5.484-34.45 12.575-13.579 10.1-23.077 29.633-23.01 47.36.067 6.756 1.07 11.572 2.207 10.301.268-.335 1.204-2.274 2.007-4.281 4.08-9.833 15.92-24.817 26.021-32.911 5.15-4.147 15.519-8.228 15.519-6.087 0 .735-3.545 5.15-7.76 9.565-3.946 4.214-5.284 5.954-12.71 16.723-7.692 11.305-17.726 31.507-24.482 49.5-6.555 17.46-11.371 31.373-14.582 41.808-5.418 17.86-10.302 31.975-11.171 32.242-1.07.402-4.014-9.164-10.168-32.91-9.565-37.193-13.646-49.97-23.412-73.248-6.69-15.853-15.52-28.563-33.446-48.028-9.833-10.77-23.814-21.071-32.242-23.88-5.485-1.874-5.954-.937-1.806 3.678 19.532 22.008 30.837 38.33 42.81 61.541 10.101 19.733 17.058 39.333 29.7 84.284 3.212 11.506 10.302 40.805 12.577 52.176 2.541 12.643 5.351 25.018 6.087 26.958.267.602 1.27 1.405 2.274 1.672 2.274.602 13.245.602 15.586 0 3.478-1.003 4.147-3.746 8.964-35.319 3.21-21.339 5.953-34.115 11.438-53.18 9.298-32.509 19.198-56.323 25.219-60.202.87-.535 5.15-1.606 9.632-2.342 17.392-2.876 31.373-10.569 41.273-22.81 6.622-8.16 8.361-14.181 10.033-34.249.87-10.636 1.405-13.646 3.412-20 1.27-4.148 2.14-7.894 2.007-8.362-.469-1.204-1.539-1.07-12.442 1.806z" fill="#2ca02c"/><circle r="178.72" cy="193.095" cx="193.095" fill="none" stroke="#2ca02c" stroke-width="18.75"/></g></svg>