<svg xmlns="http://www.w3.org/2000/svg" height="75" width="75" viewBox="0 0 91.463 91.463"><circle r="39.634" cy="45.732" cx="45.732" class="icon" fill="#2ca02c"/><g stroke-miterlimit="10" stroke="#fff" stroke-width="1.338" stroke-linecap="round" stroke-linejoin="round"><path d="M62.152 35.232l-6.385-2.643c-3.51-1.456-7.084.384-7.94 4.086l-7.144 30.847c-.429 1.853.656 3.959 2.413 4.687 1.755.727 4.014.004 5.02-1.608l16.76-26.862c2.012-3.225.787-7.053-2.724-8.507zM58.96 18.953z" fill="none"/><path d="M72.5 28.301c-5.29-2.192-11.35.321-13.54 5.61 2.19-5.29 8.25-7.802 13.54-5.61zM47.015 40.18l7.98 3.305zm12.25 12.554l-6.914-2.863zm-15.41 1.094l5.852 2.424zm7.994 10.789l-4.786-1.983zM37.937 28.818l-4.975 3.95-5.09-5.45.252 7.455-6.31.724a9.827 9.827 0 0 1 4.552 3.837 9.861 9.861 0 0 1 6.62.335v-.002a9.828 9.828 0 0 1 4.447-4.918 9.849 9.849 0 0 1 .504-5.932z" fill="none"/><path d="M47.827 36.676c.105-.464.257-.898.442-1.3a10.462 10.462 0 0 0-9.942-1.054 9.83 9.83 0 0 0-5.34 5.344v.003a9.85 9.85 0 0 0-7.557-.002c-5.345 2.213-7.882 8.338-5.67 13.681 3.573 8.62 13.252 12.836 21.946 9.75z" fill="#fff"/></g></svg>