<svg xmlns="http://www.w3.org/2000/svg" version="1" width="100" height="100"><path stroke-miterlimit="10" d="M78.959 31.466l-11.34-4.695c-6.234-2.586-12.583.683-14.104 7.258L40.826 88.82c-.762 3.29 1.166 7.031 4.286 8.325 3.118 1.29 7.13.006 8.915-2.856l29.772-47.714c3.572-5.727 1.396-12.526-4.84-15.109z" fill="none" stroke="#2ca02c" stroke-width="2.377" stroke-linecap="round" stroke-linejoin="round"/><path stroke-miterlimit="10" d="M73.291 2.551c3.667 8.858 3.395 18.362-.002 26.569 3.397-8.207 3.67-17.71.002-26.569z" fill="none" stroke="#2ca02c" stroke-width="2.377" stroke-linecap="round" stroke-linejoin="round"/><path stroke-miterlimit="10" d="M97.34 19.155c-9.396-3.893-20.16.57-24.051 9.964 2.592-6.265-.378-13.445-6.643-16.038 6.265 2.593 9.235 9.773 6.643 16.038 3.892-9.395 14.655-13.857 24.05-9.964zM52.073 40.253l14.173 5.87zM73.833 62.551L61.55 57.465zM46.46 64.495L56.855 68.8zM60.659 83.657l-8.5-3.521zM35.948 20.073l-8.837 7.015-9.041-9.678.449 13.24-11.21 1.286a17.455 17.455 0 0 1 8.087 6.816 17.516 17.516 0 0 1 11.76.595l-.001-.004a17.456 17.456 0 0 1 7.898-8.736c-.811-3.6-.454-7.273.895-10.535z" fill="none" stroke="#2ca02c" stroke-width="2.377" stroke-linecap="round" stroke-linejoin="round"/><path stroke-miterlimit="10" d="M53.515 34.03c.187-.823.456-1.595.786-2.31-5.017-3.445-11.616-4.371-17.659-1.87a17.46 17.46 0 0 0-9.487 9.491l.001.005c-4.147-1.714-8.95-1.856-13.423-.002-9.493 3.929-14 14.809-10.07 24.3 6.345 15.312 23.537 22.799 38.98 17.319z" fill="#2ca02c" stroke="#2ca02c" stroke-width="2.377" stroke-linecap="round" stroke-linejoin="round"/></svg>