<?xml version="1.0" encoding="UTF-8" standalone="no"?>
<svg
   xmlns:dc="http://purl.org/dc/elements/1.1/"
   xmlns:cc="http://creativecommons.org/ns#"
   xmlns:rdf="http://www.w3.org/1999/02/22-rdf-syntax-ns#"
   xmlns:svg="http://www.w3.org/2000/svg"
   xmlns="http://www.w3.org/2000/svg"
   xmlns:sodipodi="http://sodipodi.sourceforge.net/DTD/sodipodi-0.dtd"
   xmlns:inkscape="http://www.inkscape.org/namespaces/inkscape"
   version="1.0"
   x="0px"
   y="0px"
   viewBox="0 0 100 100"
   enable-background="new 0 0 100 100"
   xml:space="preserve"
   id="svg24"
   sodipodi:docname="veggie.svg"
   width="100"
   height="100"
   inkscape:version="0.92.2 (5c3e80d, 2017-08-06)"><metadata
     id="metadata30"><rdf:RDF><cc:Work
         rdf:about=""><dc:format>image/svg+xml</dc:format><dc:type
           rdf:resource="http://purl.org/dc/dcmitype/StillImage" /><dc:title></dc:title></cc:Work></rdf:RDF></metadata><defs
     id="defs28" /><sodipodi:namedview
     pagecolor="#ffffff"
     bordercolor="#666666"
     borderopacity="1"
     objecttolerance="10"
     gridtolerance="10"
     guidetolerance="10"
     inkscape:pageopacity="0"
     inkscape:pageshadow="2"
     inkscape:window-width="1366"
     inkscape:window-height="708"
     id="namedview26"
     showgrid="false"
     inkscape:zoom="1.888"
     inkscape:cx="-26.800847"
     inkscape:cy="62.5"
     inkscape:window-x="0"
     inkscape:window-y="32"
     inkscape:window-maximized="1"
     inkscape:current-layer="svg24" /><path
     stroke-miterlimit="10"
     d="M 78.958814,31.466303 67.618545,26.770909 C 61.384963,24.18547 55.036076,27.454415 53.514531,34.029156 L 40.826268,88.820249 c -0.761962,3.289153 1.166122,7.031204 4.28529,8.324518 3.11798,1.290936 7.131056,0.0059 8.915306,-2.855275 L 83.799231,46.574775 c 3.572066,-5.727193 1.395542,-12.525411 -4.840417,-15.108472 z"
     id="path2"
     inkscape:connector-curvature="0"
     style="fill:none;stroke:#2ca02c;stroke-width:2.37741494;stroke-linecap:round;stroke-linejoin:round;stroke-miterlimit:10;stroke-opacity:1" /><path
     stroke-miterlimit="10"
     d="m 73.291057,2.5509944 c 3.667162,8.8582476 3.394948,18.3619636 -0.0024,26.5688006 3.397326,-8.206837 3.66954,-17.710553 0.0024,-26.5688006 z"
     id="path4"
     inkscape:connector-curvature="0"
     style="fill:none;stroke:#2ca02c;stroke-width:2.37741494;stroke-linecap:round;stroke-linejoin:round;stroke-miterlimit:10;stroke-opacity:1" /><path
     stroke-miterlimit="10"
     d="M 97.339797,19.15486 C 87.944254,15.261843 77.180508,19.724251 73.288679,29.118606 75.88125,22.854118 72.91067,15.674325 66.646182,13.080565 c -3.129867,-1.295691 -6.489154,-1.202972 -9.390789,0 2.901635,-1.202972 6.262111,-1.295691 9.390789,0 6.264488,2.59376 9.235068,9.773553 6.642497,16.038041 3.891829,-9.394355 14.655575,-13.856763 24.051118,-9.963746 z"
     id="path6"
     inkscape:connector-curvature="0"
     style="fill:none;stroke:#2ca02c;stroke-width:2.37741494;stroke-linecap:round;stroke-linejoin:round;stroke-miterlimit:10;stroke-opacity:1" /><path
     stroke-miterlimit="10"
     d="m 52.072629,40.253229 14.172959,5.869837 z"
     id="path8"
     inkscape:connector-curvature="0"
     style="fill:none;stroke:#2ca02c;stroke-width:2.37741494;stroke-linecap:round;stroke-linejoin:round;stroke-miterlimit:10;stroke-opacity:1" /><path
     stroke-miterlimit="10"
     d="M 73.833107,62.551003 61.550193,57.464524 Z"
     id="path10"
     inkscape:connector-curvature="0"
     style="fill:none;stroke:#2ca02c;stroke-width:2.37741494;stroke-linecap:round;stroke-linejoin:round;stroke-miterlimit:10;stroke-opacity:1" /><path
     stroke-miterlimit="10"
     d="M 46.460741,64.49454 56.85361,68.800038 Z"
     id="path12"
     inkscape:connector-curvature="0"
     style="fill:none;stroke:#2ca02c;stroke-width:2.37741494;stroke-linecap:round;stroke-linejoin:round;stroke-miterlimit:10;stroke-opacity:1" /><path
     stroke-miterlimit="10"
     d="M 60.658663,83.656504 52.159404,80.135552 Z"
     id="path14"
     inkscape:connector-curvature="0"
     style="fill:none;stroke:#2ca02c;stroke-width:2.37741494;stroke-linecap:round;stroke-linejoin:round;stroke-miterlimit:10;stroke-opacity:1" /><path
     stroke-miterlimit="10"
     d="m 35.947812,20.072542 -8.836851,7.015752 -9.041309,-9.678456 0.449332,13.239823 -11.2107007,1.286182 c 3.4686487,1.438336 6.2205067,3.866865 8.0879657,6.816048 3.983359,-1.199406 8.121249,-0.908172 11.759883,0.595542 l -0.0012,-0.0048 c 1.507281,-3.6422 4.23061,-6.772067 7.897773,-8.735811 -0.810699,-3.600595 -0.454087,-7.272513 0.895096,-10.534326 z"
     id="path16"
     inkscape:connector-curvature="0"
     style="fill:none;stroke:#2ca02c;stroke-width:2.37741494;stroke-linecap:round;stroke-linejoin:round;stroke-miterlimit:10;stroke-opacity:1" /><path
     stroke-miterlimit="10"
     d="m 53.514531,34.029156 c 0.187816,-0.822585 0.456464,-1.594056 0.786924,-2.30847 -5.017534,-3.446062 -11.616049,-4.372066 -17.659438,-1.869836 -4.473106,1.852006 -7.77058,5.340862 -9.487074,9.49064 l 0.0012,0.0048 C 23.008743,37.632174 18.206365,37.489529 13.733258,39.34389 4.2402294,43.272545 -0.26734922,54.152785 3.6637063,63.643425 10.007838,78.956354 27.200114,86.442834 42.643801,80.962893 Z"
     id="path18"
     inkscape:connector-curvature="0"
     style="fill:#2ca02c;stroke:#2ca02c;stroke-width:2.37741494;stroke-linecap:round;stroke-linejoin:round;stroke-miterlimit:10;stroke-opacity:1;fill-opacity:1" /></svg>